<svg width="155" height="165" viewBox="0 0 155 165" fill="none" xmlns="http://www.w3.org/2000/svg">
<g clip-path="url(#clip0_199_595)">
<path d="M155 0H0V165H155V0Z" fill="#222537"/>
<path d="M77.4404 24.8145C79.2898 25.7977 80.9842 26.8462 82.6304 28.0088C83.0406 28.2964 83.4512 28.5836 83.862 28.8707C84.0763 29.0205 84.2903 29.1704 84.5113 29.3247C85.2591 29.8384 86.0214 30.3385 86.7852 30.8389C88.6915 32.1016 90.5037 33.428 92.3101 34.7673C92.8644 35.1779 93.4202 35.5871 93.976 35.9961C95.8493 37.3786 97.6633 38.7827 99.3816 40.2719C99.8588 40.657 100.337 41.0415 100.816 41.425C102.519 42.8204 104.079 44.287 105.629 45.7743C106.145 46.2674 106.668 46.7569 107.19 47.2461C109.994 49.8864 112.503 52.6353 114.91 55.4803C115.056 55.6508 115.202 55.8216 115.353 55.9972C117.291 58.2663 118.95 60.6346 120.55 63.0406C120.769 63.3697 120.989 63.6981 121.21 64.0261C121.521 64.4889 121.825 64.9533 122.129 65.419C122.307 65.6897 122.485 65.9604 122.669 66.2391C123.011 66.9488 123.011 66.9487 122.964 67.5227C122.673 67.9462 122.673 67.9462 121.611 68.2723C121.137 68.3706 120.661 68.464 120.184 68.5536C119.798 68.6319 119.798 68.6319 119.405 68.7115C118.583 68.8769 117.759 69.0354 116.935 69.1927C116.423 69.291 115.912 69.3893 115.4 69.4876C114.62 69.6377 113.84 69.7876 113.059 69.9365C109.593 70.6058 106.178 71.3996 102.757 72.1843C102.264 72.2964 101.771 72.4086 101.278 72.5204C98.8864 73.065 96.5048 73.6309 94.1286 74.21C93.8792 74.2703 93.63 74.3306 93.3733 74.3928C92.2423 74.6706 91.1536 74.967 90.0565 75.3144C88.9627 75.6606 87.8853 75.9258 86.7443 76.1736C85.0729 76.5371 83.4545 76.9609 81.8288 77.4201C81.3865 77.5419 80.9445 77.6638 80.5022 77.7853C77.5157 78.6077 74.545 79.4485 71.607 80.3621C71.3484 80.442 71.0899 80.5219 70.8235 80.6041C70.3055 80.7646 69.7878 80.9261 69.2711 81.0885C67.4271 81.6586 67.4271 81.6586 66.301 81.6586C66.2961 81.4436 66.291 81.2287 66.2861 81.0073C66.2652 80.2003 66.2401 79.393 66.2123 78.5861C66.2014 78.2387 66.1917 77.8913 66.1841 77.5439C66.2225 74.6322 66.2225 74.6322 64.9508 71.9352C64.6562 71.8217 64.3616 71.7083 64.058 71.5913C63.263 71.1872 63.263 71.1872 63.1068 70.6361C63.0444 69.9088 63.0278 69.1891 63.0308 68.4602C63.0254 67.9645 63.0169 67.4689 63.0057 66.9732C63.006 66.7535 63.006 66.5337 63.0063 66.3071C62.9179 65.6474 62.7375 65.2594 62.2504 64.7048C61.2077 64.1918 60.9683 64.1421 59.7861 64.1299C59.4943 64.126 59.2024 64.1218 58.9015 64.118C58.5873 64.1164 58.2727 64.1151 57.9491 64.1138C57.6249 64.1115 57.3007 64.1093 56.9664 64.107C56.2804 64.1035 55.5941 64.1012 54.9081 64.1002C53.8598 64.0973 52.8117 64.0851 51.7633 64.0725C51.0967 64.07 50.4301 64.0683 49.7632 64.0671C49.2936 64.0596 49.2936 64.0596 48.8147 64.0522C47.265 64.0603 46.6044 64.0787 45.3511 64.8073C44.2243 65.9198 44.3025 66.8099 44.2903 68.1595C44.287 68.388 44.2837 68.6168 44.2801 68.8524C44.2695 69.6103 44.2613 70.3686 44.2528 71.1269C44.2458 71.6516 44.2389 72.1762 44.2316 72.7009C44.2128 74.0837 44.1962 75.4669 44.1799 76.8497C44.1629 78.2599 44.1441 79.6705 44.1257 81.0807C44.0893 83.8496 44.0551 86.6186 44.0221 89.3871C43.4778 89.5876 43.4778 89.5876 42.9223 89.7922C42.4373 89.9711 41.952 90.1503 41.467 90.3291C41.2288 90.4168 40.9908 90.5044 40.7453 90.5947C38.5339 91.4106 36.3393 92.2495 34.1484 93.0958C33.4225 93.3755 32.6962 93.6555 31.9703 93.9353C31.6582 94.0558 31.346 94.1763 31.0245 94.3004C30.2968 94.5788 29.5662 94.8524 28.8319 95.1215C23.9104 85.228 28.0404 73.4778 33.7128 64.3133C38.3631 56.9727 44.3706 50.2009 51.4482 44.0118C51.6199 43.8607 51.7912 43.7099 51.9677 43.5545C52.4748 43.1082 52.9843 42.6638 53.4947 42.2197C53.6373 42.0956 53.7796 41.9719 53.9261 41.8439C57.218 39.0151 60.7473 36.3551 64.322 33.7228C65.0401 33.194 65.7563 32.6636 66.4723 32.1332C66.9373 31.79 67.4023 31.4469 67.8673 31.1038C68.0771 30.9485 68.2866 30.7932 68.5027 30.6331C70.697 29.021 73.0498 27.5487 75.4151 26.0766C75.6122 25.9537 75.8092 25.8307 76.0124 25.7041C76.4883 25.4074 76.9642 25.1109 77.4404 24.8145Z" fill="#010101"/>
<g filter="url(#filter0_d_199_595)">
<path d="M77.4404 24.8145C79.2898 25.7977 80.9842 26.8462 82.6304 28.0088C83.0406 28.2964 83.4512 28.5836 83.862 28.8707C84.0763 29.0205 84.2903 29.1704 84.5113 29.3247C85.2591 29.8384 86.0214 30.3385 86.7852 30.8389C88.6915 32.1016 90.504 33.428 92.3101 34.7673C92.8644 35.1779 93.4202 35.5871 93.976 35.9961C95.8493 37.3786 97.6633 38.7827 99.3816 40.2719C99.8588 40.657 100.337 41.0415 100.816 41.425C102.519 42.8204 104.079 44.287 105.629 45.7743C106.145 46.2674 106.668 46.7569 107.19 47.2461C109.994 49.8864 112.503 52.6353 114.91 55.4803C115.056 55.6508 115.202 55.8216 115.353 55.9972C117.291 58.2663 118.95 60.6346 120.55 63.0406C120.769 63.3697 120.989 63.6981 121.21 64.0261C121.521 64.4889 121.825 64.9533 122.129 65.419C122.307 65.6897 122.485 65.9604 122.669 66.2391C123.011 66.9488 123.011 66.9487 122.964 67.5227C122.673 67.9462 122.673 67.9462 121.611 68.2723C121.137 68.3706 120.661 68.464 120.184 68.5536C119.798 68.6319 119.798 68.6319 119.405 68.7115C118.583 68.8769 117.759 69.0354 116.935 69.1927C116.423 69.291 115.912 69.3893 115.4 69.4876C114.62 69.6377 113.84 69.7876 113.059 69.9365C109.593 70.6058 106.178 71.3996 102.757 72.1843C102.264 72.2964 101.771 72.4086 101.278 72.5204C98.8864 73.065 96.5048 73.6309 94.1286 74.21C93.8792 74.2703 93.63 74.3306 93.3733 74.3928C92.2423 74.6706 91.1536 74.967 90.0565 75.3144C88.9627 75.6606 87.8853 75.9258 86.7443 76.1736C85.0729 76.5371 83.4545 76.9609 81.8288 77.4201C81.3865 77.5419 80.9445 77.6638 80.5022 77.7853C77.5157 78.6077 74.545 79.4485 71.607 80.3621C71.3484 80.442 71.0899 80.5219 70.8235 80.6041C70.3055 80.7646 69.7878 80.9261 69.2711 81.0885C67.4271 81.6582 67.4271 81.6582 66.301 81.6582C66.2961 81.4436 66.291 81.2287 66.2861 81.0073C66.2652 80.2003 66.2401 79.393 66.2123 78.5861C66.2014 78.2387 66.1917 77.8913 66.1841 77.5439C66.2225 74.6322 66.2225 74.6322 64.9508 71.9352C64.6562 71.8217 64.3616 71.7083 64.058 71.5913C63.263 71.1872 63.263 71.1872 63.1068 70.6361C63.0444 69.9088 63.0278 69.1891 63.0308 68.4602C63.0254 67.9645 63.0169 67.4689 63.0057 66.9732C63.006 66.7535 63.006 66.5337 63.0063 66.3071C62.9179 65.6474 62.7375 65.2594 62.2504 64.7048C61.2077 64.1918 60.9683 64.1421 59.7861 64.1299C59.4943 64.126 59.2024 64.1218 58.9015 64.118C58.5873 64.1164 58.2727 64.1151 57.9491 64.1138C57.6249 64.1115 57.3007 64.1093 56.9664 64.107C56.2804 64.1035 55.5941 64.1012 54.9081 64.1002C53.8598 64.0973 52.8117 64.0851 51.7633 64.0725C51.0967 64.07 50.4301 64.0683 49.7632 64.0671C49.2936 64.0596 49.2936 64.0596 48.8147 64.0522C47.265 64.0603 46.6044 64.0787 45.3511 64.8073C44.2243 65.9198 44.3025 66.8099 44.2903 68.1595C44.287 68.388 44.2837 68.6168 44.2801 68.8524C44.2695 69.6103 44.2613 70.3686 44.2528 71.1269C44.2458 71.6516 44.2389 72.1762 44.2316 72.7009C44.2128 74.0837 44.1962 75.4669 44.1799 76.8497C44.1629 78.2599 44.1441 79.6705 44.1257 81.0807C44.0893 83.8496 44.0551 86.6186 44.0221 89.3871C43.4778 89.5876 43.4778 89.5876 42.9223 89.7922C42.4373 89.9711 41.952 90.1503 41.467 90.3291C41.2288 90.4168 40.9908 90.5044 40.7453 90.5947C38.5339 91.4106 36.3393 92.2495 34.1484 93.0958C33.4225 93.3755 32.6962 93.6555 31.9703 93.9353C31.6582 94.0558 31.346 94.1763 31.0245 94.3004C30.2968 94.5788 29.5662 94.8524 28.8319 95.1215C23.9104 85.228 28.0404 73.4778 33.7128 64.3133C38.3631 56.9727 44.3706 50.2009 51.4485 44.0118C51.6198 43.8607 51.7912 43.7099 51.9677 43.5545C52.4748 43.1082 52.9843 42.6638 53.4947 42.2197C53.6373 42.0956 53.7796 41.9719 53.9261 41.8439C57.218 39.0151 60.7473 36.3551 64.322 33.7228C65.0401 33.194 65.7563 32.6636 66.4723 32.1332C66.9373 31.79 67.4023 31.4469 67.8673 31.1038C68.0771 30.9485 68.2866 30.7932 68.5027 30.6331C70.697 29.021 73.0498 27.5487 75.4151 26.0766C75.6122 25.9537 75.8092 25.8307 76.0124 25.7041C76.4883 25.4074 76.9642 25.1109 77.4404 24.8145Z" fill="#82AAFF"/>
<path d="M81.9659 29.0854L81.9623 29.0829C80.5312 28.0722 79.0633 27.1502 77.483 26.2822C77.1972 26.4602 76.9114 26.6382 76.626 26.8163M81.9659 29.0854L54.9126 62.8111M81.9659 29.0854C82.3764 29.3732 82.7875 29.6608 83.1986 29.9481C83.1986 29.9482 83.1989 29.9483 83.1989 29.9483L83.848 30.4021L83.8519 30.405L83.8562 30.4078C84.6157 30.9295 85.3877 31.436 86.1497 31.9352C88.0263 33.1785 89.8158 34.4875 91.6195 35.8249L91.6198 35.8253M81.9659 29.0854L91.6198 35.8253M76.626 26.8163C76.626 26.8163 76.626 26.8163 76.626 26.8163ZM76.626 26.8163L76.0287 27.1888L76.0278 27.1894C73.6583 28.664 71.3448 30.1125 69.1941 31.6923C69.1935 31.6928 69.1926 31.6934 69.192 31.694L68.5608 32.1618L68.5584 32.1634C68.0937 32.5062 67.629 32.8491 67.1643 33.192C66.4486 33.7221 65.7318 34.2532 65.0128 34.783C61.4429 37.4118 57.9451 40.0482 54.6913 42.8442C54.6904 42.8452 54.6892 42.8461 54.6883 42.8471L54.2633 43.2174L54.2621 43.218C53.7532 43.6608 53.2458 44.1036 52.7411 44.5477C52.7411 44.548 52.7405 44.548 52.7405 44.548L52.2216 45.005L52.2186 45.0079C45.2164 51.1309 39.2949 57.8112 34.7218 65.0283C29.2898 73.8068 25.5896 84.5128 29.4467 93.5298C29.837 93.3838 30.2263 93.2366 30.6149 93.0877C30.6152 93.0877 30.6155 93.0873 30.6161 93.0873L31.5588 92.7235L31.5594 92.7232C32.2857 92.4435 33.0116 92.1634 33.7376 91.8837C35.9303 91.0368 38.1309 90.1957 40.3502 89.3768L40.3508 89.3765L41.0719 89.1109H41.0725L42.5275 88.5743L42.5278 88.574L42.8236 88.4651C42.8532 85.9978 42.8838 83.5302 42.9162 81.063V81.0626L42.9204 80.7423C42.9377 79.4384 42.9549 78.1358 42.9707 76.8332C42.9867 75.4501 43.0037 74.0663 43.0221 72.6825C43.0294 72.1584 43.0364 71.6341 43.0433 71.1101C43.0518 70.3528 43.06 69.5929 43.0709 68.833V68.8323L43.0809 68.1472C43.0809 68.1459 43.0809 68.1446 43.0809 68.1433C43.0815 68.0663 43.0818 67.9867 43.0821 67.9042C43.0833 67.3606 43.0845 66.7064 43.2283 66.0857C43.4157 65.2768 43.8186 64.5633 44.5289 63.862L44.6397 63.7528L44.7723 63.6758C45.4837 63.2623 46.0873 63.0167 46.7633 62.8901C47.3991 62.7708 48.059 62.767 48.8104 62.7631H48.8222L48.8337 62.7634L49.7743 62.7779C50.4394 62.7792 51.1042 62.7808 51.7691 62.7834H51.7739H51.7787C52.8274 62.796 53.8703 62.8082 54.9126 62.8111M54.9126 62.8111L81.5227 76.1732M54.9126 62.8111C55.5996 62.8121 56.2868 62.8144 56.974 62.8179H56.9758L57.9554 62.8247L57.9506 64.1137M91.6198 35.8253C92.1756 36.2371 92.7326 36.6474 93.2888 37.0563C95.1482 38.4285 96.934 39.8117 98.6187 41.2715L98.6348 41.2857M91.6198 35.8253L98.6348 41.2857M98.6348 41.2857L98.6514 41.2989M98.6514 41.2989C99.1276 41.6837 99.6053 42.0679 100.085 42.451C101.746 43.8129 103.274 45.2496 104.82 46.732L104.822 46.7339M98.6514 41.2989L104.822 46.7339M104.822 46.7339C105.343 47.2315 105.869 47.7243 106.391 48.2131C109.15 50.8116 111.626 53.5228 114.011 56.3426L114.014 56.3462M104.822 46.7339L114.014 56.3462M114.014 56.3462L114.017 56.3497L114.459 56.8644C114.459 56.8644 114.459 56.8647 114.459 56.8647C116.347 59.0758 117.974 61.3945 119.563 63.7853L119.564 63.7857C119.783 64.1163 120.004 64.4463 120.227 64.7763M114.014 56.3462L120.227 64.7763M120.227 64.7763C120.532 65.2317 120.833 65.6903 121.135 66.1534L121.137 66.1559L121.139 66.1588L121.631 66.9062C121.633 66.9116 121.636 66.9168 121.638 66.922C121.551 66.949 121.449 66.9806 121.328 67.0177C120.879 67.1105 120.428 67.1991 119.975 67.2842L119.967 67.2858L119.959 67.2874L119.181 67.445C118.365 67.609 117.546 67.7669 116.723 67.9236L116.721 67.9239C116.209 68.0225 115.698 68.1208 115.186 68.2191M120.227 64.7763L115.186 68.2191M115.186 68.2191C114.406 68.3693 113.626 68.5188 112.847 68.6677L112.845 68.6683C109.599 69.2948 106.399 70.0296 103.221 70.7595C102.982 70.8143 102.744 70.8691 102.505 70.9238M115.186 68.2191L102.505 70.9238M102.505 70.9238C102.012 71.036 101.52 71.1478 101.027 71.2597H101.026C98.6278 71.8059 96.2404 72.3731 93.86 72.9535C93.8597 72.9535 93.8597 72.9535 93.8597 72.9535L93.1062 73.1356L93.1023 73.1368C91.9534 73.4192 90.8393 73.7221 89.7129 74.0788M102.505 70.9238L89.7129 74.0788M89.7129 74.0788H89.7132L90.0577 75.3128L89.7129 74.0788ZM81.5227 76.1732C81.0825 76.2947 80.642 76.4159 80.2013 76.5371H80.2004C77.2096 77.3608 74.225 78.2054 71.2691 79.1249M81.5227 76.1732C81.5239 76.1729 81.5251 76.1726 81.526 76.1723L81.83 77.4194L81.5197 76.1739C81.5206 76.1739 81.5218 76.1736 81.5227 76.1732ZM71.2691 79.1249L71.2709 79.1242L71.6084 80.362M71.2691 79.1249L71.6084 80.362M71.2691 79.1249L70.4874 79.3662C69.9685 79.5267 69.45 79.6885 68.932 79.8516M71.6084 80.362L70.825 80.6041C70.307 80.7646 69.7893 80.926 69.2725 81.0884M71.6084 80.362C74.5465 79.4484 77.5172 78.6076 80.5037 77.7852C80.946 77.6637 81.388 77.5419 81.8303 77.4201C83.456 76.9609 85.0744 76.5371 86.7458 76.1736C87.8868 75.9257 88.9642 75.6605 90.058 75.3144C91.1551 74.967 92.2437 74.6705 93.3748 74.3927L94.1301 74.21C96.5062 73.6309 98.8878 73.065 101.279 72.5204L66.2876 81.0072M57.9506 64.1137L57.9585 62.8247L58.9078 62.8289H58.9133H58.9187L59.7991 62.8408L59.7876 64.1298M57.9506 64.1137L58.903 64.1179M57.9506 64.1137L56.9679 64.107C56.2819 64.1034 55.5956 64.1012 54.9096 64.1002C53.8612 64.0973 52.8132 64.0851 51.7648 64.0725L58.903 64.1179M68.932 79.8516C68.157 80.091 67.7586 80.2128 67.4792 80.2802M68.932 79.8516C68.9332 79.8513 68.9341 79.8509 68.935 79.8506L69.2725 81.0884M68.932 79.8516C68.9311 79.8519 68.9302 79.8522 68.9293 79.8525L69.2725 81.0884M69.2725 81.0884C68.3456 81.3749 67.8845 81.5174 67.5122 81.5883L67.4982 80.976L67.4979 80.9721C67.4922 80.7414 67.4858 80.5106 67.4792 80.2802M66.2876 81.0072L66.3024 81.6582M66.2876 81.0072C66.2667 80.2003 66.2416 79.393 66.2137 78.586C66.2028 78.2386 66.1931 77.8912 66.1856 77.5438M66.2876 81.0072L64.3053 70.4118M67.4792 80.2802C67.4625 79.6998 67.444 79.1197 67.4241 78.5403M67.4792 80.2802C67.4153 80.2957 67.3578 80.3082 67.3036 80.3185C67.0565 80.3659 66.8834 80.3691 66.3024 80.3691V81.0069V81.6582M67.4241 78.5403C67.4132 78.2058 67.4041 77.8716 67.3965 77.5374M67.4241 78.5403C67.4241 78.5396 67.4241 78.5393 67.4241 78.5387L66.2146 78.586L67.4241 78.5422C67.4241 78.5416 67.4241 78.5409 67.4241 78.5403ZM66.3024 81.6582C66.6878 81.6582 66.9412 81.6582 67.1819 81.6356L66.3024 81.6582ZM67.3965 77.5374C67.3971 77.4939 67.3977 77.451 67.3983 77.4085C67.4159 76.0998 67.428 75.2222 67.2394 74.3653C67.052 73.5136 66.6733 72.7108 66.1011 71.4984C66.0793 71.4517 66.0569 71.4047 66.0345 71.3567L65.818 70.8977L65.3643 70.7228L64.5275 70.4008M67.3965 77.5374C67.3965 77.5293 67.3962 77.5213 67.3962 77.5132L66.1856 77.5438M67.3965 77.5374C67.3965 77.5458 67.3965 77.5538 67.3962 77.5619L66.1856 77.5438M64.5275 70.4008C64.4309 70.3515 64.3561 70.3132 64.2956 70.2816M64.5275 70.4008C64.5447 70.4095 64.5626 70.4185 64.5814 70.4279L64.0595 71.5913M64.5275 70.4008L64.4715 70.3792L64.0595 71.5913M66.1856 77.5438C66.224 74.6322 66.224 74.6322 64.9522 71.9351L64.0595 71.5913M64.2956 70.2816C64.2529 69.6873 64.2405 69.0879 64.2432 68.4663V68.4553V68.4447C64.2375 67.9493 64.2293 67.4537 64.2181 66.958M64.2956 70.2816C64.298 70.3173 64.3007 70.3534 64.3038 70.3892M64.2956 70.2816C64.2862 70.2764 64.2774 70.2719 64.2687 70.2674C64.2684 70.2661 64.268 70.2651 64.2677 70.2639L64.2644 70.2648C64.2284 70.2458 64.1978 70.229 64.1712 70.2139C64.1345 70.193 64.12 70.1826 64.12 70.1826C64.12 70.1826 64.1436 70.1994 64.1751 70.231C64.1899 70.2458 64.2045 70.2619 64.219 70.2796L63.1083 70.6361M64.0595 71.5913C63.2645 71.1871 63.2645 71.1871 63.1083 70.6361M64.2181 66.958L64.2187 66.3077V66.2162L64.2066 66.1253C64.1503 65.7041 64.0546 65.2981 63.8621 64.8891C63.6735 64.4882 63.4225 64.1501 63.1361 63.8243L62.9745 63.6406L62.7601 63.5349C62.2376 63.2778 61.8101 63.0809 61.3288 62.9697C60.8544 62.8601 60.3825 62.8469 59.8006 62.8408H59.803L59.7876 64.1298M64.2181 66.958V66.9738L63.0072 66.9732M64.2181 66.958C64.2181 66.9526 64.2181 66.9474 64.2178 66.9423L63.0072 66.9732M64.3038 70.3892L63.0323 68.4601M64.3038 70.3892C64.3065 70.3992 64.3092 70.4082 64.3119 70.4169C64.3225 70.4517 64.325 70.4556 64.3207 70.4453C64.318 70.4385 64.3132 70.4269 64.3053 70.4118M64.3038 70.3892L64.3053 70.4118M63.1083 70.6361C63.0459 69.9087 63.0293 69.1891 63.0323 68.4601M63.1083 70.6361L64.3144 70.5188C64.311 70.4833 64.3083 70.4475 64.3053 70.4118M59.7876 64.1298C60.9698 64.1421 61.2092 64.1917 62.2518 64.7048M59.7876 64.1298L58.903 64.1179M63.0072 66.9732L63.0078 66.3071C62.9194 65.6474 62.7389 65.2594 62.2518 64.7048M63.0072 66.9732C63.0184 67.4688 63.0268 67.9645 63.0323 68.4601M62.2518 64.7048L58.903 64.1179M62.2518 64.7048L63.0323 68.4601" stroke="#82AAFF" stroke-width="8"/>
</g>
<path d="M128.058 84.1719C127.82 94.6713 123.157 104.14 113.205 111.747C112.971 111.938 112.738 112.128 112.497 112.324C104.298 118.8 91.4699 122.351 79.659 122.764C69.2165 122.999 58.2693 121.069 49.7422 116.467C51.3028 115.196 53.1685 114.282 55.08 113.315C55.4278 113.138 55.7754 112.962 56.1338 112.779C58.6886 111.488 61.2809 110.257 63.9265 109.07C64.6325 108.749 65.3324 108.422 66.0311 108.092C70.6593 105.913 75.3777 103.848 80.1231 101.81C80.5051 101.646 80.8869 101.482 81.2805 101.313C95.6476 95.1593 110.478 89.5802 125.74 84.7307C127.482 84.1719 127.482 84.1719 128.058 84.1719Z" fill="#82AAFF"/>
<path d="M81.0667 47.0666C82.7611 47.9286 83.5988 48.8113 84.3426 50.1839C84.9596 51.275 85.579 51.5406 87.0863 51.9985C88.1265 52.6969 88.5391 53.217 88.6178 54.2318C88.5476 55.237 88.0847 55.7578 87.0863 56.4651C85.9683 57.0085 85.6253 57.0256 84.326 57.0333C83.9718 57.0365 83.6173 57.0397 83.2519 57.043C82.8692 57.0436 82.4863 57.0442 82.0918 57.0446C81.6976 57.0462 81.3038 57.0481 80.8975 57.0497C80.0632 57.0523 79.2285 57.0533 78.3942 57.0533C77.1191 57.0542 75.8443 57.0633 74.5695 57.0729C73.7587 57.0742 72.948 57.0752 72.1373 57.0758C71.566 57.081 71.566 57.081 70.9833 57.0865C68.8684 57.0774 67.5848 57.0143 65.986 55.9688C65.0778 55.1845 64.6719 54.6482 64.3906 53.6424C64.7224 52.3672 65.6851 51.6038 67.0069 50.7578C68.1252 50.4858 68.9595 50.4849 70.1338 50.4942C70.6884 50.4974 70.6884 50.4974 71.2545 50.501C71.5376 50.5039 71.8203 50.5064 72.1119 50.5097C72.1558 50.3611 72.1997 50.2129 72.2448 50.0598C72.7549 48.725 73.9882 47.8065 75.5152 47.0356C77.3528 46.589 79.237 46.6135 81.0667 47.0666Z" fill="#FCFCFC"/>
<path d="M46.9219 69.1882C51.3842 69.1882 55.8465 69.1882 60.4438 69.1882C60.4438 70.8997 60.4438 72.6113 60.4438 74.3747C55.9815 74.3747 51.5192 74.3747 46.9219 74.3747C46.9219 72.6632 46.9219 70.9516 46.9219 69.1882Z" fill="#117737"/>
<path d="M95.3067 43.8407C96.5397 44.055 97.0801 44.4901 97.8296 45.1665C98.1911 45.6135 98.1911 45.6135 98.3619 46.1175C98.4466 46.3283 98.4466 46.3283 98.5326 46.5432C99.0948 46.7102 99.6648 46.8648 100.24 47.0083C100.985 47.7688 101.139 47.986 100.924 48.8684C100.002 49.6708 99.5035 49.9976 98.0089 50.17C97.5499 50.1729 97.0907 50.1697 96.6314 50.1607C96.3871 50.16 96.1425 50.1597 95.8906 50.1591C95.376 50.1568 94.861 50.1516 94.3464 50.1439C93.5602 50.1326 92.7746 50.1297 91.9881 50.1284C91.4865 50.1252 90.9851 50.1213 90.4838 50.1172C90.2495 50.1159 90.0155 50.1146 89.7742 50.1133C88.5502 50.0927 87.5954 50.0511 86.5785 49.5658C85.7245 48.6937 85.7124 48.2735 85.8956 47.2409C86.5573 46.5577 86.5573 46.5577 87.6033 46.0782C88.6447 45.986 89.6337 46.0086 90.6772 46.0782C90.7199 45.938 90.7626 45.7978 90.8065 45.6535C91.4589 44.1008 93.1697 43.7711 95.3067 43.8407Z" fill="#FAFAFA"/>
<path d="M50.4388 100.308C50.7663 100.878 51.0936 101.449 51.4312 102.037C51.1545 102.166 50.8778 102.295 50.5926 102.427C47.5743 103.848 44.698 105.382 41.8405 106.976C41.1461 107.364 40.4501 107.749 39.7532 108.134C39.468 108.293 39.1825 108.452 38.8889 108.615C38.2029 108.952 38.2029 108.952 37.5414 108.952C37.0818 108.468 36.6399 107.974 36.2188 107.47C39.5712 105.045 43.5295 103.139 47.4211 101.234C47.6119 101.14 47.8026 101.045 47.9991 100.947C48.8951 100.517 49.3492 100.308 50.4388 100.308Z" fill="white"/>
<path d="M72.7351 90.5112C73.1565 91.2666 73.4056 91.7584 73.4056 92.5915C73.1592 92.7013 72.9125 92.8112 72.6585 92.9247C71.727 93.3404 70.7958 93.7561 69.8645 94.1722C69.4646 94.3507 69.0647 94.5292 68.6645 94.7078C68.0833 94.9669 67.502 95.2266 66.9211 95.4864C66.5429 95.6543 66.1648 95.8225 65.7752 95.9955C65.0747 96.3149 64.3817 96.6443 63.6994 96.9862C63.4051 97.1335 63.1108 97.2807 62.8075 97.4325C62.5529 97.565 62.2986 97.6971 62.0364 97.8337C61.3323 98.0522 61.3323 98.0522 60.5957 97.8734C59.792 97.4196 59.6146 96.9546 59.3203 96.2318C62.6607 94.6565 66.0101 93.0958 69.4232 91.6163C69.679 91.5044 69.9351 91.3926 70.1985 91.2776C71.9825 90.5112 71.9825 90.5112 72.7351 90.5112Z" fill="white"/>
<path d="M92.0997 83.5957C92.4372 84.1745 92.7748 84.7533 93.1226 85.3495C90.919 86.1764 88.6909 86.9585 86.4452 87.7217C85.2709 88.1216 84.1075 88.5325 82.9562 88.9669C81.8691 89.3585 81.8691 89.3585 81.187 89.3585C80.1641 87.9176 80.1641 87.9176 80.1641 87.354C90.9148 83.5957 90.9148 83.5957 92.0997 83.5957Z" fill="white"/>
<path d="M109.374 78.9854C109.785 79.7298 110.028 80.2138 110.028 81.0343C109.743 81.112 109.458 81.1897 109.164 81.2696C106.835 81.9109 104.55 82.5899 102.284 83.3608C101.522 83.5957 101.522 83.5957 100.868 83.5957C99.8867 82.1229 99.8867 82.1229 99.8867 81.5467C100.23 81.4478 100.574 81.3485 100.928 81.2467C101.392 81.112 101.856 80.9773 102.32 80.8422C102.559 80.773 102.798 80.7033 103.045 80.6315C104.555 80.1884 106.029 79.7133 107.477 79.1555C108.065 78.9854 108.065 78.9854 109.374 78.9854Z" fill="white"/>
<path d="M126.005 74.9516C126.492 75.7466 126.354 76.4959 126.334 77.3718C123.372 77.91 120.409 78.4479 117.447 78.9857C116.867 78.1552 116.789 77.8472 116.789 76.834C123.956 74.9516 123.956 74.9516 126.005 74.9516Z" fill="white"/>
<path d="M63.2617 72.6461C64.2962 73.571 64.3407 73.9138 64.3885 75.1913C64.3873 75.5145 64.3858 75.8378 64.3843 76.1707C64.384 76.3431 64.3833 76.5158 64.383 76.6937C64.3815 77.2425 64.3782 77.7917 64.3746 78.3405C64.3734 78.7137 64.3721 79.0869 64.3709 79.46C64.3679 80.3727 64.3631 81.2854 64.3576 82.198C63.8151 82.3192 63.8151 82.3192 63.2617 82.4429C63.2617 79.21 63.2617 75.977 63.2617 72.6461Z" fill="#1A1A1A"/>
<g filter="url(#filter1_d_199_595)">
<path d="M89.8872 100.943C89.7937 101.005 89.4719 101.768 89.1634 102.646L88.6094 104.222L89.1722 104.299L89.718 104.373L90.2121 102.713C90.6556 101.197 90.678 101.032 90.3901 100.936C90.1978 100.872 89.9805 100.88 89.8872 100.943Z" fill="#7EE787" fill-opacity="0.37"/>
<path d="M99.6035 102.285C99.5166 102.329 99.1945 103.092 98.886 103.97L98.332 105.547L98.8267 105.614L99.3214 105.681L99.8996 104.239C100.211 103.456 100.43 102.679 100.412 102.526C100.364 102.257 99.8669 102.095 99.6035 102.285Z" fill="#7EE787" fill-opacity="0.37"/>
<path d="M84.6532 104.768C84.4276 104.85 84.2236 105.329 83.7646 106.787C82.9391 109.34 83.0835 109.641 85.7618 110.869C87.4556 111.644 87.6278 111.968 87.1619 113.294C86.9164 113.992 86.8901 114.271 87.0635 114.388C87.3542 114.578 94.6549 115.572 95.0463 115.475C95.2825 115.413 95.4453 115.154 95.7223 114.366C96.1755 113.076 96.4262 112.923 98.4618 112.674C101.713 112.272 102.339 111.813 103.265 109.18C103.762 107.765 103.83 107.417 103.64 107.298C103.27 107.078 84.9719 104.624 84.6532 104.768ZM94.4197 107.9C95.3209 108.286 96.0796 108.671 96.1332 108.772C96.1761 108.853 95.7756 109.23 95.2428 109.627C94.2368 110.353 94.2368 110.353 95.0681 110.785C95.2029 110.86 95.3015 110.986 95.2761 111.058C95.1835 111.27 89.991 113.585 89.6837 113.544C89.1721 113.474 89.3825 112.977 90.2071 112.207C91.102 111.39 91.2646 111.131 90.9404 111.087C90.8211 111.07 90.4602 110.927 90.1399 110.771C89.4306 110.449 89.4621 110.36 91.1199 108.39C91.8628 107.496 92.2572 107.137 92.4792 107.167C92.6496 107.19 93.5184 107.515 94.4197 107.9Z" fill="#2F2E41"/>
<path d="M91.2058 109.407C90.7465 110.001 90.353 110.511 90.3403 110.546C90.3279 110.583 90.5864 110.711 90.9021 110.83C91.8736 111.168 92.0431 111.398 91.6638 111.816C91.3505 112.148 91.3505 112.148 92.0095 111.9C93.0513 111.479 93.206 111.294 92.6465 111.105C92.3989 110.996 92.1978 110.856 92.223 110.784C92.2545 110.695 92.717 110.345 93.2435 109.966C93.7869 109.589 94.2029 109.271 94.1814 109.23C94.1535 109.207 93.6579 108.99 93.0942 108.763L92.0522 108.321L91.2058 109.407Z" fill="#7EE787" fill-opacity="0.37"/>
<path d="M88.7831 115.264C88.6959 115.309 88.5882 115.463 88.544 115.589C88.4874 115.75 88.9163 115.902 90.0637 116.096C91.6313 116.366 91.6715 116.352 91.8102 115.958C91.9425 115.582 91.8974 115.557 90.4476 115.36C89.6117 115.246 88.8594 115.2 88.7831 115.264Z" fill="#7EE787" fill-opacity="0.37"/>
<path d="M100.954 119.043C100.715 119.723 100.736 119.764 101.214 119.829C101.692 119.894 101.738 119.863 101.978 119.182C102.217 118.501 102.195 118.461 101.718 118.396C101.24 118.331 101.193 118.362 100.954 119.043Z" fill="#7EE787" fill-opacity="0.37"/>
</g>
<g filter="url(#filter2_d_199_595)">
<path d="M37.3359 146.631L38.8109 136.75H40.2858L40.7689 139.945C40.8113 140.233 40.8495 140.522 40.8834 140.811C40.9258 141.09 40.9554 141.307 40.9724 141.46C41.0317 141.307 41.1165 141.09 41.2267 140.811C41.3369 140.522 41.4555 140.229 41.5827 139.931L42.9813 136.75H44.5071L43.0322 146.631H41.9133L42.4473 143.044C42.5151 142.62 42.5956 142.155 42.6889 141.65C42.7906 141.145 42.9008 140.635 43.0195 140.12C43.1381 139.597 43.2526 139.096 43.3628 138.618C43.4814 138.14 43.5874 137.72 43.6806 137.359L41.4555 142.3H40.2476L39.4593 137.359C39.4508 137.711 39.4296 138.122 39.3957 138.591C39.3703 139.051 39.3364 139.543 39.294 140.066C39.2601 140.581 39.2177 141.095 39.1669 141.609C39.116 142.124 39.0567 142.602 38.9889 143.044L38.4548 146.631H37.3359ZM44.6294 146.631L48.5202 136.75H50.0587L50.9868 146.631H49.8679L49.6518 144.005H46.8418L45.8373 146.631H44.6294ZM47.2232 142.976H49.5628L49.2958 139.931C49.2534 139.353 49.2195 138.871 49.194 138.483C49.1771 138.095 49.1686 137.842 49.1686 137.725C49.1347 137.842 49.0499 138.095 48.9143 138.483C48.7872 138.871 48.6134 139.349 48.393 139.917L47.2232 142.976ZM52.7872 146.631L54.2621 136.75H57.2501C57.8265 136.75 58.3097 136.872 58.6996 137.116C59.0895 137.35 59.365 137.684 59.5261 138.117C59.6956 138.55 59.738 139.065 59.6532 139.66C59.5684 140.247 59.3735 140.761 59.0683 141.203C58.7716 141.636 58.3944 141.975 57.9367 142.218C57.479 142.453 56.9619 142.57 56.3855 142.57H54.5418L53.9315 146.631H52.7872ZM54.6944 141.474H56.5381C57.0382 141.474 57.462 141.312 57.8096 140.987C58.1656 140.653 58.386 140.211 58.4707 139.66C58.5555 139.101 58.4707 138.659 58.2164 138.334C57.9621 138.009 57.5849 137.847 57.0848 137.847H55.2412L54.6944 141.474ZM61.6065 142.706L61.7717 141.623H65.8405L65.6752 142.706H61.6065ZM70.6546 146.766C70.1036 146.766 69.6416 146.653 69.2687 146.428C68.9042 146.202 68.6456 145.877 68.4931 145.453C68.3405 145.02 68.3066 144.51 68.3913 143.924L69.0525 139.457C69.1457 138.862 69.3322 138.352 69.612 137.928C69.8917 137.504 70.2477 137.179 70.68 136.953C71.1208 136.728 71.6167 136.615 72.1676 136.615C72.7271 136.615 73.1891 136.728 73.5536 136.953C73.9265 137.179 74.1893 137.504 74.3419 137.928C74.5029 138.352 74.5368 138.857 74.4436 139.444L73.7824 143.924C73.6977 144.51 73.5112 145.02 73.223 145.453C72.9432 145.877 72.583 146.202 72.1422 146.428C71.7099 146.653 71.214 146.766 70.6546 146.766ZM70.8199 145.67C71.32 145.67 71.7269 145.521 72.0405 145.223C72.3541 144.916 72.5533 144.483 72.6381 143.924L73.2993 139.457C73.384 138.898 73.312 138.469 73.0831 138.171C72.8627 137.865 72.5025 137.711 72.0023 137.711C71.5107 137.711 71.1081 137.865 70.7944 138.171C70.4808 138.469 70.2816 138.898 70.1968 139.457L69.5357 143.924C69.4509 144.483 69.5187 144.916 69.7391 145.223C69.968 145.521 70.3282 145.67 70.8199 145.67ZM76.8543 142.706L77.0196 141.623H81.0883L80.923 142.706H76.8543ZM85.9533 146.766C85.0463 146.766 84.3681 146.527 83.9189 146.049C83.4696 145.562 83.3001 144.898 83.4103 144.059H84.5546C84.4783 144.555 84.5758 144.948 84.8471 145.237C85.1268 145.526 85.5506 145.67 86.1185 145.67C86.6526 145.67 87.0891 145.53 87.4282 145.25C87.7757 144.971 87.9876 144.583 88.0639 144.086C88.1233 143.662 88.0724 143.301 87.9113 143.003C87.7588 142.706 87.5129 142.498 87.1739 142.381L85.9787 141.961C85.3853 141.754 84.9488 141.411 84.6691 140.933C84.3893 140.454 84.2919 139.89 84.3766 139.241C84.4614 138.708 84.6436 138.248 84.9234 137.86C85.2031 137.463 85.5633 137.156 86.0041 136.94C86.4449 136.714 86.9408 136.601 87.4918 136.601C88.3055 136.601 88.9201 136.845 89.3354 137.332C89.7592 137.81 89.916 138.451 89.8059 139.254H88.6615C88.7378 138.767 88.6573 138.388 88.4199 138.117C88.1911 137.838 87.8266 137.698 87.3265 137.698C86.8348 137.698 86.4322 137.824 86.1185 138.077C85.8049 138.329 85.6142 138.681 85.5464 139.132C85.487 139.547 85.5337 139.908 85.6862 140.215C85.8473 140.522 86.1016 140.739 86.4491 140.865L87.657 141.298C88.2419 141.506 88.67 141.853 88.9412 142.34C89.2125 142.827 89.3015 143.4 89.2083 144.059C89.132 144.601 88.9412 145.074 88.6361 145.48C88.3394 145.886 87.958 146.202 87.4918 146.428C87.034 146.653 86.5212 146.766 85.9533 146.766ZM90.9196 146.631L92.3945 136.75H93.5389L92.9031 140.973H95.8784L96.5141 136.75H97.6585L96.1836 146.631H95.0392L95.7131 142.083H92.7378L92.064 146.631H90.9196ZM97.9969 146.631L101.888 136.75H103.426L104.354 146.631H103.235L103.019 144.005H100.209L99.2048 146.631H97.9969ZM100.591 142.976H102.93L102.663 139.931C102.621 139.353 102.587 138.871 102.562 138.483C102.545 138.095 102.536 137.842 102.536 137.725C102.502 137.842 102.417 138.095 102.282 138.483C102.155 138.871 101.981 139.349 101.761 139.917L100.591 142.976ZM106.155 146.631L107.63 136.75H110.504C111.054 136.75 111.516 136.872 111.889 137.116C112.271 137.35 112.542 137.68 112.703 138.104C112.873 138.528 112.915 139.024 112.83 139.593C112.763 140.08 112.61 140.517 112.373 140.906C112.144 141.294 111.847 141.614 111.483 141.866C111.127 142.119 110.724 142.291 110.275 142.381L110.414 141.772L111.915 146.631H110.618L109.41 142.435H107.922L107.299 146.631H106.155ZM108.088 141.339H109.817C110.292 141.339 110.694 141.181 111.025 140.865C111.364 140.54 111.572 140.116 111.648 139.593C111.733 139.06 111.652 138.636 111.406 138.32C111.169 138.004 110.813 137.847 110.338 137.847H108.609L108.088 141.339ZM113.881 146.631L115.355 136.75H120.696L120.53 137.86H116.322L115.864 140.919H119.628L119.462 142.015H115.699L115.177 145.521H119.386L119.221 146.631H113.881Z" fill="#82AAFF"/>
<mask id="mask0_199_595" style="mask-type:luminance" maskUnits="userSpaceOnUse" x="36" y="135" width="86" height="13">
<path d="M121.699 135.674H36.3281V147.598H121.699V135.674Z" fill="white"/>
<path d="M37.3359 146.631L38.8109 136.75H40.2858L40.7689 139.945C40.8113 140.233 40.8495 140.522 40.8834 140.811C40.9258 141.09 40.9554 141.307 40.9724 141.46C41.0317 141.307 41.1165 141.09 41.2267 140.811C41.3369 140.522 41.4555 140.229 41.5827 139.931L42.9813 136.75H44.5071L43.0322 146.631H41.9133L42.4473 143.044C42.5151 142.62 42.5956 142.155 42.6889 141.65C42.7906 141.145 42.9008 140.635 43.0195 140.12C43.1381 139.597 43.2526 139.096 43.3628 138.618C43.4814 138.14 43.5874 137.72 43.6806 137.359L41.4555 142.3H40.2476L39.4593 137.359C39.4508 137.711 39.4296 138.122 39.3957 138.591C39.3703 139.051 39.3364 139.543 39.294 140.066C39.2601 140.581 39.2177 141.095 39.1669 141.609C39.116 142.124 39.0567 142.602 38.9889 143.044L38.4548 146.631H37.3359ZM44.6294 146.631L48.5202 136.75H50.0587L50.9868 146.631H49.8679L49.6518 144.005H46.8418L45.8373 146.631H44.6294ZM47.2232 142.976H49.5628L49.2958 139.931C49.2534 139.353 49.2195 138.871 49.194 138.483C49.1771 138.095 49.1686 137.842 49.1686 137.725C49.1347 137.842 49.0499 138.095 48.9143 138.483C48.7872 138.871 48.6134 139.349 48.393 139.917L47.2232 142.976ZM52.7872 146.631L54.2621 136.75H57.2501C57.8265 136.75 58.3097 136.872 58.6996 137.116C59.0895 137.35 59.365 137.684 59.5261 138.117C59.6956 138.55 59.738 139.065 59.6532 139.66C59.5684 140.247 59.3735 140.761 59.0683 141.203C58.7716 141.636 58.3944 141.975 57.9367 142.218C57.479 142.453 56.9619 142.57 56.3855 142.57H54.5418L53.9315 146.631H52.7872ZM54.6944 141.474H56.5381C57.0382 141.474 57.462 141.312 57.8096 140.987C58.1656 140.653 58.386 140.211 58.4707 139.66C58.5555 139.101 58.4707 138.659 58.2164 138.334C57.9621 138.009 57.5849 137.847 57.0848 137.847H55.2412L54.6944 141.474ZM61.6065 142.706L61.7717 141.623H65.8405L65.6752 142.706H61.6065ZM70.6546 146.766C70.1036 146.766 69.6416 146.653 69.2687 146.428C68.9042 146.202 68.6456 145.877 68.4931 145.453C68.3405 145.02 68.3066 144.51 68.3913 143.924L69.0525 139.457C69.1457 138.862 69.3322 138.352 69.612 137.928C69.8917 137.504 70.2477 137.179 70.68 136.953C71.1208 136.728 71.6167 136.615 72.1676 136.615C72.7271 136.615 73.1891 136.728 73.5536 136.953C73.9265 137.179 74.1893 137.504 74.3419 137.928C74.5029 138.352 74.5368 138.857 74.4436 139.444L73.7824 143.924C73.6977 144.51 73.5112 145.02 73.223 145.453C72.9432 145.877 72.583 146.202 72.1422 146.428C71.7099 146.653 71.214 146.766 70.6546 146.766ZM70.8199 145.67C71.32 145.67 71.7269 145.521 72.0405 145.223C72.3541 144.916 72.5533 144.483 72.6381 143.924L73.2993 139.457C73.384 138.898 73.312 138.469 73.0831 138.171C72.8627 137.865 72.5025 137.711 72.0023 137.711C71.5107 137.711 71.1081 137.865 70.7944 138.171C70.4808 138.469 70.2816 138.898 70.1968 139.457L69.5357 143.924C69.4509 144.483 69.5187 144.916 69.7391 145.223C69.968 145.521 70.3282 145.67 70.8199 145.67ZM76.8543 142.706L77.0196 141.623H81.0883L80.923 142.706H76.8543ZM85.9533 146.766C85.0463 146.766 84.3681 146.527 83.9189 146.049C83.4696 145.562 83.3001 144.898 83.4103 144.059H84.5546C84.4783 144.555 84.5758 144.948 84.8471 145.237C85.1268 145.526 85.5506 145.67 86.1185 145.67C86.6526 145.67 87.0891 145.53 87.4282 145.25C87.7757 144.971 87.9876 144.583 88.0639 144.086C88.1233 143.662 88.0724 143.301 87.9113 143.003C87.7588 142.706 87.5129 142.498 87.1739 142.381L85.9787 141.961C85.3853 141.754 84.9488 141.411 84.6691 140.933C84.3893 140.454 84.2919 139.89 84.3766 139.241C84.4614 138.708 84.6436 138.248 84.9234 137.86C85.2031 137.463 85.5633 137.156 86.0041 136.94C86.4449 136.714 86.9408 136.601 87.4918 136.601C88.3055 136.601 88.9201 136.845 89.3354 137.332C89.7592 137.81 89.916 138.451 89.8059 139.254H88.6615C88.7378 138.767 88.6573 138.388 88.4199 138.117C88.1911 137.838 87.8266 137.698 87.3265 137.698C86.8348 137.698 86.4322 137.824 86.1185 138.077C85.8049 138.329 85.6142 138.681 85.5464 139.132C85.487 139.547 85.5337 139.908 85.6862 140.215C85.8473 140.522 86.1016 140.739 86.4491 140.865L87.657 141.298C88.2419 141.506 88.67 141.853 88.9412 142.34C89.2125 142.827 89.3015 143.4 89.2083 144.059C89.132 144.601 88.9412 145.074 88.6361 145.48C88.3394 145.886 87.958 146.202 87.4918 146.428C87.034 146.653 86.5212 146.766 85.9533 146.766ZM90.9196 146.631L92.3945 136.75H93.5389L92.9031 140.973H95.8784L96.5141 136.75H97.6585L96.1836 146.631H95.0392L95.7131 142.083H92.7378L92.064 146.631H90.9196ZM97.9969 146.631L101.888 136.75H103.426L104.354 146.631H103.235L103.019 144.005H100.209L99.2048 146.631H97.9969ZM100.591 142.976H102.93L102.663 139.931C102.621 139.353 102.587 138.871 102.562 138.483C102.545 138.095 102.536 137.842 102.536 137.725C102.502 137.842 102.417 138.095 102.282 138.483C102.155 138.871 101.981 139.349 101.761 139.917L100.591 142.976ZM106.155 146.631L107.63 136.75H110.504C111.054 136.75 111.516 136.872 111.889 137.116C112.271 137.35 112.542 137.68 112.703 138.104C112.873 138.528 112.915 139.024 112.83 139.593C112.763 140.08 112.61 140.517 112.373 140.906C112.144 141.294 111.847 141.614 111.483 141.866C111.127 142.119 110.724 142.291 110.275 142.381L110.414 141.772L111.915 146.631H110.618L109.41 142.435H107.922L107.299 146.631H106.155ZM108.088 141.339H109.817C110.292 141.339 110.694 141.181 111.025 140.865C111.364 140.54 111.572 140.116 111.648 139.593C111.733 139.06 111.652 138.636 111.406 138.32C111.169 138.004 110.813 137.847 110.338 137.847H108.609L108.088 141.339ZM113.881 146.631L115.355 136.75H120.696L120.53 137.86H116.322L115.864 140.919H119.628L119.462 142.015H115.699L115.177 145.521H119.386L119.221 146.631H113.881Z" fill="black"/>
</mask>
<g mask="url(#mask0_199_595)">
<path d="M37.3382 146.631L36.7403 146.53L36.6289 147.275H37.3382V146.631ZM38.8131 136.75V136.106H38.2964L38.2152 136.649L38.8131 136.75ZM40.2881 136.75L40.886 136.648L40.8039 136.106H40.2881V136.75ZM40.7712 139.945L41.3694 139.845L41.3691 139.842L40.7712 139.945ZM40.8857 140.811L40.285 140.891L40.2862 140.902L40.2881 140.913L40.8857 140.811ZM40.9747 141.46L40.3734 141.536L40.6462 144.003L41.5347 141.706L40.9747 141.46ZM41.229 140.811L41.7875 141.06L41.7887 141.057L41.7899 141.053L41.229 140.811ZM41.585 139.931L41.0367 139.658L41.0352 139.661L41.034 139.664L41.585 139.931ZM42.9836 136.75V136.106H42.5985L42.4354 136.477L42.9836 136.75ZM44.5094 136.75L45.1073 136.851L45.2187 136.106H44.5094V136.75ZM43.0345 146.631V147.275H43.5515L43.6324 146.732L43.0345 146.631ZM41.9156 146.631L41.3177 146.53L41.2066 147.275H41.9156V146.631ZM42.4496 143.044L41.8529 142.936L41.8523 142.94L41.8517 142.943L42.4496 143.044ZM42.6912 141.65L42.0993 141.515L42.0981 141.52L42.0972 141.526L42.6912 141.65ZM43.0217 140.12L43.61 140.274L43.6103 140.272L43.0217 140.12ZM43.3651 138.618L42.7799 138.453L42.7784 138.459L42.7771 138.465L43.3651 138.618ZM43.6829 137.359L44.2669 137.53L43.1371 137.081L43.6829 137.359ZM41.4578 142.3V142.944H41.839L42.004 142.578L41.4578 142.3ZM40.2499 142.3L39.6529 142.408L39.7386 142.944H40.2499V142.3ZM39.4616 137.359L40.0586 137.251L38.8564 137.343L39.4616 137.359ZM39.398 138.591L38.7944 138.542L38.7941 138.547L38.7938 138.553L39.398 138.591ZM39.2963 140.066L38.6933 140.011L38.6926 140.016L38.6923 140.021L39.2963 140.066ZM38.9911 143.044L38.3935 142.94L38.3932 142.943L38.9911 143.044ZM38.4571 146.631V147.275H38.9742L39.0553 146.732L38.4571 146.631ZM37.9361 146.732L39.411 136.851L38.2152 136.649L36.7403 146.53L37.9361 146.732ZM38.8131 137.395H40.2881V136.106H38.8131V137.395ZM39.6905 136.853L40.1736 140.047L41.3691 139.842L40.886 136.648L39.6905 136.853ZM40.173 140.044C40.2145 140.326 40.2517 140.608 40.285 140.891L41.4866 140.731C41.4518 140.436 41.4127 140.14 41.3694 139.845L40.173 140.044ZM40.2881 140.913C40.3298 141.19 40.358 141.396 40.3734 141.536L41.5762 141.385C41.5577 141.218 41.5262 140.991 41.4836 140.708L40.2881 140.913ZM41.5347 141.706C41.5931 141.554 41.6773 141.339 41.7875 141.06L40.6707 140.562C40.5602 140.842 40.4748 141.06 40.4149 141.215L41.5347 141.706ZM41.7899 141.053C41.8968 140.773 42.0124 140.488 42.1363 140.198L41.034 139.664C40.9035 139.97 40.7815 140.271 40.668 140.568L41.7899 141.053ZM42.1335 140.204L43.5322 137.023L42.4354 136.477L41.0367 139.658L42.1335 140.204ZM42.9836 137.395H44.5094V136.106H42.9836V137.395ZM43.9115 136.649L42.4366 146.53L43.6324 146.732L45.1073 136.851L43.9115 136.649ZM43.0345 145.986H41.9156V147.275H43.0345V145.986ZM42.5138 146.732L43.0478 143.145L41.8517 142.943L41.3177 146.53L42.5138 146.732ZM43.0466 143.152C43.1135 142.734 43.1928 142.275 43.2854 141.774L42.0972 141.526C42.003 142.035 41.9216 142.506 41.8529 142.936L43.0466 143.152ZM43.2833 141.785C43.3838 141.286 43.4925 140.782 43.61 140.274L42.4338 139.967C42.3137 140.487 42.2022 141.003 42.0993 141.515L43.2833 141.785ZM43.6103 140.272C43.7289 139.749 43.8431 139.249 43.9533 138.771L42.7771 138.465C42.6666 138.944 42.5522 139.445 42.4332 139.969L43.6103 140.272ZM43.9505 138.783C44.0689 138.306 44.1743 137.888 44.2669 137.53L43.0992 137.188C43.0054 137.552 42.8988 137.974 42.7799 138.453L43.9505 138.783ZM43.1371 137.081L40.912 142.021L42.004 142.578L44.2291 137.638L43.1371 137.081ZM41.4578 141.655H40.2499V142.944H41.4578V141.655ZM40.8469 142.192L40.0586 137.251L38.8646 137.467L39.6529 142.408L40.8469 142.192ZM38.8564 137.343C38.8483 137.681 38.8277 138.08 38.7944 138.542L40.0017 138.64C40.0362 138.164 40.058 137.741 40.0671 137.376L38.8564 137.343ZM38.7938 138.553C38.7686 139.007 38.735 139.493 38.6933 140.011L39.8996 140.122C39.9423 139.593 39.9768 139.096 40.0026 138.629L38.7938 138.553ZM38.6923 140.021C38.659 140.528 38.6173 141.035 38.567 141.542L39.7713 141.677C39.8231 141.155 39.866 140.633 39.9003 140.111L38.6923 140.021ZM38.567 141.542C38.5174 142.046 38.4592 142.512 38.3935 142.94L39.5887 143.148C39.6587 142.692 39.7195 142.202 39.7713 141.677L38.567 141.542ZM38.3932 142.943L37.8592 146.53L39.0553 146.732L39.5893 143.145L38.3932 142.943ZM38.4571 145.986H37.3382V147.275H38.4571V145.986ZM44.6317 146.631L44.0731 146.382L43.7214 147.275H44.6317V146.631ZM48.5224 136.75V136.106H48.1198L47.9639 136.501L48.5224 136.75ZM50.0609 136.75L50.6634 136.686L50.6089 136.106H50.0609V136.75ZM50.9891 146.631V147.275H51.6582L51.5916 146.567L50.9891 146.631ZM49.8702 146.631L49.2669 146.687L49.3153 147.275H49.8702V146.631ZM49.6541 144.005L50.2571 143.949L50.2087 143.361H49.6541V144.005ZM46.8441 144.005V143.361H46.4369L46.2834 143.762L46.8441 144.005ZM45.8396 146.631V147.275H46.2468L46.4003 146.874L45.8396 146.631ZM47.2255 142.976L46.6646 142.733L46.3252 143.621H47.2255V142.976ZM49.5651 142.976V143.621H50.2296L50.1678 142.916L49.5651 142.976ZM49.298 139.931L48.6944 139.981L48.6947 139.986L48.695 139.991L49.298 139.931ZM49.1963 138.483L48.5915 138.513L48.5918 138.52L48.5924 138.528L49.1963 138.483ZM49.1709 137.725H49.7764L48.5921 137.535L49.1709 137.725ZM48.9166 138.483L48.349 138.258L48.3468 138.264L48.3447 138.27L48.9166 138.483ZM48.3953 139.917L47.8355 139.672L47.8343 139.674L48.3953 139.917ZM45.1899 146.88L49.0807 136.999L47.9639 136.501L44.0731 146.382L45.1899 146.88ZM48.5224 137.395H50.0609V136.106H48.5224V137.395ZM49.4585 136.814L50.3867 146.695L51.5916 146.567L50.6634 136.686L49.4585 136.814ZM50.9891 145.986H49.8702V147.275H50.9891V145.986ZM50.4733 146.574L50.2571 143.949L49.0507 144.061L49.2669 146.687L50.4733 146.574ZM49.6541 143.361H46.8441V144.65H49.6541V143.361ZM46.2834 143.762L45.2789 146.388L46.4003 146.874L47.4047 144.248L46.2834 143.762ZM45.8396 145.986H44.6317V147.275H45.8396V145.986ZM47.2255 143.621H49.5651V142.332H47.2255V143.621ZM50.1678 142.916L49.9008 139.871L48.695 139.991L48.962 143.036L50.1678 142.916ZM49.9017 139.881C49.8593 139.304 49.8254 138.823 49.8003 138.438L48.5924 138.528C48.6178 138.918 48.652 139.403 48.6944 139.981L49.9017 139.881ZM49.8012 138.453C49.7839 138.061 49.7764 137.824 49.7764 137.725H48.5654C48.5654 137.86 48.5748 138.128 48.5915 138.513L49.8012 138.453ZM48.5921 137.535C48.5645 137.631 48.4861 137.866 48.349 138.258L49.4839 138.707C49.618 138.324 49.7095 138.053 49.7494 137.914L48.5921 137.535ZM48.3447 138.27C48.2227 138.643 48.0535 139.109 47.8355 139.672L48.955 140.163C49.1779 139.589 49.3562 139.098 49.4882 138.695L48.3447 138.27ZM47.8343 139.674L46.6646 142.733L47.7862 143.219L48.9559 140.16L47.8343 139.674ZM52.7895 146.631L52.1916 146.53L52.0805 147.275H52.7895V146.631ZM54.2644 136.75V136.106H53.7476L53.6665 136.649L54.2644 136.75ZM58.7019 137.116L58.3955 137.672L58.3997 137.674L58.404 137.677L58.7019 137.116ZM59.5283 138.117L58.9656 138.354L58.9674 138.36L58.9695 138.365L59.5283 138.117ZM59.6555 139.66L60.254 139.758L60.2543 139.757L59.6555 139.66ZM59.0706 141.203L58.5829 140.822L58.5814 140.824L59.0706 141.203ZM57.939 142.218L58.2018 142.799L58.206 142.797L58.2099 142.795L57.939 142.218ZM54.5441 142.57V141.926H54.028L53.9465 142.468L54.5441 142.57ZM53.9338 146.631V147.275H54.4503L54.5317 146.733L53.9338 146.631ZM54.6967 141.474L54.0991 141.372L53.9865 142.119H54.6967V141.474ZM57.8118 140.987L58.2114 141.471L58.2121 141.47L57.8118 140.987ZM58.473 139.66L59.0706 139.765L59.0709 139.763L58.473 139.66ZM55.2434 137.847V137.202H54.7276L54.6458 137.744L55.2434 137.847ZM53.3877 146.732L54.8626 136.851L53.6665 136.649L52.1916 146.53L53.3877 146.732ZM54.2644 137.395H57.2524V136.106H54.2644V137.395ZM57.2524 137.395C57.7504 137.395 58.1206 137.5 58.3955 137.672L59.0085 136.56C58.5033 136.244 57.9075 136.106 57.2524 136.106V137.395ZM58.404 137.677C58.6764 137.841 58.8566 138.062 58.9656 138.354L60.0914 137.88C59.878 137.306 59.5075 136.86 59.0001 136.555L58.404 137.677ZM58.9695 138.365C59.086 138.663 59.1296 139.052 59.057 139.564L60.2543 139.757C60.3509 139.077 60.31 138.438 60.0875 137.869L58.9695 138.365ZM59.0573 139.562C58.9861 140.055 58.8257 140.47 58.5829 140.822L59.5586 141.585C59.9261 141.052 60.1556 140.439 60.254 139.758L59.0573 139.562ZM58.5814 140.824C58.3428 141.172 58.041 141.444 57.6683 141.642L58.2099 142.795C58.7527 142.506 59.2053 142.101 59.5598 141.583L58.5814 140.824ZM57.6765 141.638C57.3111 141.825 56.8858 141.926 56.3878 141.926V143.215C57.0429 143.215 57.6517 143.081 58.2018 142.799L57.6765 141.638ZM56.3878 141.926H54.5441V143.215H56.3878V141.926ZM53.9465 142.468L53.3362 146.529L54.5317 146.733L55.142 142.672L53.9465 142.468ZM53.9338 145.986H52.7895V147.275H53.9338V145.986ZM54.6967 142.119H56.5404V140.829H54.6967V142.119ZM56.5404 142.119C57.1746 142.119 57.744 141.908 58.2114 141.471L57.4125 140.502C57.1849 140.715 56.9067 140.829 56.5404 140.829V142.119ZM58.2121 141.47C58.6843 141.028 58.9659 140.446 59.0706 139.765L57.8757 139.556C57.8109 139.976 57.6517 140.278 57.4116 140.503L58.2121 141.47ZM59.0709 139.763C59.1735 139.085 59.0851 138.434 58.684 137.921L57.7537 138.746C57.8612 138.884 57.9423 139.116 57.8754 139.558L59.0709 139.763ZM58.684 137.921C58.2859 137.412 57.7165 137.202 57.0871 137.202V138.491C57.4582 138.491 57.6432 138.605 57.7537 138.746L58.684 137.921ZM57.0871 137.202H55.2434V138.491H57.0871V137.202ZM54.6458 137.744L54.0991 141.372L55.2946 141.576L55.8413 137.949L54.6458 137.744ZM61.6087 142.706L61.0111 142.602L60.897 143.35H61.6087V142.706ZM61.774 141.623V140.978H61.2591L61.1764 141.519L61.774 141.623ZM65.8428 141.623L66.4404 141.726L66.5545 140.978H65.8428V141.623ZM65.6775 142.706V143.35H66.1924L66.2751 142.809L65.6775 142.706ZM62.2063 142.809L62.3716 141.726L61.1764 141.519L61.0111 142.602L62.2063 142.809ZM61.774 142.267H65.8428V140.978H61.774V142.267ZM65.2452 141.519L65.0799 142.602L66.2751 142.809L66.4404 141.726L65.2452 141.519ZM65.6775 142.061H61.6087V143.35H65.6775V142.061ZM69.2709 146.428L68.9664 146.985L68.9691 146.987L68.9718 146.988L69.2709 146.428ZM68.4953 145.453L67.9283 145.68L67.9298 145.684L68.4953 145.453ZM68.3936 143.924L67.7954 143.824L67.7951 143.826L68.3936 143.924ZM69.0548 139.457L68.4575 139.351L68.4569 139.354L68.4566 139.357L69.0548 139.457ZM70.6823 136.953L70.4198 136.372L70.4177 136.373L70.4156 136.374L70.6823 136.953ZM73.5558 136.953L73.2513 137.51L73.254 137.512L73.2567 137.514L73.5558 136.953ZM74.3442 137.928L73.7787 138.158L73.7805 138.164L73.7826 138.169L74.3442 137.928ZM74.4459 139.444L73.8489 139.336L73.8483 139.34L73.8477 139.344L74.4459 139.444ZM73.7847 143.924L73.1865 143.824L73.1862 143.826L73.7847 143.924ZM73.2253 145.453L72.7312 145.081L72.7297 145.083L73.2253 145.453ZM72.1445 146.428L71.882 145.847L71.8799 145.848L71.8778 145.849L72.1445 146.428ZM72.0428 145.223L72.4457 145.704L72.449 145.701L72.4524 145.698L72.0428 145.223ZM72.6404 143.924L73.238 144.026L73.2383 144.024L72.6404 143.924ZM73.3015 139.457L72.7036 139.355L72.7033 139.357L73.3015 139.457ZM73.0854 138.171L72.6043 138.563L72.6104 138.571L72.6168 138.579L73.0854 138.171ZM70.7967 138.171L71.1997 138.653L71.203 138.649L71.2063 138.646L70.7967 138.171ZM70.1991 139.457L69.6012 139.355L69.6009 139.357L70.1991 139.457ZM69.538 143.924L70.1355 144.026L70.1358 144.024L69.538 143.924ZM69.7414 145.223L69.2603 145.615L69.2664 145.623L69.2728 145.631L69.7414 145.223ZM70.6569 146.122C70.1816 146.122 69.8295 146.024 69.57 145.867L68.9718 146.988C69.4583 147.282 70.0302 147.411 70.6569 147.411V146.122ZM69.5752 145.871C69.3318 145.72 69.1644 145.511 69.0605 145.223L67.9298 145.684C68.1311 146.244 68.4811 146.685 68.9664 146.985L69.5752 145.871ZM69.062 145.227C68.9549 144.923 68.9186 144.529 68.9918 144.022L67.7951 143.826C67.6988 144.491 67.7303 145.118 67.9283 145.68L69.062 145.227ZM68.9915 144.024L69.6527 139.557L68.4566 139.357L67.7954 143.824L68.9915 144.024ZM69.6518 139.563C69.7326 139.047 69.89 138.631 70.1095 138.298L69.1187 137.557C68.779 138.072 68.5631 138.676 68.4575 139.351L69.6518 139.563ZM70.1095 138.298C70.3314 137.962 70.609 137.709 70.9487 137.532L70.4156 136.374C69.8906 136.648 69.4562 137.045 69.1187 137.557L70.1095 138.298ZM70.9445 137.534C71.2935 137.355 71.698 137.259 72.1699 137.259V135.97C71.5396 135.97 70.9523 136.1 70.4198 136.372L70.9445 137.534ZM72.1699 137.259C72.6561 137.259 73.0049 137.358 73.2513 137.51L73.8601 136.396C73.3778 136.098 72.8023 135.97 72.1699 135.97V137.259ZM73.2567 137.514C73.5083 137.666 73.6766 137.875 73.7787 138.158L74.9094 137.697C74.7065 137.133 74.349 136.692 73.8549 136.393L73.2567 137.514ZM73.7826 138.169C73.891 138.454 73.9288 138.833 73.8489 139.336L75.0429 139.551C75.1491 138.882 75.1192 138.249 74.9054 137.686L73.7826 138.169ZM73.8477 139.344L73.1865 143.824L74.3826 144.024L75.0438 139.544L73.8477 139.344ZM73.1862 143.826C73.1138 144.325 72.9588 144.739 72.7312 145.081L73.7193 145.826C74.0678 145.302 74.2857 144.695 74.3829 144.022L73.1862 143.826ZM72.7297 145.083C72.5096 145.416 72.2299 145.669 71.882 145.847L72.4067 147.009C72.9404 146.736 73.3812 146.339 73.7205 145.824L72.7297 145.083ZM71.8778 145.849C71.5408 146.025 71.1388 146.122 70.6569 146.122V147.411C71.2935 147.411 71.8832 147.282 72.4109 147.007L71.8778 145.849ZM70.8221 146.314C71.4409 146.314 72.0007 146.127 72.4457 145.704L71.6395 144.742C71.4573 144.915 71.2033 145.025 70.8221 145.025V146.314ZM72.4524 145.698C72.8889 145.271 73.1372 144.692 73.238 144.026L72.0425 143.821C71.9738 144.274 71.8236 144.562 71.6329 144.749L72.4524 145.698ZM73.2383 144.024L73.8994 139.557L72.7033 139.357L72.0422 143.824L73.2383 144.024ZM73.8991 139.56C73.9981 138.906 73.9361 138.26 73.554 137.763L72.6168 138.579C72.6924 138.678 72.7742 138.89 72.7036 139.355L73.8991 139.56ZM73.5661 137.78C73.192 137.259 72.6171 137.067 72.0046 137.067V138.356C72.3921 138.356 72.538 138.47 72.6043 138.563L73.5661 137.78ZM72.0046 137.067C71.3861 137.067 70.8294 137.264 70.3868 137.697L71.2063 138.646C71.391 138.465 71.6395 138.356 72.0046 138.356V137.067ZM70.3935 137.69C69.9509 138.11 69.702 138.689 69.6012 139.355L70.7967 139.56C70.8654 139.107 71.015 138.828 71.1997 138.653L70.3935 137.69ZM69.6009 139.357L68.9397 143.824L70.1358 144.024L70.797 139.557L69.6009 139.357ZM68.94 143.821C68.8414 144.473 68.8995 145.113 69.2603 145.615L70.2221 144.832C70.1422 144.72 70.0647 144.493 70.1355 144.026L68.94 143.821ZM69.2728 145.631C69.6542 146.128 70.2182 146.314 70.8221 146.314V145.025C70.4425 145.025 70.286 144.914 70.21 144.815L69.2728 145.631ZM76.8566 142.706L76.259 142.602L76.1448 143.35H76.8566V142.706ZM77.0218 141.623V140.978H76.5069L76.4242 141.519L77.0218 141.623ZM81.0906 141.623L81.6882 141.726L81.8023 140.978H81.0906V141.623ZM80.9253 142.706V143.35H81.4403L81.5229 142.809L80.9253 142.706ZM77.4541 142.809L77.6194 141.726L76.4242 141.519L76.259 142.602L77.4541 142.809ZM77.0218 142.267H81.0906V140.978H77.0218V142.267ZM80.493 141.519L80.3277 142.602L81.5229 142.809L81.6882 141.726L80.493 141.519ZM80.9253 142.061H76.8566V143.35H80.9253V142.061ZM83.9212 146.049L83.4889 146.5L83.491 146.503L83.4931 146.505L83.9212 146.049ZM83.4126 144.059V143.415H82.8858L82.8129 143.97L83.4126 144.059ZM84.5569 144.059L85.1545 144.163L85.2695 143.415H84.5569V144.059ZM84.8493 145.237L84.4213 145.692L84.4243 145.696L84.4279 145.7L84.8493 145.237ZM87.4305 145.25L87.0654 144.736L87.0623 144.739L87.0596 144.741L87.4305 145.25ZM88.0662 144.086L88.6638 144.19L88.6644 144.186L88.665 144.181L88.0662 144.086ZM87.9136 143.003L87.382 143.312L87.3854 143.319L87.389 143.325L87.9136 143.003ZM87.1762 142.381L86.9864 142.993L86.9891 142.994L87.1762 142.381ZM85.981 141.961L86.1705 141.349L86.1699 141.349L85.981 141.961ZM84.3789 139.241L83.7819 139.133L83.7804 139.142L83.7792 139.152L84.3789 139.241ZM84.9256 137.86L85.4058 138.253L85.4079 138.25L85.41 138.247L84.9256 137.86ZM86.0064 136.94L86.2601 137.525L86.2643 137.523L86.2686 137.521L86.0064 136.94ZM89.3377 137.332L88.8893 137.765L88.8933 137.77L88.8972 137.774L89.3377 137.332ZM89.8081 139.254V139.899H90.3316L90.4072 139.347L89.8081 139.254ZM88.6638 139.254L88.0665 139.148L87.949 139.899H88.6638V139.254ZM88.4222 138.117L87.9657 138.541L87.9724 138.549L87.9796 138.557L88.4222 138.117ZM85.5487 139.132L84.9508 139.031L84.9505 139.033L84.9502 139.035L85.5487 139.132ZM85.6885 140.215L85.1533 140.517L85.1566 140.523L85.1599 140.53L85.6885 140.215ZM86.4514 140.865L86.2559 141.475L86.258 141.476L86.4514 140.865ZM87.6593 141.298L87.4659 141.909L87.4677 141.909L87.6593 141.298ZM89.2105 144.059L88.6117 143.963V143.963L89.2105 144.059ZM88.6384 145.48L88.1655 145.078L88.1631 145.081L88.1604 145.085L88.6384 145.48ZM87.494 146.428L87.2434 145.841L87.2397 145.843L87.494 146.428ZM85.9555 146.122C85.14 146.122 84.6438 145.907 84.3492 145.593L83.4931 146.505C84.0968 147.147 84.9571 147.411 85.9555 147.411V146.122ZM84.3532 145.597C84.0671 145.287 83.9212 144.842 84.0123 144.148L82.8129 143.97C82.6836 144.954 82.8764 145.836 83.4889 146.5L84.3532 145.597ZM83.4126 144.704H84.5569V143.415H83.4126V144.704ZM83.9593 143.955C83.8597 144.603 83.9799 145.223 84.4213 145.692L85.2774 144.781C85.1763 144.673 85.1012 144.508 85.1545 144.163L83.9593 143.955ZM84.4279 145.7C84.8633 146.149 85.4672 146.314 86.1208 146.314V145.025C85.6386 145.025 85.3949 144.902 85.2707 144.774L84.4279 145.7ZM86.1208 146.314C86.7557 146.314 87.3324 146.147 87.8013 145.76L87.0596 144.741C86.8504 144.914 86.554 145.025 86.1208 145.025V146.314ZM87.7956 145.764C88.2781 145.376 88.5645 144.835 88.6638 144.19L87.4686 143.982C87.415 144.33 87.2779 144.565 87.0654 144.736L87.7956 145.764ZM88.665 144.181C88.7395 143.65 88.6829 143.134 88.4383 142.682L87.389 143.325C87.4662 143.468 87.5116 143.674 87.4674 143.991L88.665 144.181ZM88.4452 142.695C88.2094 142.235 87.8304 141.929 87.3633 141.768L86.9891 142.994C87.1998 143.067 87.3124 143.177 87.382 143.312L88.4452 142.695ZM87.3657 141.769L86.1705 141.349L85.7912 142.573L86.9864 142.993L87.3657 141.769ZM86.1699 141.349C85.6861 141.18 85.377 140.919 85.1854 140.592L84.1573 141.273C84.5251 141.902 85.0891 142.328 85.7918 142.574L86.1699 141.349ZM85.1854 140.592C84.9925 140.262 84.9099 139.856 84.9786 139.329L83.7792 139.152C83.6784 139.925 83.7907 140.646 84.1573 141.273L85.1854 140.592ZM84.9759 139.348C85.0458 138.909 85.1923 138.549 85.4058 138.253L84.4452 137.468C84.0995 137.947 83.8815 138.508 83.7819 139.133L84.9759 139.348ZM85.41 138.247C85.6268 137.939 85.9065 137.699 86.2601 137.525L85.7527 136.354C85.2244 136.614 84.7837 136.987 84.4413 137.473L85.41 138.247ZM86.2686 137.521C86.6179 137.342 87.0224 137.246 87.494 137.246V135.957C86.8637 135.957 86.2764 136.086 85.7439 136.359L86.2686 137.521ZM87.494 137.246C88.194 137.246 88.622 137.452 88.8893 137.765L89.786 136.899C89.2226 136.238 88.4216 135.957 87.494 135.957V137.246ZM88.8972 137.774C89.1645 138.076 89.2992 138.502 89.209 139.161L90.4072 139.347C90.5371 138.4 90.3585 137.545 89.7782 136.89L88.8972 137.774ZM89.8081 138.61H88.6638V139.899H89.8081V138.61ZM89.2611 139.36C89.3571 138.747 89.2708 138.14 88.8648 137.677L87.9796 138.557C88.0483 138.635 88.1231 138.787 88.0665 139.148L89.2611 139.36ZM88.8787 137.694C88.4919 137.221 87.9254 137.053 87.3287 137.053V138.342C87.732 138.342 87.8949 138.454 87.9657 138.541L88.8787 137.694ZM87.3287 137.053C86.7387 137.053 86.198 137.206 85.7554 137.563L86.4862 138.591C86.6706 138.442 86.9355 138.342 87.3287 138.342V137.053ZM85.7554 137.563C85.3053 137.925 85.0407 138.432 84.9508 139.031L86.1466 139.234C86.192 138.931 86.3088 138.733 86.4862 138.591L85.7554 137.563ZM84.9502 139.035C84.8754 139.558 84.9281 140.064 85.1533 140.517L86.2235 139.914C86.1435 139.753 86.1033 139.537 86.1472 139.229L84.9502 139.035ZM85.1599 140.53C85.4021 140.991 85.7839 141.303 86.2559 141.475L86.647 140.255C86.4239 140.174 86.2967 140.053 86.2171 139.901L85.1599 140.53ZM86.258 141.476L87.4659 141.909L87.8525 140.687L86.6446 140.254L86.258 141.476ZM87.4677 141.909C87.9378 142.076 88.2372 142.336 88.4225 142.669L89.4642 142.012C89.1073 141.37 88.5506 140.935 87.8507 140.687L87.4677 141.909ZM88.4225 142.669C88.6105 143.007 88.688 143.424 88.6117 143.963L89.809 144.155C89.9192 143.377 89.8187 142.648 89.4642 142.012L88.4225 142.669ZM88.6117 143.963C88.5503 144.399 88.4004 144.765 88.1655 145.078L89.1112 145.883C89.4866 145.383 89.7179 144.802 89.8093 144.155L88.6117 143.963ZM88.1604 145.085C87.9275 145.403 87.626 145.656 87.2434 145.841L87.7444 147.015C88.2945 146.749 88.7558 146.37 89.1164 145.876L88.1604 145.085ZM87.2397 145.843C86.871 146.025 86.4466 146.122 85.9555 146.122V147.411C86.6001 147.411 87.2013 147.282 87.7483 147.013L87.2397 145.843ZM90.9219 146.631L90.324 146.53L90.2126 147.275H90.9219V146.631ZM92.3968 136.75V136.106H91.88L91.7989 136.649L92.3968 136.75ZM93.5411 136.75L94.139 136.852L94.2514 136.106H93.5411V136.75ZM92.9054 140.973L92.3078 140.871L92.1952 141.618H92.9054V140.973ZM95.8807 140.973V141.618H96.3968L96.4786 141.075L95.8807 140.973ZM96.5164 136.75V136.106H96.0003L95.9188 136.648L96.5164 136.75ZM97.6608 136.75L98.259 136.851L98.3701 136.106H97.6608V136.75ZM96.1858 146.631V147.275H96.7029L96.784 146.732L96.1858 146.631ZM95.0415 146.631L94.4436 146.53L94.3331 147.275H95.0415V146.631ZM95.7154 142.083L96.3136 142.184L96.4241 141.439H95.7154V142.083ZM92.7401 142.083V141.439H92.2227L92.1422 141.983L92.7401 142.083ZM92.0662 146.631V147.275H92.5839L92.6644 146.731L92.0662 146.631ZM91.5201 146.732L92.995 136.851L91.7989 136.649L90.324 146.53L91.5201 146.732ZM92.3968 137.395H93.5411V136.106H92.3968V137.395ZM92.9436 136.648L92.3078 140.871L93.5033 141.075L94.139 136.852L92.9436 136.648ZM92.9054 141.618H95.8807V140.329H92.9054V141.618ZM96.4786 141.075L97.1143 136.852L95.9188 136.648L95.2831 140.871L96.4786 141.075ZM96.5164 137.395H97.6608V136.106H96.5164V137.395ZM97.0629 136.649L95.5879 146.53L96.784 146.732L98.259 136.851L97.0629 136.649ZM96.1858 145.986H95.0415V147.275H96.1858V145.986ZM95.6397 146.731L96.3136 142.184L95.1175 141.983L94.4436 146.53L95.6397 146.731ZM95.7154 141.439H92.7401V142.728H95.7154V141.439ZM92.1422 141.983L91.4683 146.53L92.6644 146.731L93.3383 142.184L92.1422 141.983ZM92.0662 145.986H90.9219V147.275H92.0662V145.986ZM97.9992 146.631L97.4407 146.382L97.0889 147.275H97.9992V146.631ZM101.89 136.75V136.106H101.487L101.331 136.501L101.89 136.75ZM103.428 136.75L104.031 136.686L103.976 136.106H103.428V136.75ZM104.357 146.631V147.275H105.026L104.959 146.567L104.357 146.631ZM103.238 146.631L102.635 146.687L102.683 147.275H103.238V146.631ZM103.022 144.005L103.625 143.949L103.576 143.361H103.022V144.005ZM100.212 144.005V143.361H99.8044L99.6509 143.762L100.212 144.005ZM99.2071 146.631V147.275H99.6143L99.7678 146.874L99.2071 146.631ZM100.593 142.976L100.032 142.733L99.6927 143.621H100.593V142.976ZM102.933 142.976V143.621H103.597L103.535 142.916L102.933 142.976ZM102.666 139.931L102.062 139.981L102.062 139.986L102.063 139.991L102.666 139.931ZM102.564 138.483L101.959 138.513L101.959 138.52L101.96 138.528L102.564 138.483ZM102.538 137.725H103.144L101.96 137.535L102.538 137.725ZM102.284 138.483L101.717 138.258L101.714 138.264L101.713 138.27L102.284 138.483ZM101.763 139.917L101.203 139.672L101.202 139.674L101.763 139.917ZM98.5575 146.88L102.448 136.999L101.331 136.501L97.4407 146.382L98.5575 146.88ZM101.89 137.395H103.428V136.106H101.89V137.395ZM102.826 136.814L103.754 146.695L104.959 146.567L104.031 136.686L102.826 136.814ZM104.357 145.986H103.238V147.275H104.357V145.986ZM103.841 146.574L103.625 143.949L102.419 144.061L102.635 146.687L103.841 146.574ZM103.022 143.361H100.212V144.65H103.022V143.361ZM99.6509 143.762L98.6465 146.388L99.7678 146.874L100.772 144.248L99.6509 143.762ZM99.2071 145.986H97.9992V147.275H99.2071V145.986ZM100.593 143.621H102.933V142.332H100.593V143.621ZM103.535 142.916L103.268 139.871L102.063 139.991L102.33 143.036L103.535 142.916ZM103.269 139.881C103.227 139.304 103.193 138.823 103.168 138.438L101.96 138.528C101.985 138.918 102.02 139.403 102.062 139.981L103.269 139.881ZM103.169 138.453C103.151 138.061 103.144 137.824 103.144 137.725H101.933C101.933 137.86 101.942 138.128 101.959 138.513L103.169 138.453ZM101.96 137.535C101.932 137.631 101.854 137.866 101.717 138.258L102.851 138.707C102.986 138.324 103.077 138.053 103.117 137.914L101.96 137.535ZM101.713 138.27C101.59 138.643 101.421 139.109 101.203 139.672L102.323 140.163C102.545 139.589 102.724 139.098 102.856 138.695L101.713 138.27ZM101.202 139.674L100.032 142.733L101.154 143.219L102.323 140.16L101.202 139.674ZM106.157 146.631L105.559 146.53L105.448 147.275H106.157V146.631ZM107.632 136.75V136.106H107.115L107.034 136.649L107.632 136.75ZM111.892 137.116L111.575 137.665L111.582 137.669L111.589 137.674L111.892 137.116ZM112.705 138.104L112.144 138.345L112.146 138.351L112.148 138.356L112.705 138.104ZM112.833 139.593L112.234 139.491L112.234 139.495L112.233 139.498L112.833 139.593ZM112.375 140.906L111.867 140.554L111.865 140.558L111.862 140.563L112.375 140.906ZM111.485 141.866L111.154 141.326L111.152 141.328L111.149 141.33L111.485 141.866ZM110.277 142.381L109.689 142.228L109.466 143.2L110.389 143.014L110.277 142.381ZM110.417 141.772L110.992 141.57L110.331 139.43L109.829 141.619L110.417 141.772ZM111.917 146.631V147.275H112.753L112.492 146.429L111.917 146.631ZM110.62 146.631L110.041 146.82L110.172 147.275H110.62V146.631ZM109.412 142.435L109.991 142.246L109.86 141.79H109.412V142.435ZM107.925 142.435V141.79H107.407L107.326 142.334L107.925 142.435ZM107.302 146.631V147.275H107.819L107.9 146.731L107.302 146.631ZM108.09 141.339L107.492 141.237L107.381 141.983H108.09V141.339ZM111.027 140.865L111.431 141.344L111.432 141.344L111.027 140.865ZM111.65 139.593L111.053 139.485L111.052 139.489L111.052 139.494L111.65 139.593ZM111.409 138.32L110.936 138.723L110.939 138.727L110.942 138.731L111.409 138.32ZM108.611 137.847V137.202H108.094L108.013 137.745L108.611 137.847ZM106.755 146.732L108.23 136.851L107.034 136.649L105.559 146.53L106.755 146.732ZM107.632 137.395H110.506V136.106H107.632V137.395ZM110.506 137.395C110.974 137.395 111.319 137.498 111.575 137.665L112.208 136.566C111.718 136.246 111.14 136.106 110.506 136.106V137.395ZM111.589 137.674C111.856 137.838 112.035 138.058 112.144 138.345L113.267 137.862C113.054 137.301 112.69 136.862 112.194 136.557L111.589 137.674ZM112.148 138.356C112.263 138.644 112.306 139.013 112.234 139.491L113.43 139.694C113.529 139.035 113.487 138.411 113.262 137.851L112.148 138.356ZM112.233 139.498C112.178 139.9 112.054 140.248 111.867 140.554L112.882 141.257C113.17 140.787 113.352 140.26 113.431 139.687L112.233 139.498ZM111.862 140.563C111.68 140.871 111.446 141.124 111.154 141.326L111.815 142.407C112.252 142.104 112.612 141.716 112.887 141.248L111.862 140.563ZM111.149 141.33C110.865 141.532 110.539 141.672 110.165 141.748L110.389 143.014C110.913 142.909 111.392 142.707 111.821 142.403L111.149 141.33ZM110.865 142.534L111.005 141.925L109.829 141.619L109.689 142.228L110.865 142.534ZM109.842 141.973L111.342 146.832L112.492 146.429L110.992 141.57L109.842 141.973ZM111.917 145.986H110.62V147.275H111.917V145.986ZM111.199 146.442L109.991 142.246L108.833 142.624L110.041 146.82L111.199 146.442ZM109.412 141.79H107.925V143.08H109.412V141.79ZM107.326 142.334L106.703 146.53L107.9 146.731L108.523 142.536L107.326 142.334ZM107.302 145.986H106.157V147.275H107.302V145.986ZM108.09 141.983H109.819V140.694H108.09V141.983ZM109.819 141.983C110.432 141.983 110.982 141.774 111.431 141.344L110.623 140.385C110.411 140.587 110.156 140.694 109.819 140.694V141.983ZM111.432 141.344C111.884 140.911 112.153 140.347 112.248 139.692L111.052 139.494C110.995 139.885 110.848 140.169 110.622 140.386L111.432 141.344ZM112.247 139.7C112.351 139.045 112.266 138.412 111.875 137.909L110.942 138.731C111.043 138.86 111.118 139.075 111.053 139.485L112.247 139.7ZM111.881 137.918C111.501 137.412 110.949 137.202 110.34 137.202V138.491C110.681 138.491 110.841 138.597 110.936 138.723L111.881 137.918ZM110.34 137.202H108.611V138.491H110.34V137.202ZM108.013 137.745L107.492 141.237L108.688 141.44L109.209 137.948L108.013 137.745ZM113.883 146.631L113.285 146.53L113.173 147.275H113.883V146.631ZM115.358 136.75V136.106H114.841L114.76 136.649L115.358 136.75ZM120.698 136.75L121.296 136.851L121.407 136.106H120.698V136.75ZM120.533 137.86V138.505H121.05L121.131 137.961L120.533 137.86ZM116.324 137.86V137.216H115.808L115.726 137.759L116.324 137.86ZM115.866 140.919L115.268 140.818L115.157 141.564H115.866V140.919ZM119.63 140.919L120.228 141.021L120.34 140.275H119.63V140.919ZM119.465 142.015V142.66H119.981L120.062 142.118L119.465 142.015ZM115.701 142.015V141.371H115.184L115.103 141.915L115.701 142.015ZM115.18 145.521L114.582 145.42L114.471 146.166H115.18V145.521ZM119.388 145.521L119.987 145.622L120.097 144.876H119.388V145.521ZM119.223 146.631V147.275H119.74L119.821 146.732L119.223 146.631ZM114.481 146.732L115.956 136.851L114.76 136.649L113.285 146.53L114.481 146.732ZM115.358 137.395H120.698V136.106H115.358V137.395ZM120.1 136.649L119.935 137.759L121.131 137.961L121.296 136.851L120.1 136.649ZM120.533 137.216H116.324V138.505H120.533V137.216ZM115.726 137.759L115.268 140.818L116.464 141.021L116.922 137.962L115.726 137.759ZM115.866 141.564H119.63V140.275H115.866V141.564ZM119.032 140.817L118.867 141.913L120.062 142.118L120.228 141.021L119.032 140.817ZM119.465 141.371H115.701V142.66H119.465V141.371ZM115.103 141.915L114.582 145.42L115.778 145.622L116.299 142.116L115.103 141.915ZM115.18 146.166H119.388V144.876H115.18V146.166ZM118.79 145.42L118.625 146.53L119.821 146.732L119.987 145.622L118.79 145.42ZM119.223 145.986H113.883V147.275H119.223V145.986Z" fill="#1E65F1"/>
</g>
</g>
</g>
<defs>
<filter id="filter0_d_199_595" x="19.8516" y="21.6489" width="111.359" height="84.9654" filterUnits="userSpaceOnUse" color-interpolation-filters="sRGB">
<feFlood flood-opacity="0" result="BackgroundImageFix"/>
<feColorMatrix in="SourceAlpha" type="matrix" values="0 0 0 0 0 0 0 0 0 0 0 0 0 0 0 0 0 0 127 0" result="hardAlpha"/>
<feOffset dy="4"/>
<feGaussianBlur stdDeviation="2"/>
<feComposite in2="hardAlpha" operator="out"/>
<feColorMatrix type="matrix" values="0 0 0 0 0 0 0 0 0 0 0 0 0 0 0 0 0 0 0.25 0"/>
<feBlend mode="normal" in2="BackgroundImageFix" result="effect1_dropShadow_199_595"/>
<feBlend mode="normal" in="SourceGraphic" in2="effect1_dropShadow_199_595" result="shape"/>
</filter>
<filter id="filter1_d_199_595" x="79.3203" y="100.892" width="28.418" height="26.9604" filterUnits="userSpaceOnUse" color-interpolation-filters="sRGB">
<feFlood flood-opacity="0" result="BackgroundImageFix"/>
<feColorMatrix in="SourceAlpha" type="matrix" values="0 0 0 0 0 0 0 0 0 0 0 0 0 0 0 0 0 0 127 0" result="hardAlpha"/>
<feOffset dy="4"/>
<feGaussianBlur stdDeviation="2"/>
<feComposite in2="hardAlpha" operator="out"/>
<feColorMatrix type="matrix" values="0 0 0 0 0.509804 0 0 0 0 0.666667 0 0 0 0 1 0 0 0 1 0"/>
<feBlend mode="normal" in2="BackgroundImageFix" result="effect1_dropShadow_199_595"/>
<feBlend mode="normal" in="SourceGraphic" in2="effect1_dropShadow_199_595" result="shape"/>
</filter>
<filter id="filter2_d_199_595" x="16.6289" y="90.9568" width="182.777" height="109.454" filterUnits="userSpaceOnUse" color-interpolation-filters="sRGB">
<feFlood flood-opacity="0" result="BackgroundImageFix"/>
<feColorMatrix in="SourceAlpha" type="matrix" values="0 0 0 0 0 0 0 0 0 0 0 0 0 0 0 0 0 0 127 0" result="hardAlpha"/>
<feOffset dx="29" dy="4"/>
<feGaussianBlur stdDeviation="24.5"/>
<feComposite in2="hardAlpha" operator="out"/>
<feColorMatrix type="matrix" values="0 0 0 0 0.005 0 0 0 0 0.0375 0 0 0 0 0.00778572 0 0 0 1 0"/>
<feBlend mode="normal" in2="BackgroundImageFix" result="effect1_dropShadow_199_595"/>
<feBlend mode="normal" in="SourceGraphic" in2="effect1_dropShadow_199_595" result="shape"/>
</filter>
<clipPath id="clip0_199_595">
<rect width="155" height="165" rx="77.5" fill="white"/>
</clipPath>
</defs>
</svg>
