<svg width="155" height="165" viewBox="0 0 155 165" fill="none" xmlns="http://www.w3.org/2000/svg">
<g clip-path="url(#clip0_199_595)">
<path d="M155 0H0V165H155V0Z" fill="#222537"/>
<path d="M77.4404 24.8145C79.2898 25.7977 80.9842 26.8462 82.6304 28.0088C83.0406 28.2964 83.4512 28.5836 83.862 28.8707C84.0763 29.0205 84.2903 29.1704 84.5113 29.3247C85.2591 29.8384 86.0214 30.3385 86.7852 30.8389C88.6915 32.1016 90.5037 33.428 92.3101 34.7673C92.8644 35.1779 93.4202 35.5871 93.976 35.9961C95.8493 37.3786 97.6633 38.7827 99.3816 40.2719C99.8588 40.657 100.337 41.0415 100.816 41.425C102.519 42.8204 104.079 44.287 105.629 45.7743C106.145 46.2674 106.668 46.7569 107.19 47.2461C109.994 49.8864 112.503 52.6353 114.91 55.4803C115.056 55.6508 115.202 55.8216 115.353 55.9972C117.291 58.2663 118.95 60.6346 120.55 63.0406C120.769 63.3697 120.989 63.6981 121.21 64.0261C121.521 64.4889 121.825 64.9533 122.129 65.419C122.307 65.6897 122.485 65.9604 122.669 66.2391C123.011 66.9488 123.011 66.9487 122.964 67.5227C122.673 67.9462 122.673 67.9462 121.611 68.2723C121.137 68.3706 120.661 68.464 120.184 68.5536C119.798 68.6319 119.798 68.6319 119.405 68.7115C118.583 68.8769 117.759 69.0354 116.935 69.1927C116.423 69.291 115.912 69.3893 115.4 69.4876C114.62 69.6377 113.84 69.7876 113.059 69.9365C109.593 70.6058 106.178 71.3996 102.757 72.1843C102.264 72.2964 101.771 72.4086 101.278 72.5204C98.8864 73.065 96.5048 73.6309 94.1286 74.21C93.8792 74.2703 93.63 74.3306 93.3733 74.3928C92.2423 74.6706 91.1536 74.967 90.0565 75.3144C88.9627 75.6606 87.8853 75.9258 86.7443 76.1736C85.0729 76.5371 83.4545 76.9609 81.8288 77.4201C81.3865 77.5419 80.9445 77.6638 80.5022 77.7853C77.5157 78.6077 74.545 79.4485 71.607 80.3621C71.3484 80.442 71.0899 80.5219 70.8235 80.6041C70.3055 80.7646 69.7878 80.9261 69.2711 81.0885C67.4271 81.6586 67.4271 81.6586 66.301 81.6586C66.2961 81.4436 66.291 81.2287 66.2861 81.0073C66.2652 80.2003 66.2401 79.393 66.2123 78.5861C66.2014 78.2387 66.1917 77.8913 66.1841 77.5439C66.2225 74.6322 66.2225 74.6322 64.9508 71.9352C64.6562 71.8217 64.3616 71.7083 64.058 71.5913C63.263 71.1872 63.263 71.1872 63.1068 70.6361C63.0444 69.9088 63.0278 69.1891 63.0308 68.4602C63.0254 67.9645 63.0169 67.4689 63.0057 66.9732C63.006 66.7535 63.006 66.5337 63.0063 66.3071C62.9179 65.6474 62.7375 65.2594 62.2504 64.7048C61.2077 64.1918 60.9683 64.1421 59.7861 64.1299C59.4943 64.126 59.2024 64.1218 58.9015 64.118C58.5873 64.1164 58.2727 64.1151 57.9491 64.1138C57.6249 64.1115 57.3007 64.1093 56.9664 64.107C56.2804 64.1035 55.5941 64.1012 54.9081 64.1002C53.8598 64.0973 52.8117 64.0851 51.7633 64.0725C51.0967 64.07 50.4301 64.0683 49.7632 64.0671C49.2936 64.0596 49.2936 64.0596 48.8147 64.0522C47.265 64.0603 46.6044 64.0787 45.3511 64.8073C44.2243 65.9198 44.3025 66.8099 44.2903 68.1595C44.287 68.388 44.2837 68.6168 44.2801 68.8524C44.2695 69.6103 44.2613 70.3686 44.2528 71.1269C44.2458 71.6516 44.2389 72.1762 44.2316 72.7009C44.2128 74.0837 44.1962 75.4669 44.1799 76.8497C44.1629 78.2599 44.1441 79.6705 44.1257 81.0807C44.0893 83.8496 44.0551 86.6186 44.0221 89.3871C43.4778 89.5876 43.4778 89.5876 42.9223 89.7922C42.4373 89.9711 41.952 90.1503 41.467 90.3291C41.2288 90.4168 40.9908 90.5044 40.7453 90.5947C38.5339 91.4106 36.3393 92.2495 34.1484 93.0958C33.4225 93.3755 32.6962 93.6555 31.9703 93.9353C31.6582 94.0558 31.346 94.1763 31.0245 94.3004C30.2968 94.5788 29.5662 94.8524 28.8319 95.1215C23.9104 85.228 28.0404 73.4778 33.7128 64.3133C38.3631 56.9727 44.3706 50.2009 51.4482 44.0118C51.6199 43.8607 51.7912 43.7099 51.9677 43.5545C52.4748 43.1082 52.9843 42.6638 53.4947 42.2197C53.6373 42.0956 53.7796 41.9719 53.9261 41.8439C57.218 39.0151 60.7473 36.3551 64.322 33.7228C65.0401 33.194 65.7563 32.6636 66.4723 32.1332C66.9373 31.79 67.4023 31.4469 67.8673 31.1038C68.0771 30.9485 68.2866 30.7932 68.5027 30.6331C70.697 29.021 73.0498 27.5487 75.4151 26.0766C75.6122 25.9537 75.8092 25.8307 76.0124 25.7041C76.4883 25.4074 76.9642 25.1109 77.4404 24.8145Z" fill="#010101"/>
<g filter="url(#filter0_d_199_595)">
<path d="M77.4404 24.8145C79.2898 25.7977 80.9842 26.8462 82.6304 28.0088C83.0406 28.2964 83.4512 28.5836 83.862 28.8707C84.0763 29.0205 84.2903 29.1704 84.5113 29.3247C85.2591 29.8384 86.0214 30.3385 86.7852 30.8389C88.6915 32.1016 90.504 33.428 92.3101 34.7673C92.8644 35.1779 93.4202 35.5871 93.976 35.9961C95.8493 37.3786 97.6633 38.7827 99.3816 40.2719C99.8588 40.657 100.337 41.0415 100.816 41.425C102.519 42.8204 104.079 44.287 105.629 45.7743C106.145 46.2674 106.668 46.7569 107.19 47.2461C109.994 49.8864 112.503 52.6353 114.91 55.4803C115.056 55.6508 115.202 55.8216 115.353 55.9972C117.291 58.2663 118.95 60.6346 120.55 63.0406C120.769 63.3697 120.989 63.6981 121.21 64.0261C121.521 64.4889 121.825 64.9533 122.129 65.419C122.307 65.6897 122.485 65.9604 122.669 66.2391C123.011 66.9488 123.011 66.9487 122.964 67.5227C122.673 67.9462 122.673 67.9462 121.611 68.2723C121.137 68.3706 120.661 68.464 120.184 68.5536C119.798 68.6319 119.798 68.6319 119.405 68.7115C118.583 68.8769 117.759 69.0354 116.935 69.1927C116.423 69.291 115.912 69.3893 115.4 69.4876C114.62 69.6377 113.84 69.7876 113.059 69.9365C109.593 70.6058 106.178 71.3996 102.757 72.1843C102.264 72.2964 101.771 72.4086 101.278 72.5204C98.8864 73.065 96.5048 73.6309 94.1286 74.21C93.8792 74.2703 93.63 74.3306 93.3733 74.3928C92.2423 74.6706 91.1536 74.967 90.0565 75.3144C88.9627 75.6606 87.8853 75.9258 86.7443 76.1736C85.0729 76.5371 83.4545 76.9609 81.8288 77.4201C81.3865 77.5419 80.9445 77.6638 80.5022 77.7853C77.5157 78.6077 74.545 79.4485 71.607 80.3621C71.3484 80.442 71.0899 80.5219 70.8235 80.6041C70.3055 80.7646 69.7878 80.9261 69.2711 81.0885C67.4271 81.6582 67.4271 81.6582 66.301 81.6582C66.2961 81.4436 66.291 81.2287 66.2861 81.0073C66.2652 80.2003 66.2401 79.393 66.2123 78.5861C66.2014 78.2387 66.1917 77.8913 66.1841 77.5439C66.2225 74.6322 66.2225 74.6322 64.9508 71.9352C64.6562 71.8217 64.3616 71.7083 64.058 71.5913C63.263 71.1872 63.263 71.1872 63.1068 70.6361C63.0444 69.9088 63.0278 69.1891 63.0308 68.4602C63.0254 67.9645 63.0169 67.4689 63.0057 66.9732C63.006 66.7535 63.006 66.5337 63.0063 66.3071C62.9179 65.6474 62.7375 65.2594 62.2504 64.7048C61.2077 64.1918 60.9683 64.1421 59.7861 64.1299C59.4943 64.126 59.2024 64.1218 58.9015 64.118C58.5873 64.1164 58.2727 64.1151 57.9491 64.1138C57.6249 64.1115 57.3007 64.1093 56.9664 64.107C56.2804 64.1035 55.5941 64.1012 54.9081 64.1002C53.8598 64.0973 52.8117 64.0851 51.7633 64.0725C51.0967 64.07 50.4301 64.0683 49.7632 64.0671C49.2936 64.0596 49.2936 64.0596 48.8147 64.0522C47.265 64.0603 46.6044 64.0787 45.3511 64.8073C44.2243 65.9198 44.3025 66.8099 44.2903 68.1595C44.287 68.388 44.2837 68.6168 44.2801 68.8524C44.2695 69.6103 44.2613 70.3686 44.2528 71.1269C44.2458 71.6516 44.2389 72.1762 44.2316 72.7009C44.2128 74.0837 44.1962 75.4669 44.1799 76.8497C44.1629 78.2599 44.1441 79.6705 44.1257 81.0807C44.0893 83.8496 44.0551 86.6186 44.0221 89.3871C43.4778 89.5876 43.4778 89.5876 42.9223 89.7922C42.4373 89.9711 41.952 90.1503 41.467 90.3291C41.2288 90.4168 40.9908 90.5044 40.7453 90.5947C38.5339 91.4106 36.3393 92.2495 34.1484 93.0958C33.4225 93.3755 32.6962 93.6555 31.9703 93.9353C31.6582 94.0558 31.346 94.1763 31.0245 94.3004C30.2968 94.5788 29.5662 94.8524 28.8319 95.1215C23.9104 85.228 28.0404 73.4778 33.7128 64.3133C38.3631 56.9727 44.3706 50.2009 51.4485 44.0118C51.6198 43.8607 51.7912 43.7099 51.9677 43.5545C52.4748 43.1082 52.9843 42.6638 53.4947 42.2197C53.6373 42.0956 53.7796 41.9719 53.9261 41.8439C57.218 39.0151 60.7473 36.3551 64.322 33.7228C65.0401 33.194 65.7563 32.6636 66.4723 32.1332C66.9373 31.79 67.4023 31.4469 67.8673 31.1038C68.0771 30.9485 68.2866 30.7932 68.5027 30.6331C70.697 29.021 73.0498 27.5487 75.4151 26.0766C75.6122 25.9537 75.8092 25.8307 76.0124 25.7041C76.4883 25.4074 76.9642 25.1109 77.4404 24.8145Z" fill="#82AAFF"/>
<path d="M81.9639 29.0854L81.9603 29.0829C80.5293 28.0722 79.0613 27.1502 77.4811 26.2822C77.1953 26.4602 76.9095 26.6382 76.624 26.8163M81.9639 29.0854L54.9107 62.8111M81.9639 29.0854C82.3745 29.3732 82.7856 29.6608 83.1967 29.9481C83.1967 29.9482 83.197 29.9483 83.197 29.9483L83.846 30.4021L83.85 30.405L83.8542 30.4078C84.6138 30.9295 85.3857 31.436 86.1477 31.9352C88.0244 33.1785 89.8139 34.4875 91.6175 35.8249L91.6178 35.8253M81.9639 29.0854L91.6178 35.8253M76.624 26.8163C76.624 26.8163 76.624 26.8163 76.624 26.8163ZM76.624 26.8163L76.0267 27.1888L76.0258 27.1894C73.6563 28.664 71.3428 30.1125 69.1922 31.6923C69.1916 31.6928 69.1907 31.6934 69.1901 31.694L68.5589 32.1618L68.5564 32.1634C68.0917 32.5062 67.6271 32.8491 67.1624 33.192C66.4467 33.7221 65.7298 34.2532 65.0108 34.783C61.441 37.4118 57.9432 40.0482 54.6894 42.8442C54.6885 42.8452 54.6873 42.8461 54.6864 42.8471L54.2613 43.2174L54.2601 43.218C53.7512 43.6608 53.2438 44.1036 52.7392 44.5477C52.7392 44.548 52.7386 44.548 52.7386 44.548L52.2197 45.005L52.2167 45.0079C45.2144 51.1309 39.2929 57.8112 34.7198 65.0283C29.2879 73.8068 25.5876 84.5128 29.4447 93.5298C29.835 93.3838 30.2243 93.2366 30.6129 93.0877C30.6132 93.0877 30.6135 93.0873 30.6141 93.0873L31.5569 92.7235L31.5575 92.7232C32.2837 92.4435 33.0097 92.1634 33.7356 91.8837C35.9283 91.0368 38.1289 90.1957 40.3483 89.3768L40.3489 89.3765L41.07 89.1109H41.0706L42.5255 88.5743L42.5258 88.574L42.8216 88.4651C42.8513 85.9978 42.8818 83.5302 42.9142 81.063V81.0626L42.9185 80.7423C42.9357 79.4384 42.953 78.1358 42.9687 76.8332C42.9848 75.4501 43.0017 74.0663 43.0202 72.6825C43.0275 72.1584 43.0344 71.6341 43.0414 71.1101C43.0499 70.3528 43.058 69.5929 43.0689 68.833V68.8323L43.0789 68.1472C43.0789 68.1459 43.0789 68.1446 43.0789 68.1433C43.0795 68.0663 43.0798 67.9867 43.0801 67.9042C43.0813 67.3606 43.0826 66.7064 43.2264 66.0857C43.4137 65.2768 43.8167 64.5633 44.5269 63.862L44.6377 63.7528L44.7703 63.6758C45.4817 63.2623 46.0854 63.0167 46.7614 62.8901C47.3971 62.7708 48.0571 62.767 48.8085 62.7631H48.8203L48.8318 62.7634L49.7724 62.7779C50.4375 62.7792 51.1023 62.7808 51.7671 62.7834H51.7719H51.7768C52.8255 62.796 53.8684 62.8082 54.9107 62.8111M54.9107 62.8111L81.5207 76.1732M54.9107 62.8111C55.5976 62.8121 56.2848 62.8144 56.972 62.8179H56.9738L57.9535 62.8247L57.9486 64.1137M91.6178 35.8253C92.1737 36.2371 92.7307 36.6474 93.2868 37.0563C95.1462 38.4285 96.932 39.8117 98.6168 41.2715L98.6328 41.2857M91.6178 35.8253L98.6328 41.2857M98.6328 41.2857L98.6495 41.2989M98.6495 41.2989C99.1257 41.6837 99.6034 42.0679 100.083 42.451C101.744 43.8129 103.273 45.2496 104.818 46.732L104.82 46.7339M98.6495 41.2989L104.82 46.7339M104.82 46.7339C105.341 47.2315 105.867 47.7243 106.389 48.2131C109.148 50.8116 111.624 53.5228 114.009 56.3426L114.012 56.3462M104.82 46.7339L114.012 56.3462M114.012 56.3462L114.015 56.3497L114.457 56.8644C114.457 56.8644 114.457 56.8647 114.457 56.8647C116.345 59.0758 117.972 61.3945 119.561 63.7853L119.562 63.7857C119.782 64.1163 120.003 64.4463 120.225 64.7763M114.012 56.3462L120.225 64.7763M120.225 64.7763C120.53 65.2317 120.831 65.6903 121.133 66.1534L121.135 66.1559L121.137 66.1588L121.629 66.9062C121.632 66.9116 121.634 66.9168 121.636 66.922C121.549 66.949 121.447 66.9806 121.326 67.0177C120.877 67.1105 120.426 67.1991 119.973 67.2842L119.965 67.2858L119.957 67.2874L119.179 67.445C118.364 67.609 117.544 67.7669 116.721 67.9236L116.719 67.9239C116.207 68.0225 115.696 68.1208 115.184 68.2191M120.225 64.7763L115.184 68.2191M115.184 68.2191C114.404 68.3693 113.625 68.5188 112.845 68.6677L112.843 68.6683C109.597 69.2948 106.397 70.0296 103.219 70.7595C102.98 70.8143 102.742 70.8691 102.503 70.9238M115.184 68.2191L102.503 70.9238M102.503 70.9238C102.01 71.036 101.518 71.1478 101.025 71.2597H101.024C98.6258 71.8059 96.2385 72.3731 93.8581 72.9535C93.8578 72.9535 93.8578 72.9535 93.8578 72.9535L93.1043 73.1356L93.1003 73.1368C91.9515 73.4192 90.8374 73.7221 89.7109 74.0788M102.503 70.9238L89.7109 74.0788M89.7109 74.0788H89.7112L90.0557 75.3128L89.7109 74.0788ZM81.5207 76.1732C81.0806 76.2947 80.6401 76.4159 80.1993 76.5371H80.1984C77.2077 77.3608 74.223 78.2054 71.2671 79.1249M81.5207 76.1732C81.522 76.1729 81.5232 76.1726 81.5241 76.1723L81.828 77.4194L81.5177 76.1739C81.5186 76.1739 81.5198 76.1736 81.5207 76.1732ZM71.2671 79.1249L71.2689 79.1242L71.6065 80.362M71.2671 79.1249L71.6065 80.362M71.2671 79.1249L70.4855 79.3662C69.9666 79.5267 69.448 79.6885 68.93 79.8516M71.6065 80.362L70.823 80.6041C70.305 80.7646 69.7874 80.926 69.2706 81.0884M71.6065 80.362C74.5445 79.4484 77.5153 78.6076 80.5017 77.7852C80.944 77.6637 81.386 77.5419 81.8283 77.4201C83.454 76.9609 85.0724 76.5371 86.7438 76.1736C87.8848 75.9257 88.9623 75.6605 90.056 75.3144C91.1531 74.967 92.2418 74.6705 93.3728 74.3927L94.1281 74.21C96.5043 73.6309 98.8859 73.065 101.277 72.5204L66.2856 81.0072M57.9486 64.1137L57.9565 62.8247L58.9059 62.8289H58.9113H58.9168L59.7971 62.8408L59.7856 64.1298M57.9486 64.1137L58.901 64.1179M57.9486 64.1137L56.966 64.107C56.28 64.1034 55.5937 64.1012 54.9077 64.1002C53.8593 64.0973 52.8112 64.0851 51.7629 64.0725L58.901 64.1179M68.93 79.8516C68.155 80.091 67.7566 80.2128 67.4772 80.2802M68.93 79.8516C68.9312 79.8513 68.9321 79.8509 68.933 79.8506L69.2706 81.0884M68.93 79.8516C68.9291 79.8519 68.9282 79.8522 68.9273 79.8525L69.2706 81.0884M69.2706 81.0884C68.3436 81.3749 67.8826 81.5174 67.5102 81.5883L67.4963 80.976L67.496 80.9721C67.4902 80.7414 67.4839 80.5106 67.4772 80.2802M66.2856 81.0072L66.3005 81.6582M66.2856 81.0072C66.2647 80.2003 66.2396 79.393 66.2118 78.586C66.2009 78.2386 66.1912 77.8912 66.1836 77.5438M66.2856 81.0072L64.3033 70.4118M67.4772 80.2802C67.4605 79.6998 67.4421 79.1197 67.4221 78.5403M67.4772 80.2802C67.4133 80.2957 67.3558 80.3082 67.3016 80.3185C67.0546 80.3659 66.8814 80.3691 66.3005 80.3691V81.0069V81.6582M67.4221 78.5403C67.4112 78.2058 67.4021 77.8716 67.3946 77.5374M67.4221 78.5403C67.4221 78.5396 67.4221 78.5393 67.4221 78.5387L66.2127 78.586L67.4221 78.5422C67.4221 78.5416 67.4221 78.5409 67.4221 78.5403ZM66.3005 81.6582C66.6859 81.6582 66.9392 81.6582 67.1799 81.6356L66.3005 81.6582ZM67.3946 77.5374C67.3952 77.4939 67.3958 77.451 67.3964 77.4085C67.4139 76.0998 67.426 75.2222 67.2374 74.3653C67.05 73.5136 66.6713 72.7108 66.0992 71.4984C66.0774 71.4517 66.055 71.4047 66.0325 71.3567L65.8161 70.8977L65.3623 70.7228L64.5255 70.4008M67.3946 77.5374C67.3946 77.5293 67.3942 77.5213 67.3942 77.5132L66.1836 77.5438M67.3946 77.5374C67.3946 77.5458 67.3946 77.5538 67.3942 77.5619L66.1836 77.5438M64.5255 70.4008C64.429 70.3515 64.3542 70.3132 64.2936 70.2816M64.5255 70.4008C64.5428 70.4095 64.5607 70.4185 64.5794 70.4279L64.0575 71.5913M64.5255 70.4008L64.4695 70.3792L64.0575 71.5913M66.1836 77.5438C66.2221 74.6322 66.2221 74.6322 64.9503 71.9351L64.0575 71.5913M64.2936 70.2816C64.251 69.6873 64.2385 69.0879 64.2413 68.4663V68.4553V68.4447C64.2355 67.9493 64.2273 67.4537 64.2161 66.958M64.2936 70.2816C64.2961 70.3173 64.2988 70.3534 64.3018 70.3892M64.2936 70.2816C64.2843 70.2764 64.2755 70.2719 64.2667 70.2674C64.2664 70.2661 64.2661 70.2651 64.2658 70.2639L64.2625 70.2648C64.2264 70.2458 64.1959 70.229 64.1692 70.2139C64.1326 70.193 64.1181 70.1826 64.1181 70.1826C64.1181 70.1826 64.1417 70.1994 64.1732 70.231C64.188 70.2458 64.2025 70.2619 64.2171 70.2796L63.1063 70.6361M64.0575 71.5913C63.2625 71.1871 63.2625 71.1871 63.1063 70.6361M64.2161 66.958L64.2167 66.3077V66.2162L64.2046 66.1253C64.1483 65.7041 64.0527 65.2981 63.8601 64.8891C63.6715 64.4882 63.4206 64.1501 63.1342 63.8243L62.9725 63.6406L62.7582 63.5349C62.2357 63.2778 61.8082 63.0809 61.3268 62.9697C60.8525 62.8601 60.3805 62.8469 59.7986 62.8408H59.8011L59.7856 64.1298M64.2161 66.958V66.9738L63.0052 66.9732M64.2161 66.958C64.2161 66.9526 64.2161 66.9474 64.2158 66.9423L63.0052 66.9732M64.3018 70.3892L63.0303 68.4601M64.3018 70.3892C64.3045 70.3992 64.3073 70.4082 64.31 70.4169C64.3206 70.4517 64.323 70.4556 64.3188 70.4453C64.316 70.4385 64.3112 70.4269 64.3033 70.4118M64.3018 70.3892L64.3033 70.4118M63.1063 70.6361C63.044 69.9087 63.0273 69.1891 63.0303 68.4601M63.1063 70.6361L64.3124 70.5188C64.3091 70.4833 64.3064 70.4475 64.3033 70.4118M59.7856 64.1298C60.9678 64.1421 61.2073 64.1917 62.2499 64.7048M59.7856 64.1298L58.901 64.1179M63.0052 66.9732L63.0058 66.3071C62.9174 65.6474 62.737 65.2594 62.2499 64.7048M63.0052 66.9732C63.0164 67.4688 63.0249 67.9645 63.0303 68.4601M62.2499 64.7048L58.901 64.1179M62.2499 64.7048L63.0303 68.4601" stroke="#82AAFF" stroke-width="8"/>
</g>
<path d="M128.056 84.1719C127.818 94.6713 123.155 104.14 113.203 111.747C112.969 111.938 112.736 112.128 112.495 112.324C104.296 118.8 91.4679 122.351 79.657 122.764C69.2145 122.999 58.2674 121.069 49.7402 116.467C51.3008 115.196 53.1666 114.282 55.078 113.315C55.4259 113.138 55.7734 112.961 56.1319 112.779C58.6866 111.488 61.279 110.257 63.9246 109.069C64.6305 108.749 65.3304 108.422 66.0292 108.092C70.6574 105.913 75.3758 103.848 80.1211 101.81C80.5032 101.646 80.8849 101.482 81.2785 101.313C95.6457 95.1592 110.476 89.5801 125.738 84.7307C127.48 84.1719 127.48 84.1719 128.056 84.1719Z" fill="#82AAFF"/>
<path d="M81.0667 47.0666C82.7611 47.9286 83.5988 48.8113 84.3426 50.1839C84.9596 51.275 85.579 51.5406 87.0863 51.9985C88.1265 52.6969 88.5391 53.217 88.6178 54.2318C88.5476 55.237 88.0847 55.7578 87.0863 56.4651C85.9683 57.0085 85.6253 57.0256 84.326 57.0333C83.9718 57.0365 83.6173 57.0397 83.2519 57.043C82.8692 57.0436 82.4863 57.0442 82.0918 57.0446C81.6976 57.0462 81.3038 57.0481 80.8975 57.0497C80.0632 57.0523 79.2285 57.0533 78.3942 57.0533C77.1191 57.0542 75.8443 57.0633 74.5695 57.0729C73.7587 57.0742 72.948 57.0752 72.1373 57.0758C71.566 57.081 71.566 57.081 70.9833 57.0865C68.8684 57.0774 67.5848 57.0143 65.986 55.9688C65.0778 55.1845 64.6719 54.6482 64.3906 53.6424C64.7224 52.3672 65.6851 51.6038 67.0069 50.7578C68.1252 50.4858 68.9595 50.4849 70.1338 50.4942C70.6884 50.4974 70.6884 50.4974 71.2545 50.501C71.5376 50.5039 71.8203 50.5064 72.1119 50.5097C72.1558 50.3611 72.1997 50.2129 72.2448 50.0598C72.7549 48.725 73.9882 47.8065 75.5152 47.0356C77.3528 46.589 79.237 46.6135 81.0667 47.0666Z" fill="#FCFCFC"/>
<path d="M46.9238 69.188C51.3861 69.188 55.8484 69.188 60.4458 69.188C60.4458 70.8995 60.4458 72.6111 60.4458 74.3745C55.9835 74.3745 51.5212 74.3745 46.9238 74.3745C46.9238 72.663 46.9238 70.9514 46.9238 69.188Z" fill="#117737"/>
<path d="M95.3067 43.8406C96.5397 44.055 97.0801 44.49 97.8296 45.1665C98.1911 45.6134 98.1911 45.6134 98.3619 46.1175C98.4466 46.3282 98.4466 46.3282 98.5326 46.5432C99.0948 46.7101 99.6648 46.8648 100.24 47.0082C100.985 47.7687 101.139 47.986 100.924 48.8683C100.002 49.6708 99.5035 49.9975 98.0089 50.1699C97.5499 50.1728 97.0907 50.1696 96.6314 50.1606C96.3871 50.16 96.1425 50.1596 95.8906 50.159C95.376 50.1567 94.861 50.1516 94.3464 50.1438C93.5602 50.1326 92.7746 50.1297 91.9881 50.1284C91.4865 50.1252 90.9851 50.1213 90.4838 50.1171C90.2495 50.1158 90.0155 50.1145 89.7742 50.1132C88.5502 50.0926 87.5954 50.051 86.5785 49.5657C85.7245 48.6936 85.7124 48.2734 85.8956 47.2409C86.5573 46.5577 86.5573 46.5577 87.6033 46.0781C88.6447 45.986 89.6337 46.0085 90.6772 46.0781C90.7199 45.938 90.7626 45.7978 90.8065 45.6534C91.4589 44.1007 93.1697 43.771 95.3067 43.8406Z" fill="#FAFAFA"/>
<path d="M50.4388 100.308C50.7663 100.878 51.0936 101.449 51.4312 102.037C51.1545 102.165 50.8778 102.294 50.5926 102.427C47.5743 103.848 44.698 105.382 41.8405 106.976C41.1461 107.364 40.4501 107.749 39.7532 108.134C39.468 108.293 39.1825 108.452 38.8889 108.615C38.2029 108.952 38.2029 108.952 37.5414 108.952C37.0818 108.468 36.6399 107.974 36.2188 107.47C39.5712 105.045 43.5295 103.138 47.4211 101.234C47.6119 101.139 47.8026 101.045 47.9991 100.947C48.8951 100.516 49.3492 100.308 50.4388 100.308Z" fill="white"/>
<path d="M72.7331 90.5112C73.1545 91.2666 73.4037 91.7584 73.4037 92.5915C73.1573 92.7013 72.9105 92.8112 72.6565 92.9247C71.725 93.3404 70.7938 93.7561 69.8626 94.1722C69.4627 94.3507 69.0628 94.5292 68.6626 94.7078C68.0813 94.9669 67.5001 95.2266 66.9191 95.4864C66.541 95.6543 66.1629 95.8225 65.7733 95.9955C65.0727 96.3149 64.3798 96.6443 63.6974 96.9862C63.4032 97.1335 63.1089 97.2807 62.8056 97.4325C62.551 97.565 62.2967 97.6971 62.0345 97.8337C61.3303 98.0522 61.3303 98.0522 60.5938 97.8734C59.79 97.4196 59.6126 96.9546 59.3184 96.2318C62.6587 94.6565 66.0082 93.0958 69.4212 91.6163C69.677 91.5044 69.9331 91.3926 70.1965 91.2776C71.9805 90.5112 71.9805 90.5112 72.7331 90.5112Z" fill="white"/>
<path d="M92.1016 83.5957C92.4392 84.1745 92.7767 84.7533 93.1246 85.3495C90.921 86.1764 88.6928 86.9585 86.4471 87.7217C85.2728 88.1216 84.1094 88.5325 82.9581 88.9669C81.871 89.3585 81.871 89.3585 81.189 89.3585C80.166 87.9176 80.166 87.9176 80.166 87.354C90.9167 83.5957 90.9167 83.5957 92.1016 83.5957Z" fill="white"/>
<path d="M109.372 78.9854C109.783 79.7298 110.026 80.2138 110.026 81.0343C109.741 81.112 109.456 81.1897 109.162 81.2696C106.833 81.9109 104.548 82.5899 102.282 83.3608C101.52 83.5957 101.52 83.5957 100.866 83.5957C99.8848 82.1229 99.8848 82.1229 99.8848 81.5467C100.228 81.4478 100.572 81.3485 100.926 81.2467C101.39 81.112 101.854 80.9773 102.318 80.8422C102.557 80.773 102.796 80.7033 103.043 80.6315C104.553 80.1884 106.027 79.7133 107.476 79.1555C108.063 78.9854 108.063 78.9854 109.372 78.9854Z" fill="white"/>
<path d="M126.005 74.9517C126.492 75.7467 126.354 76.496 126.334 77.3719C123.372 77.9101 120.409 78.4479 117.447 78.9858C116.867 78.1553 116.789 77.8472 116.789 76.834C123.956 74.9517 123.956 74.9517 126.005 74.9517Z" fill="white"/>
<path d="M63.2637 72.646C64.2981 73.5709 64.3426 73.9138 64.3904 75.1912C64.3892 75.5145 64.3877 75.8377 64.3862 76.1706C64.3859 76.343 64.3853 76.5158 64.385 76.6937C64.3835 77.2425 64.3802 77.7916 64.3765 78.3404C64.3753 78.7136 64.3741 79.0868 64.3729 79.46C64.3699 80.3726 64.365 81.2853 64.3596 82.198C63.8171 82.3191 63.8171 82.3191 63.2637 82.4429C63.2637 79.2099 63.2637 75.9769 63.2637 72.646Z" fill="#1A1A1A"/>
<g filter="url(#filter1_d_199_595)">
<path d="M89.8853 100.943C89.7917 101.005 89.4699 101.768 89.1614 102.646L88.6074 104.222L89.1702 104.299L89.716 104.373L90.2101 102.713C90.6536 101.197 90.676 101.031 90.3881 100.936C90.1959 100.872 89.9785 100.88 89.8853 100.943Z" fill="#7EE787" fill-opacity="0.37"/>
<path d="M99.6016 102.284C99.5147 102.329 99.1926 103.092 98.8841 103.97L98.3301 105.546L98.8247 105.614L99.3194 105.681L99.8976 104.239C100.209 103.456 100.428 102.679 100.41 102.526C100.362 102.257 99.8649 102.095 99.6016 102.284Z" fill="#7EE787" fill-opacity="0.37"/>
<path d="M84.6532 104.768C84.4276 104.85 84.2236 105.329 83.7646 106.787C82.9391 109.34 83.0835 109.641 85.7618 110.869C87.4556 111.645 87.6278 111.968 87.1619 113.294C86.9164 113.993 86.8901 114.271 87.0635 114.388C87.3542 114.578 94.6549 115.572 95.0463 115.475C95.2825 115.413 95.4453 115.154 95.7223 114.366C96.1755 113.076 96.4262 112.923 98.4618 112.674C101.713 112.272 102.339 111.813 103.265 109.18C103.762 107.765 103.83 107.417 103.64 107.298C103.27 107.078 84.9719 104.624 84.6532 104.768ZM94.4197 107.9C95.3209 108.286 96.0796 108.671 96.1332 108.772C96.1761 108.853 95.7756 109.23 95.2428 109.627C94.2368 110.353 94.2368 110.353 95.0681 110.785C95.2029 110.86 95.3015 110.986 95.2761 111.058C95.1835 111.27 89.991 113.585 89.6837 113.544C89.1721 113.474 89.3825 112.977 90.2071 112.207C91.102 111.39 91.2646 111.131 90.9404 111.087C90.8211 111.071 90.4602 110.927 90.1399 110.771C89.4306 110.45 89.4621 110.36 91.1199 108.39C91.8628 107.496 92.2572 107.137 92.4792 107.167C92.6496 107.19 93.5184 107.515 94.4197 107.9Z" fill="#2F2E41"/>
<path d="M91.2058 109.407C90.7465 110.001 90.353 110.511 90.3403 110.546C90.3279 110.582 90.5864 110.711 90.9021 110.83C91.8736 111.168 92.0431 111.398 91.6638 111.815C91.3505 112.148 91.3505 112.148 92.0095 111.9C93.0513 111.479 93.206 111.293 92.6465 111.105C92.3989 110.996 92.1978 110.856 92.223 110.784C92.2545 110.695 92.717 110.345 93.2435 109.966C93.7869 109.589 94.2029 109.271 94.1814 109.23C94.1535 109.207 93.6579 108.99 93.0942 108.763L92.0522 108.321L91.2058 109.407Z" fill="#7EE787" fill-opacity="0.37"/>
<path d="M88.7851 115.264C88.6979 115.309 88.5901 115.463 88.5459 115.588C88.4893 115.75 88.9183 115.902 90.0657 116.096C91.6332 116.365 91.6735 116.352 91.8121 115.958C91.9444 115.582 91.8993 115.557 90.4495 115.36C89.6137 115.246 88.8614 115.2 88.7851 115.264Z" fill="#7EE787" fill-opacity="0.37"/>
<path d="M100.952 119.042C100.713 119.723 100.734 119.764 101.212 119.829C101.69 119.894 101.736 119.863 101.976 119.182C102.215 118.501 102.193 118.461 101.716 118.396C101.238 118.331 101.191 118.362 100.952 119.042Z" fill="#7EE787" fill-opacity="0.37"/>
</g>
<g filter="url(#filter2_d_199_595)">
<path d="M37.3379 146.631L38.8128 136.75H40.2877L40.7709 139.944C40.8133 140.233 40.8514 140.522 40.8853 140.811C40.9277 141.09 40.9574 141.307 40.9743 141.46C41.0337 141.307 41.1184 141.09 41.2286 140.811C41.3388 140.522 41.4575 140.228 41.5846 139.931L42.9833 136.75H44.5091L43.0341 146.631H41.9152L42.4493 143.044C42.5171 142.62 42.5976 142.155 42.6908 141.65C42.7926 141.144 42.9028 140.635 43.0214 140.12C43.1401 139.597 43.2545 139.096 43.3647 138.618C43.4834 138.14 43.5894 137.72 43.6826 137.359L41.4575 142.299H40.2496L39.4613 137.359C39.4528 137.711 39.4316 138.122 39.3977 138.591C39.3723 139.051 39.3384 139.543 39.296 140.066C39.2621 140.58 39.2197 141.095 39.1688 141.609C39.118 142.123 39.0586 142.602 38.9908 143.044L38.4568 146.631H37.3379ZM44.6314 146.631L48.5221 136.75H50.0606L50.9888 146.631H49.8699L49.6537 144.005H46.8437L45.8393 146.631H44.6314ZM47.2252 142.976H49.5647L49.2977 139.931C49.2553 139.353 49.2214 138.87 49.196 138.482C49.179 138.094 49.1706 137.842 49.1706 137.724C49.1367 137.842 49.0519 138.094 48.9163 138.482C48.7891 138.87 48.6154 139.349 48.395 139.917L47.2252 142.976ZM52.7891 146.631L54.2641 136.75H57.2521C57.8285 136.75 58.3116 136.872 58.7016 137.115C59.0915 137.35 59.367 137.684 59.528 138.117C59.6975 138.55 59.7399 139.064 59.6552 139.66C59.5704 140.247 59.3754 140.761 59.0703 141.203C58.7736 141.636 58.3964 141.975 57.9387 142.218C57.4809 142.453 56.9639 142.57 56.3875 142.57H54.5438L53.9335 146.631H52.7891ZM54.6964 141.474H56.54C57.0401 141.474 57.464 141.311 57.8115 140.986C58.1675 140.653 58.3879 140.21 58.4727 139.66C58.5574 139.101 58.4727 138.658 58.2184 138.334C57.9641 138.009 57.5869 137.846 57.0868 137.846H55.2431L54.6964 141.474ZM61.6084 142.705L61.7737 141.623H65.8424L65.6772 142.705H61.6084ZM70.6565 146.766C70.1056 146.766 69.6436 146.653 69.2706 146.428C68.9061 146.202 68.6476 145.877 68.495 145.453C68.3424 145.02 68.3085 144.51 68.3933 143.924L69.0545 139.457C69.1477 138.861 69.3342 138.352 69.6139 137.928C69.8936 137.503 70.2497 137.179 70.682 136.953C71.1227 136.727 71.6186 136.615 72.1696 136.615C72.729 136.615 73.191 136.727 73.5555 136.953C73.9285 137.179 74.1913 137.503 74.3438 137.928C74.5049 138.352 74.5388 138.857 74.4456 139.443L73.7844 143.924C73.6996 144.51 73.5131 145.02 73.2249 145.453C72.9452 145.877 72.5849 146.202 72.1442 146.428C71.7119 146.653 71.216 146.766 70.6565 146.766ZM70.8218 145.67C71.3219 145.67 71.7288 145.521 72.0424 145.223C72.3561 144.916 72.5553 144.483 72.64 143.924L73.3012 139.457C73.386 138.898 73.3139 138.469 73.0851 138.171C72.8647 137.864 72.5044 137.711 72.0043 137.711C71.5127 137.711 71.11 137.864 70.7964 138.171C70.4828 138.469 70.2836 138.898 70.1988 139.457L69.5376 143.924C69.4529 144.483 69.5207 144.916 69.7411 145.223C69.9699 145.521 70.3302 145.67 70.8218 145.67ZM76.8562 142.705L77.0215 141.623H81.0903L80.925 142.705H76.8562ZM85.9552 146.766C85.0482 146.766 84.3701 146.527 83.9208 146.049C83.4716 145.561 83.3021 144.898 83.4122 144.059H84.5566C84.4803 144.555 84.5778 144.948 84.849 145.237C85.1287 145.525 85.5526 145.67 86.1205 145.67C86.6545 145.67 87.0911 145.53 87.4301 145.25C87.7777 144.97 87.9896 144.582 88.0659 144.086C88.1252 143.662 88.0743 143.301 87.9133 143.003C87.7607 142.705 87.5149 142.498 87.1758 142.381L85.9806 141.961C85.3873 141.753 84.9507 141.411 84.671 140.932C84.3913 140.454 84.2938 139.89 84.3786 139.24C84.4633 138.708 84.6456 138.248 84.9253 137.86C85.205 137.463 85.5653 137.156 86.0061 136.939C86.4469 136.714 86.9427 136.601 87.4937 136.601C88.3075 136.601 88.922 136.845 89.3374 137.332C89.7612 137.81 89.918 138.451 89.8078 139.254H88.6635C88.7398 138.767 88.6592 138.388 88.4219 138.117C88.193 137.837 87.8285 137.697 87.3284 137.697C86.8368 137.697 86.4341 137.824 86.1205 138.076C85.8069 138.329 85.6162 138.681 85.5483 139.132C85.489 139.547 85.5356 139.908 85.6882 140.215C85.8493 140.522 86.1036 140.738 86.4511 140.865L87.659 141.298C88.2439 141.505 88.672 141.853 88.9432 142.34C89.2145 142.827 89.3035 143.4 89.2102 144.059C89.1339 144.6 88.9432 145.074 88.638 145.48C88.3414 145.886 87.9599 146.202 87.4937 146.428C87.036 146.653 86.5231 146.766 85.9552 146.766ZM90.9216 146.631L92.3965 136.75H93.5408L92.9051 140.973H95.8804L96.5161 136.75H97.6604L96.1855 146.631H95.0412L95.7151 142.083H92.7398L92.0659 146.631H90.9216ZM97.9989 146.631L101.89 136.75H103.428L104.356 146.631H103.237L103.021 144.005H100.211L99.2068 146.631H97.9989ZM100.593 142.976H102.932L102.665 139.931C102.623 139.353 102.589 138.87 102.564 138.482C102.547 138.094 102.538 137.842 102.538 137.724C102.504 137.842 102.419 138.094 102.284 138.482C102.157 138.87 101.983 139.349 101.762 139.917L100.593 142.976ZM106.157 146.631L107.632 136.75H110.505C111.056 136.75 111.518 136.872 111.891 137.115C112.273 137.35 112.544 137.679 112.705 138.103C112.875 138.528 112.917 139.024 112.832 139.592C112.764 140.08 112.612 140.517 112.375 140.905C112.146 141.293 111.849 141.614 111.484 141.866C111.128 142.119 110.726 142.29 110.277 142.381L110.416 141.772L111.917 146.631H110.62L109.412 142.435H107.924L107.301 146.631H106.157ZM108.09 141.338H109.819C110.294 141.338 110.696 141.18 111.027 140.865C111.366 140.54 111.574 140.116 111.65 139.592C111.735 139.06 111.654 138.636 111.408 138.32C111.171 138.004 110.815 137.846 110.34 137.846H108.611L108.09 141.338ZM113.882 146.631L115.357 136.75H120.698L120.532 137.86H116.324L115.866 140.919H119.63L119.464 142.015H115.701L115.179 145.521H119.388L119.223 146.631H113.882Z" fill="#82AAFF"/>
<mask id="mask0_199_595" style="mask-type:luminance" maskUnits="userSpaceOnUse" x="36" y="135" width="86" height="13">
<path d="M121.699 135.674H36.3281V147.598H121.699V135.674Z" fill="white"/>
<path d="M37.3379 146.631L38.8128 136.75H40.2877L40.7709 139.944C40.8133 140.233 40.8514 140.522 40.8853 140.811C40.9277 141.09 40.9574 141.307 40.9743 141.46C41.0337 141.307 41.1184 141.09 41.2286 140.811C41.3388 140.522 41.4575 140.228 41.5846 139.931L42.9833 136.75H44.5091L43.0341 146.631H41.9152L42.4493 143.044C42.5171 142.62 42.5976 142.155 42.6908 141.65C42.7926 141.144 42.9028 140.635 43.0214 140.12C43.1401 139.597 43.2545 139.096 43.3647 138.618C43.4834 138.14 43.5894 137.72 43.6826 137.359L41.4575 142.299H40.2496L39.4613 137.359C39.4528 137.711 39.4316 138.122 39.3977 138.591C39.3723 139.051 39.3384 139.543 39.296 140.066C39.2621 140.58 39.2197 141.095 39.1688 141.609C39.118 142.123 39.0586 142.602 38.9908 143.044L38.4568 146.631H37.3379ZM44.6314 146.631L48.5221 136.75H50.0606L50.9888 146.631H49.8699L49.6537 144.005H46.8437L45.8393 146.631H44.6314ZM47.2252 142.976H49.5647L49.2977 139.931C49.2553 139.353 49.2214 138.87 49.196 138.482C49.179 138.094 49.1706 137.842 49.1706 137.724C49.1367 137.842 49.0519 138.094 48.9163 138.482C48.7891 138.87 48.6154 139.349 48.395 139.917L47.2252 142.976ZM52.7891 146.631L54.2641 136.75H57.2521C57.8285 136.75 58.3116 136.872 58.7016 137.115C59.0915 137.35 59.367 137.684 59.528 138.117C59.6975 138.55 59.7399 139.064 59.6552 139.66C59.5704 140.247 59.3754 140.761 59.0703 141.203C58.7736 141.636 58.3964 141.975 57.9387 142.218C57.4809 142.453 56.9639 142.57 56.3875 142.57H54.5438L53.9335 146.631H52.7891ZM54.6964 141.474H56.54C57.0401 141.474 57.464 141.311 57.8115 140.986C58.1675 140.653 58.3879 140.21 58.4727 139.66C58.5574 139.101 58.4727 138.658 58.2184 138.334C57.9641 138.009 57.5869 137.846 57.0868 137.846H55.2431L54.6964 141.474ZM61.6084 142.705L61.7737 141.623H65.8424L65.6772 142.705H61.6084ZM70.6565 146.766C70.1056 146.766 69.6436 146.653 69.2706 146.428C68.9061 146.202 68.6476 145.877 68.495 145.453C68.3424 145.02 68.3085 144.51 68.3933 143.924L69.0545 139.457C69.1477 138.861 69.3342 138.352 69.6139 137.928C69.8936 137.503 70.2497 137.179 70.682 136.953C71.1227 136.727 71.6186 136.615 72.1696 136.615C72.729 136.615 73.191 136.727 73.5555 136.953C73.9285 137.179 74.1913 137.503 74.3438 137.928C74.5049 138.352 74.5388 138.857 74.4456 139.443L73.7844 143.924C73.6996 144.51 73.5131 145.02 73.2249 145.453C72.9452 145.877 72.5849 146.202 72.1442 146.428C71.7119 146.653 71.216 146.766 70.6565 146.766ZM70.8218 145.67C71.3219 145.67 71.7288 145.521 72.0424 145.223C72.3561 144.916 72.5553 144.483 72.64 143.924L73.3012 139.457C73.386 138.898 73.3139 138.469 73.0851 138.171C72.8647 137.864 72.5044 137.711 72.0043 137.711C71.5127 137.711 71.11 137.864 70.7964 138.171C70.4828 138.469 70.2836 138.898 70.1988 139.457L69.5376 143.924C69.4529 144.483 69.5207 144.916 69.7411 145.223C69.9699 145.521 70.3302 145.67 70.8218 145.67ZM76.8562 142.705L77.0215 141.623H81.0903L80.925 142.705H76.8562ZM85.9552 146.766C85.0482 146.766 84.3701 146.527 83.9208 146.049C83.4716 145.561 83.3021 144.898 83.4122 144.059H84.5566C84.4803 144.555 84.5778 144.948 84.849 145.237C85.1287 145.525 85.5526 145.67 86.1205 145.67C86.6545 145.67 87.0911 145.53 87.4301 145.25C87.7777 144.97 87.9896 144.582 88.0659 144.086C88.1252 143.662 88.0743 143.301 87.9133 143.003C87.7607 142.705 87.5149 142.498 87.1758 142.381L85.9806 141.961C85.3873 141.753 84.9507 141.411 84.671 140.932C84.3913 140.454 84.2938 139.89 84.3786 139.24C84.4633 138.708 84.6456 138.248 84.9253 137.86C85.205 137.463 85.5653 137.156 86.0061 136.939C86.4469 136.714 86.9427 136.601 87.4937 136.601C88.3075 136.601 88.922 136.845 89.3374 137.332C89.7612 137.81 89.918 138.451 89.8078 139.254H88.6635C88.7398 138.767 88.6592 138.388 88.4219 138.117C88.193 137.837 87.8285 137.697 87.3284 137.697C86.8368 137.697 86.4341 137.824 86.1205 138.076C85.8069 138.329 85.6162 138.681 85.5483 139.132C85.489 139.547 85.5356 139.908 85.6882 140.215C85.8493 140.522 86.1036 140.738 86.4511 140.865L87.659 141.298C88.2439 141.505 88.672 141.853 88.9432 142.34C89.2145 142.827 89.3035 143.4 89.2102 144.059C89.1339 144.6 88.9432 145.074 88.638 145.48C88.3414 145.886 87.9599 146.202 87.4937 146.428C87.036 146.653 86.5231 146.766 85.9552 146.766ZM90.9216 146.631L92.3965 136.75H93.5408L92.9051 140.973H95.8804L96.5161 136.75H97.6604L96.1855 146.631H95.0412L95.7151 142.083H92.7398L92.0659 146.631H90.9216ZM97.9989 146.631L101.89 136.75H103.428L104.356 146.631H103.237L103.021 144.005H100.211L99.2068 146.631H97.9989ZM100.593 142.976H102.932L102.665 139.931C102.623 139.353 102.589 138.87 102.564 138.482C102.547 138.094 102.538 137.842 102.538 137.724C102.504 137.842 102.419 138.094 102.284 138.482C102.157 138.87 101.983 139.349 101.762 139.917L100.593 142.976ZM106.157 146.631L107.632 136.75H110.505C111.056 136.75 111.518 136.872 111.891 137.115C112.273 137.35 112.544 137.679 112.705 138.103C112.875 138.528 112.917 139.024 112.832 139.592C112.764 140.08 112.612 140.517 112.375 140.905C112.146 141.293 111.849 141.614 111.484 141.866C111.128 142.119 110.726 142.29 110.277 142.381L110.416 141.772L111.917 146.631H110.62L109.412 142.435H107.924L107.301 146.631H106.157ZM108.09 141.338H109.819C110.294 141.338 110.696 141.18 111.027 140.865C111.366 140.54 111.574 140.116 111.65 139.592C111.735 139.06 111.654 138.636 111.408 138.32C111.171 138.004 110.815 137.846 110.34 137.846H108.611L108.09 141.338ZM113.882 146.631L115.357 136.75H120.698L120.532 137.86H116.324L115.866 140.919H119.63L119.464 142.015H115.701L115.179 145.521H119.388L119.223 146.631H113.882Z" fill="black"/>
</mask>
<g mask="url(#mask0_199_595)">
<path d="M37.3382 146.631L36.7403 146.529L36.6289 147.275H37.3382V146.631ZM38.8131 136.75V136.105H38.2964L38.2152 136.649L38.8131 136.75ZM40.2881 136.75L40.886 136.647L40.8039 136.105H40.2881V136.75ZM40.7712 139.944L41.3694 139.845L41.3691 139.842L40.7712 139.944ZM40.8857 140.811L40.285 140.89L40.2862 140.902L40.2881 140.913L40.8857 140.811ZM40.9747 141.46L40.3734 141.536L40.6462 144.003L41.5347 141.705L40.9747 141.46ZM41.229 140.811L41.7875 141.06L41.7887 141.056L41.7899 141.053L41.229 140.811ZM41.585 139.931L41.0367 139.657L41.0352 139.661L41.034 139.664L41.585 139.931ZM42.9836 136.75V136.105H42.5985L42.4354 136.477L42.9836 136.75ZM44.5094 136.75L45.1073 136.851L45.2187 136.105H44.5094V136.75ZM43.0345 146.631V147.275H43.5515L43.6324 146.732L43.0345 146.631ZM41.9156 146.631L41.3177 146.53L41.2066 147.275H41.9156V146.631ZM42.4496 143.044L41.8529 142.936L41.8523 142.939L41.8517 142.943L42.4496 143.044ZM42.6912 141.65L42.0993 141.515L42.0981 141.52L42.0972 141.526L42.6912 141.65ZM43.0217 140.12L43.61 140.274L43.6103 140.271L43.0217 140.12ZM43.3651 138.618L42.7799 138.453L42.7784 138.459L42.7771 138.464L43.3651 138.618ZM43.6829 137.359L44.2669 137.53L43.1371 137.08L43.6829 137.359ZM41.4578 142.299V142.944H41.839L42.004 142.578L41.4578 142.299ZM40.2499 142.299L39.6529 142.407L39.7386 142.944H40.2499V142.299ZM39.4616 137.359L40.0586 137.251L38.8564 137.343L39.4616 137.359ZM39.398 138.591L38.7944 138.541L38.7941 138.547L38.7938 138.553L39.398 138.591ZM39.2963 140.066L38.6933 140.011L38.6926 140.016L38.6923 140.021L39.2963 140.066ZM38.9911 143.044L38.3935 142.94L38.3932 142.943L38.9911 143.044ZM38.4571 146.631V147.275H38.9742L39.0553 146.731L38.4571 146.631ZM37.9361 146.732L39.411 136.851L38.2152 136.649L36.7403 146.529L37.9361 146.732ZM38.8131 137.394H40.2881V136.105H38.8131V137.394ZM39.6905 136.852L40.1736 140.047L41.3691 139.842L40.886 136.647L39.6905 136.852ZM40.173 140.044C40.2145 140.326 40.2517 140.608 40.285 140.89L41.4866 140.731C41.4518 140.435 41.4127 140.14 41.3694 139.845L40.173 140.044ZM40.2881 140.913C40.3298 141.19 40.358 141.396 40.3734 141.536L41.5762 141.385C41.5577 141.218 41.5262 140.991 41.4836 140.708L40.2881 140.913ZM41.5347 141.705C41.5931 141.554 41.6773 141.339 41.7875 141.06L40.6707 140.561C40.5602 140.841 40.4748 141.06 40.4149 141.215L41.5347 141.705ZM41.7899 141.053C41.8968 140.773 42.0124 140.488 42.1363 140.198L41.034 139.664C40.9035 139.969 40.7815 140.271 40.668 140.568L41.7899 141.053ZM42.1335 140.204L43.5322 137.023L42.4354 136.477L41.0367 139.657L42.1335 140.204ZM42.9836 137.394H44.5094V136.105H42.9836V137.394ZM43.9115 136.649L42.4366 146.529L43.6324 146.732L45.1073 136.851L43.9115 136.649ZM43.0345 145.986H41.9156V147.275H43.0345V145.986ZM42.5138 146.731L43.0478 143.145L41.8517 142.943L41.3177 146.53L42.5138 146.731ZM43.0466 143.152C43.1135 142.734 43.1928 142.275 43.2854 141.774L42.0972 141.526C42.003 142.035 41.9216 142.505 41.8529 142.936L43.0466 143.152ZM43.2833 141.785C43.3838 141.286 43.4925 140.782 43.61 140.274L42.4338 139.967C42.3137 140.487 42.2022 141.003 42.0993 141.515L43.2833 141.785ZM43.6103 140.271C43.7289 139.749 43.8431 139.249 43.9533 138.771L42.7771 138.464C42.6666 138.943 42.5522 139.445 42.4332 139.969L43.6103 140.271ZM43.9505 138.782C44.0689 138.306 44.1743 137.888 44.2669 137.53L43.0992 137.188C43.0054 137.552 42.8988 137.974 42.7799 138.453L43.9505 138.782ZM43.1371 137.08L40.912 142.021L42.004 142.578L44.2291 137.638L43.1371 137.08ZM41.4578 141.655H40.2499V142.944H41.4578V141.655ZM40.8469 142.191L40.0586 137.251L38.8646 137.467L39.6529 142.407L40.8469 142.191ZM38.8564 137.343C38.8483 137.681 38.8277 138.08 38.7944 138.541L40.0017 138.64C40.0362 138.163 40.058 137.741 40.0671 137.375L38.8564 137.343ZM38.7938 138.553C38.7686 139.006 38.735 139.492 38.6933 140.011L39.8996 140.122C39.9423 139.593 39.9768 139.095 40.0026 138.628L38.7938 138.553ZM38.6923 140.021C38.659 140.528 38.6173 141.035 38.567 141.542L39.7713 141.676C39.8231 141.155 39.866 140.633 39.9003 140.111L38.6923 140.021ZM38.567 141.542C38.5174 142.045 38.4592 142.511 38.3935 142.94L39.5887 143.148C39.6587 142.692 39.7195 142.201 39.7713 141.676L38.567 141.542ZM38.3932 142.943L37.8592 146.53L39.0553 146.731L39.5893 143.145L38.3932 142.943ZM38.4571 145.986H37.3382V147.275H38.4571V145.986ZM44.6317 146.631L44.0731 146.382L43.7214 147.275H44.6317V146.631ZM48.5224 136.75V136.105H48.1198L47.9639 136.501L48.5224 136.75ZM50.0609 136.75L50.6634 136.686L50.6089 136.105H50.0609V136.75ZM50.9891 146.631V147.275H51.6582L51.5916 146.566L50.9891 146.631ZM49.8702 146.631L49.2669 146.687L49.3153 147.275H49.8702V146.631ZM49.6541 144.005L50.2571 143.948L50.2087 143.36H49.6541V144.005ZM46.8441 144.005V143.36H46.4369L46.2834 143.762L46.8441 144.005ZM45.8396 146.631V147.275H46.2468L46.4003 146.874L45.8396 146.631ZM47.2255 142.976L46.6646 142.733L46.3252 143.621H47.2255V142.976ZM49.5651 142.976V143.621H50.2296L50.1678 142.916L49.5651 142.976ZM49.298 139.931L48.6944 139.981L48.6947 139.986L48.695 139.991L49.298 139.931ZM49.1963 138.482L48.5915 138.512L48.5918 138.52L48.5924 138.527L49.1963 138.482ZM49.1709 137.724H49.7764L48.5921 137.535L49.1709 137.724ZM48.9166 138.482L48.349 138.258L48.3468 138.264L48.3447 138.27L48.9166 138.482ZM48.3953 139.917L47.8355 139.671L47.8343 139.674L48.3953 139.917ZM45.1899 146.88L49.0807 136.999L47.9639 136.501L44.0731 146.382L45.1899 146.88ZM48.5224 137.394H50.0609V136.105H48.5224V137.394ZM49.4585 136.814L50.3867 146.695L51.5916 146.566L50.6634 136.686L49.4585 136.814ZM50.9891 145.986H49.8702V147.275H50.9891V145.986ZM50.4733 146.574L50.2571 143.948L49.0507 144.061L49.2669 146.687L50.4733 146.574ZM49.6541 143.36H46.8441V144.649H49.6541V143.36ZM46.2834 143.762L45.2789 146.388L46.4003 146.874L47.4047 144.248L46.2834 143.762ZM45.8396 145.986H44.6317V147.275H45.8396V145.986ZM47.2255 143.621H49.5651V142.332H47.2255V143.621ZM50.1678 142.916L49.9008 139.871L48.695 139.991L48.962 143.036L50.1678 142.916ZM49.9017 139.88C49.8593 139.304 49.8254 138.823 49.8003 138.438L48.5924 138.527C48.6178 138.918 48.652 139.403 48.6944 139.981L49.9017 139.88ZM49.8012 138.452C49.7839 138.061 49.7764 137.824 49.7764 137.724H48.5654C48.5654 137.86 48.5748 138.128 48.5915 138.512L49.8012 138.452ZM48.5921 137.535C48.5645 137.631 48.4861 137.865 48.349 138.258L49.4839 138.707C49.618 138.324 49.7095 138.053 49.7494 137.914L48.5921 137.535ZM48.3447 138.27C48.2227 138.643 48.0535 139.109 47.8355 139.671L48.955 140.163C49.1779 139.588 49.3562 139.098 49.4882 138.695L48.3447 138.27ZM47.8343 139.674L46.6646 142.733L47.7862 143.219L48.9559 140.16L47.8343 139.674ZM52.7895 146.631L52.1916 146.529L52.0805 147.275H52.7895V146.631ZM54.2644 136.75V136.105H53.7476L53.6665 136.649L54.2644 136.75ZM58.7019 137.115L58.3955 137.671L58.3997 137.674L58.404 137.676L58.7019 137.115ZM59.5283 138.117L58.9656 138.354L58.9674 138.36L58.9695 138.365L59.5283 138.117ZM59.6555 139.66L60.254 139.758L60.2543 139.757L59.6555 139.66ZM59.0706 141.203L58.5829 140.821L58.5814 140.823L59.0706 141.203ZM57.939 142.218L58.2018 142.799L58.206 142.797L58.2099 142.795L57.939 142.218ZM54.5441 142.57V141.926H54.028L53.9465 142.468L54.5441 142.57ZM53.9338 146.631V147.275H54.4503L54.5317 146.732L53.9338 146.631ZM54.6967 141.474L54.0991 141.372L53.9865 142.118H54.6967V141.474ZM57.8118 140.986L58.2114 141.471L58.2121 141.47L57.8118 140.986ZM58.473 139.66L59.0706 139.764L59.0709 139.762L58.473 139.66ZM55.2434 137.846V137.202H54.7276L54.6458 137.744L55.2434 137.846ZM53.3877 146.732L54.8626 136.851L53.6665 136.649L52.1916 146.529L53.3877 146.732ZM54.2644 137.394H57.2524V136.105H54.2644V137.394ZM57.2524 137.394C57.7504 137.394 58.1206 137.5 58.3955 137.671L59.0085 136.56C58.5033 136.244 57.9075 136.105 57.2524 136.105V137.394ZM58.404 137.676C58.6764 137.841 58.8566 138.062 58.9656 138.354L60.0914 137.88C59.878 137.306 59.5075 136.86 59.0001 136.554L58.404 137.676ZM58.9695 138.365C59.086 138.662 59.1296 139.052 59.057 139.563L60.2543 139.757C60.3509 139.077 60.31 138.438 60.0875 137.869L58.9695 138.365ZM59.0573 139.562C58.9861 140.054 58.8257 140.47 58.5829 140.821L59.5586 141.585C59.9261 141.052 60.1556 140.439 60.254 139.758L59.0573 139.562ZM58.5814 140.823C58.3428 141.172 58.041 141.443 57.6683 141.642L58.2099 142.795C58.7527 142.506 59.2053 142.101 59.5598 141.583L58.5814 140.823ZM57.6765 141.637C57.3111 141.825 56.8858 141.926 56.3878 141.926V143.215C57.0429 143.215 57.6517 143.081 58.2018 142.799L57.6765 141.637ZM56.3878 141.926H54.5441V143.215H56.3878V141.926ZM53.9465 142.468L53.3362 146.529L54.5317 146.732L55.142 142.672L53.9465 142.468ZM53.9338 145.986H52.7895V147.275H53.9338V145.986ZM54.6967 142.118H56.5404V140.829H54.6967V142.118ZM56.5404 142.118C57.1746 142.118 57.744 141.908 58.2114 141.471L57.4125 140.502C57.1849 140.715 56.9067 140.829 56.5404 140.829V142.118ZM58.2121 141.47C58.6843 141.027 58.9659 140.445 59.0706 139.764L57.8757 139.556C57.8109 139.976 57.6517 140.278 57.4116 140.503L58.2121 141.47ZM59.0709 139.762C59.1735 139.085 59.0851 138.433 58.684 137.921L57.7537 138.746C57.8612 138.883 57.9423 139.116 57.8754 139.558L59.0709 139.762ZM58.684 137.921C58.2859 137.412 57.7165 137.202 57.0871 137.202V138.491C57.4582 138.491 57.6432 138.605 57.7537 138.746L58.684 137.921ZM57.0871 137.202H55.2434V138.491H57.0871V137.202ZM54.6458 137.744L54.0991 141.372L55.2946 141.576L55.8413 137.948L54.6458 137.744ZM61.6087 142.705L61.0111 142.602L60.897 143.35H61.6087V142.705ZM61.774 141.623V140.978H61.2591L61.1764 141.519L61.774 141.623ZM65.8428 141.623L66.4404 141.726L66.5545 140.978H65.8428V141.623ZM65.6775 142.705V143.35H66.1924L66.2751 142.809L65.6775 142.705ZM62.2063 142.809L62.3716 141.726L61.1764 141.519L61.0111 142.602L62.2063 142.809ZM61.774 142.267H65.8428V140.978H61.774V142.267ZM65.2452 141.519L65.0799 142.602L66.2751 142.809L66.4404 141.726L65.2452 141.519ZM65.6775 142.061H61.6087V143.35H65.6775V142.061ZM69.2709 146.428L68.9664 146.985L68.9691 146.986L68.9718 146.988L69.2709 146.428ZM68.4953 145.453L67.9283 145.679L67.9298 145.683L68.4953 145.453ZM68.3936 143.924L67.7954 143.823L67.7951 143.826L68.3936 143.924ZM69.0548 139.457L68.4575 139.351L68.4569 139.354L68.4566 139.357L69.0548 139.457ZM70.6823 136.953L70.4198 136.372L70.4177 136.373L70.4156 136.374L70.6823 136.953ZM73.5558 136.953L73.2513 137.51L73.254 137.512L73.2567 137.513L73.5558 136.953ZM74.3442 137.928L73.7787 138.158L73.7805 138.163L73.7826 138.169L74.3442 137.928ZM74.4459 139.443L73.8489 139.336L73.8483 139.34L73.8477 139.344L74.4459 139.443ZM73.7847 143.924L73.1865 143.824L73.1862 143.826L73.7847 143.924ZM73.2253 145.453L72.7312 145.081L72.7297 145.083L73.2253 145.453ZM72.1445 146.428L71.882 145.847L71.8799 145.848L71.8778 145.849L72.1445 146.428ZM72.0428 145.223L72.4457 145.704L72.449 145.701L72.4524 145.698L72.0428 145.223ZM72.6404 143.924L73.238 144.026L73.2383 144.024L72.6404 143.924ZM73.3015 139.457L72.7036 139.355L72.7033 139.357L73.3015 139.457ZM73.0854 138.171L72.6043 138.563L72.6104 138.571L72.6168 138.579L73.0854 138.171ZM70.7967 138.171L71.1997 138.652L71.203 138.649L71.2063 138.646L70.7967 138.171ZM70.1991 139.457L69.6012 139.355L69.6009 139.357L70.1991 139.457ZM69.538 143.924L70.1355 144.026L70.1358 144.024L69.538 143.924ZM69.7414 145.223L69.2603 145.615L69.2664 145.623L69.2728 145.631L69.7414 145.223ZM70.6569 146.121C70.1816 146.121 69.8295 146.024 69.57 145.867L68.9718 146.988C69.4583 147.282 70.0302 147.411 70.6569 147.411V146.121ZM69.5752 145.87C69.3318 145.72 69.1644 145.511 69.0605 145.223L67.9298 145.683C68.1311 146.243 68.4811 146.684 68.9664 146.985L69.5752 145.87ZM69.062 145.227C68.9549 144.922 68.9186 144.529 68.9918 144.022L67.7951 143.826C67.6988 144.491 67.7303 145.118 67.9283 145.679L69.062 145.227ZM68.9915 144.024L69.6527 139.557L68.4566 139.357L67.7954 143.823L68.9915 144.024ZM69.6518 139.563C69.7326 139.047 69.89 138.631 70.1095 138.298L69.1187 137.557C68.779 138.072 68.5631 138.676 68.4575 139.351L69.6518 139.563ZM70.1095 138.298C70.3314 137.962 70.609 137.709 70.9487 137.532L70.4156 136.374C69.8906 136.648 69.4562 137.045 69.1187 137.557L70.1095 138.298ZM70.9445 137.534C71.2935 137.355 71.698 137.259 72.1699 137.259V135.97C71.5396 135.97 70.9523 136.1 70.4198 136.372L70.9445 137.534ZM72.1699 137.259C72.6561 137.259 73.0049 137.357 73.2513 137.51L73.8601 136.396C73.3778 136.097 72.8023 135.97 72.1699 135.97V137.259ZM73.2567 137.513C73.5083 137.666 73.6766 137.874 73.7787 138.158L74.9094 137.697C74.7065 137.132 74.349 136.692 73.8549 136.393L73.2567 137.513ZM73.7826 138.169C73.891 138.454 73.9288 138.832 73.8489 139.336L75.0429 139.551C75.1491 138.881 75.1192 138.249 74.9054 137.686L73.7826 138.169ZM73.8477 139.344L73.1865 143.824L74.3826 144.024L75.0438 139.543L73.8477 139.344ZM73.1862 143.826C73.1138 144.325 72.9588 144.738 72.7312 145.081L73.7193 145.826C74.0678 145.302 74.2857 144.695 74.3829 144.022L73.1862 143.826ZM72.7297 145.083C72.5096 145.416 72.2299 145.669 71.882 145.847L72.4067 147.009C72.9404 146.735 73.3812 146.338 73.7205 145.823L72.7297 145.083ZM71.8778 145.849C71.5408 146.025 71.1388 146.121 70.6569 146.121V147.411C71.2935 147.411 71.8832 147.282 72.4109 147.006L71.8778 145.849ZM70.8221 146.314C71.4409 146.314 72.0007 146.126 72.4457 145.704L71.6395 144.742C71.4573 144.915 71.2033 145.025 70.8221 145.025V146.314ZM72.4524 145.698C72.8889 145.27 73.1372 144.692 73.238 144.026L72.0425 143.821C71.9738 144.274 71.8236 144.562 71.6329 144.748L72.4524 145.698ZM73.2383 144.024L73.8994 139.557L72.7033 139.357L72.0422 143.823L73.2383 144.024ZM73.8991 139.559C73.9981 138.906 73.9361 138.26 73.554 137.763L72.6168 138.579C72.6924 138.678 72.7742 138.889 72.7036 139.355L73.8991 139.559ZM73.5661 137.78C73.192 137.259 72.6171 137.066 72.0046 137.066V138.355C72.3921 138.355 72.538 138.47 72.6043 138.563L73.5661 137.78ZM72.0046 137.066C71.3861 137.066 70.8294 137.264 70.3868 137.696L71.2063 138.646C71.391 138.465 71.6395 138.355 72.0046 138.355V137.066ZM70.3935 137.69C69.9509 138.11 69.702 138.688 69.6012 139.355L70.7967 139.559C70.8654 139.107 71.015 138.828 71.1997 138.652L70.3935 137.69ZM69.6009 139.357L68.9397 143.823L70.1358 144.024L70.797 139.557L69.6009 139.357ZM68.94 143.821C68.8414 144.473 68.8995 145.112 69.2603 145.615L70.2221 144.831C70.1422 144.72 70.0647 144.493 70.1355 144.026L68.94 143.821ZM69.2728 145.631C69.6542 146.128 70.2182 146.314 70.8221 146.314V145.025C70.4425 145.025 70.286 144.914 70.21 144.815L69.2728 145.631ZM76.8566 142.705L76.259 142.602L76.1448 143.35H76.8566V142.705ZM77.0218 141.623V140.978H76.5069L76.4242 141.519L77.0218 141.623ZM81.0906 141.623L81.6882 141.726L81.8023 140.978H81.0906V141.623ZM80.9253 142.705V143.35H81.4403L81.5229 142.809L80.9253 142.705ZM77.4541 142.809L77.6194 141.726L76.4242 141.519L76.259 142.602L77.4541 142.809ZM77.0218 142.267H81.0906V140.978H77.0218V142.267ZM80.493 141.519L80.3277 142.602L81.5229 142.809L81.6882 141.726L80.493 141.519ZM80.9253 142.061H76.8566V143.35H80.9253V142.061ZM83.9212 146.049L83.4889 146.5L83.491 146.502L83.4931 146.504L83.9212 146.049ZM83.4126 144.059V143.414H82.8858L82.8129 143.97L83.4126 144.059ZM84.5569 144.059L85.1545 144.163L85.2695 143.414H84.5569V144.059ZM84.8493 145.237L84.4213 145.692L84.4243 145.696L84.4279 145.699L84.8493 145.237ZM87.4305 145.25L87.0654 144.736L87.0623 144.738L87.0596 144.741L87.4305 145.25ZM88.0662 144.086L88.6638 144.19L88.6644 144.186L88.665 144.181L88.0662 144.086ZM87.9136 143.003L87.382 143.312L87.3854 143.318L87.389 143.325L87.9136 143.003ZM87.1762 142.381L86.9864 142.993L86.9891 142.994L87.1762 142.381ZM85.981 141.961L86.1705 141.349L86.1699 141.349L85.981 141.961ZM84.3789 139.24L83.7819 139.133L83.7804 139.142L83.7792 139.152L84.3789 139.24ZM84.9256 137.86L85.4058 138.252L85.4079 138.249L85.41 138.247L84.9256 137.86ZM86.0064 136.939L86.2601 137.525L86.2643 137.522L86.2686 137.52L86.0064 136.939ZM89.3377 137.332L88.8893 137.765L88.8933 137.77L88.8972 137.774L89.3377 137.332ZM89.8081 139.254V139.898H90.3316L90.4072 139.347L89.8081 139.254ZM88.6638 139.254L88.0665 139.148L87.949 139.898H88.6638V139.254ZM88.4222 138.117L87.9657 138.54L87.9724 138.549L87.9796 138.557L88.4222 138.117ZM85.5487 139.132L84.9508 139.03L84.9505 139.033L84.9502 139.035L85.5487 139.132ZM85.6885 140.215L85.1533 140.517L85.1566 140.523L85.1599 140.529L85.6885 140.215ZM86.4514 140.865L86.2559 141.475L86.258 141.475L86.4514 140.865ZM87.6593 141.298L87.4659 141.908L87.4677 141.909L87.6593 141.298ZM89.2105 144.059L88.6117 143.963V143.963L89.2105 144.059ZM88.6384 145.48L88.1655 145.078L88.1631 145.081L88.1604 145.084L88.6384 145.48ZM87.494 146.428L87.2434 145.841L87.2397 145.843L87.494 146.428ZM85.9555 146.121C85.14 146.121 84.6438 145.906 84.3492 145.593L83.4931 146.504C84.0968 147.147 84.9571 147.411 85.9555 147.411V146.121ZM84.3532 145.597C84.0671 145.287 83.9212 144.842 84.0123 144.148L82.8129 143.97C82.6836 144.954 82.8764 145.836 83.4889 146.5L84.3532 145.597ZM83.4126 144.703H84.5569V143.414H83.4126V144.703ZM83.9593 143.955C83.8597 144.603 83.9799 145.222 84.4213 145.692L85.2774 144.781C85.1763 144.673 85.1012 144.508 85.1545 144.163L83.9593 143.955ZM84.4279 145.699C84.8633 146.149 85.4672 146.314 86.1208 146.314V145.025C85.6386 145.025 85.3949 144.902 85.2707 144.774L84.4279 145.699ZM86.1208 146.314C86.7557 146.314 87.3324 146.146 87.8013 145.76L87.0596 144.741C86.8504 144.913 86.554 145.025 86.1208 145.025V146.314ZM87.7956 145.764C88.2781 145.376 88.5645 144.835 88.6638 144.19L87.4686 143.982C87.415 144.33 87.2779 144.565 87.0654 144.736L87.7956 145.764ZM88.665 144.181C88.7395 143.65 88.6829 143.134 88.4383 142.682L87.389 143.325C87.4662 143.468 87.5116 143.674 87.4674 143.991L88.665 144.181ZM88.4452 142.694C88.2094 142.235 87.8304 141.929 87.3633 141.768L86.9891 142.994C87.1998 143.066 87.3124 143.176 87.382 143.312L88.4452 142.694ZM87.3657 141.769L86.1705 141.349L85.7912 142.573L86.9864 142.993L87.3657 141.769ZM86.1699 141.349C85.6861 141.18 85.377 140.919 85.1854 140.592L84.1573 141.273C84.5251 141.902 85.0891 142.327 85.7918 142.573L86.1699 141.349ZM85.1854 140.592C84.9925 140.262 84.9099 139.855 84.9786 139.329L83.7792 139.152C83.6784 139.925 83.7907 140.646 84.1573 141.273L85.1854 140.592ZM84.9759 139.348C85.0458 138.909 85.1923 138.549 85.4058 138.252L84.4452 137.467C84.0995 137.947 83.8815 138.508 83.7819 139.133L84.9759 139.348ZM85.41 138.247C85.6268 137.938 85.9065 137.698 86.2601 137.525L85.7527 136.354C85.2244 136.614 84.7837 136.987 84.4413 137.473L85.41 138.247ZM86.2686 137.52C86.6179 137.342 87.0224 137.246 87.494 137.246V135.957C86.8637 135.957 86.2764 136.086 85.7439 136.358L86.2686 137.52ZM87.494 137.246C88.194 137.246 88.622 137.452 88.8893 137.765L89.786 136.899C89.2226 136.238 88.4216 135.957 87.494 135.957V137.246ZM88.8972 137.774C89.1645 138.076 89.2992 138.502 89.209 139.161L90.4072 139.347C90.5371 138.4 90.3585 137.545 89.7782 136.89L88.8972 137.774ZM89.8081 138.609H88.6638V139.898H89.8081V138.609ZM89.2611 139.36C89.3571 138.746 89.2708 138.14 88.8648 137.677L87.9796 138.557C88.0483 138.635 88.1231 138.787 88.0665 139.148L89.2611 139.36ZM88.8787 137.694C88.4919 137.221 87.9254 137.053 87.3287 137.053V138.342C87.732 138.342 87.8949 138.454 87.9657 138.54L88.8787 137.694ZM87.3287 137.053C86.7387 137.053 86.198 137.206 85.7554 137.562L86.4862 138.59C86.6706 138.442 86.9355 138.342 87.3287 138.342V137.053ZM85.7554 137.562C85.3053 137.925 85.0407 138.432 84.9508 139.03L86.1466 139.234C86.192 138.93 86.3088 138.733 86.4862 138.59L85.7554 137.562ZM84.9502 139.035C84.8754 139.558 84.9281 140.064 85.1533 140.517L86.2235 139.913C86.1435 139.753 86.1033 139.537 86.1472 139.229L84.9502 139.035ZM85.1599 140.529C85.4021 140.991 85.7839 141.303 86.2559 141.475L86.647 140.255C86.4239 140.173 86.2967 140.053 86.2171 139.9L85.1599 140.529ZM86.258 141.475L87.4659 141.908L87.8525 140.687L86.6446 140.254L86.258 141.475ZM87.4677 141.909C87.9378 142.076 88.2372 142.335 88.4225 142.669L89.4642 142.011C89.1073 141.37 88.5506 140.935 87.8507 140.686L87.4677 141.909ZM88.4225 142.669C88.6105 143.006 88.688 143.424 88.6117 143.963L89.809 144.155C89.9192 143.376 89.8187 142.648 89.4642 142.011L88.4225 142.669ZM88.6117 143.963C88.5503 144.399 88.4004 144.765 88.1655 145.078L89.1112 145.883C89.4866 145.383 89.7179 144.802 89.8093 144.155L88.6117 143.963ZM88.1604 145.084C87.9275 145.403 87.626 145.656 87.2434 145.841L87.7444 147.014C88.2945 146.748 88.7558 146.369 89.1164 145.876L88.1604 145.084ZM87.2397 145.843C86.871 146.024 86.4466 146.121 85.9555 146.121V147.411C86.6001 147.411 87.2013 147.282 87.7483 147.013L87.2397 145.843ZM90.9219 146.631L90.324 146.529L90.2126 147.275H90.9219V146.631ZM92.3968 136.75V136.105H91.88L91.7989 136.649L92.3968 136.75ZM93.5411 136.75L94.139 136.852L94.2514 136.105H93.5411V136.75ZM92.9054 140.973L92.3078 140.871L92.1952 141.617H92.9054V140.973ZM95.8807 140.973V141.617H96.3968L96.4786 141.075L95.8807 140.973ZM96.5164 136.75V136.105H96.0003L95.9188 136.648L96.5164 136.75ZM97.6608 136.75L98.259 136.851L98.3701 136.105H97.6608V136.75ZM96.1858 146.631V147.275H96.7029L96.784 146.732L96.1858 146.631ZM95.0415 146.631L94.4436 146.53L94.3331 147.275H95.0415V146.631ZM95.7154 142.083L96.3136 142.183L96.4241 141.438H95.7154V142.083ZM92.7401 142.083V141.438H92.2227L92.1422 141.982L92.7401 142.083ZM92.0662 146.631V147.275H92.5839L92.6644 146.731L92.0662 146.631ZM91.5201 146.732L92.995 136.851L91.7989 136.649L90.324 146.529L91.5201 146.732ZM92.3968 137.394H93.5411V136.105H92.3968V137.394ZM92.9436 136.648L92.3078 140.871L93.5033 141.075L94.139 136.852L92.9436 136.648ZM92.9054 141.617H95.8807V140.328H92.9054V141.617ZM96.4786 141.075L97.1143 136.852L95.9188 136.648L95.2831 140.871L96.4786 141.075ZM96.5164 137.394H97.6608V136.105H96.5164V137.394ZM97.0629 136.649L95.5879 146.529L96.784 146.732L98.259 136.851L97.0629 136.649ZM96.1858 145.986H95.0415V147.275H96.1858V145.986ZM95.6397 146.731L96.3136 142.183L95.1175 141.982L94.4436 146.53L95.6397 146.731ZM95.7154 141.438H92.7401V142.727H95.7154V141.438ZM92.1422 141.982L91.4683 146.53L92.6644 146.731L93.3383 142.183L92.1422 141.982ZM92.0662 145.986H90.9219V147.275H92.0662V145.986ZM97.9992 146.631L97.4407 146.382L97.0889 147.275H97.9992V146.631ZM101.89 136.75V136.105H101.487L101.331 136.501L101.89 136.75ZM103.428 136.75L104.031 136.686L103.976 136.105H103.428V136.75ZM104.357 146.631V147.275H105.026L104.959 146.566L104.357 146.631ZM103.238 146.631L102.635 146.687L102.683 147.275H103.238V146.631ZM103.022 144.005L103.625 143.948L103.576 143.36H103.022V144.005ZM100.212 144.005V143.36H99.8044L99.6509 143.762L100.212 144.005ZM99.2071 146.631V147.275H99.6143L99.7678 146.874L99.2071 146.631ZM100.593 142.976L100.032 142.733L99.6927 143.621H100.593V142.976ZM102.933 142.976V143.621H103.597L103.535 142.916L102.933 142.976ZM102.666 139.931L102.062 139.981L102.062 139.986L102.063 139.991L102.666 139.931ZM102.564 138.482L101.959 138.512L101.959 138.52L101.96 138.527L102.564 138.482ZM102.538 137.724H103.144L101.96 137.535L102.538 137.724ZM102.284 138.482L101.717 138.258L101.714 138.264L101.713 138.27L102.284 138.482ZM101.763 139.917L101.203 139.671L101.202 139.674L101.763 139.917ZM98.5575 146.88L102.448 136.999L101.331 136.501L97.4407 146.382L98.5575 146.88ZM101.89 137.394H103.428V136.105H101.89V137.394ZM102.826 136.814L103.754 146.695L104.959 146.566L104.031 136.686L102.826 136.814ZM104.357 145.986H103.238V147.275H104.357V145.986ZM103.841 146.574L103.625 143.948L102.419 144.061L102.635 146.687L103.841 146.574ZM103.022 143.36H100.212V144.649H103.022V143.36ZM99.6509 143.762L98.6465 146.388L99.7678 146.874L100.772 144.248L99.6509 143.762ZM99.2071 145.986H97.9992V147.275H99.2071V145.986ZM100.593 143.621H102.933V142.332H100.593V143.621ZM103.535 142.916L103.268 139.871L102.063 139.991L102.33 143.036L103.535 142.916ZM103.269 139.88C103.227 139.304 103.193 138.823 103.168 138.438L101.96 138.527C101.985 138.918 102.02 139.403 102.062 139.981L103.269 139.88ZM103.169 138.452C103.151 138.061 103.144 137.824 103.144 137.724H101.933C101.933 137.86 101.942 138.128 101.959 138.512L103.169 138.452ZM101.96 137.535C101.932 137.631 101.854 137.865 101.717 138.258L102.851 138.707C102.986 138.324 103.077 138.053 103.117 137.914L101.96 137.535ZM101.713 138.27C101.59 138.643 101.421 139.109 101.203 139.671L102.323 140.163C102.545 139.588 102.724 139.098 102.856 138.695L101.713 138.27ZM101.202 139.674L100.032 142.733L101.154 143.219L102.323 140.16L101.202 139.674ZM106.157 146.631L105.559 146.529L105.448 147.275H106.157V146.631ZM107.632 136.75V136.105H107.115L107.034 136.649L107.632 136.75ZM111.892 137.115L111.575 137.665L111.582 137.669L111.589 137.674L111.892 137.115ZM112.705 138.103L112.144 138.345L112.146 138.35L112.148 138.356L112.705 138.103ZM112.833 139.592L112.234 139.491L112.234 139.495L112.233 139.498L112.833 139.592ZM112.375 140.905L111.867 140.554L111.865 140.558L111.862 140.562L112.375 140.905ZM111.485 141.866L111.154 141.326L111.152 141.328L111.149 141.33L111.485 141.866ZM110.277 142.381L109.689 142.228L109.466 143.199L110.389 143.014L110.277 142.381ZM110.417 141.772L110.992 141.57L110.331 139.43L109.829 141.618L110.417 141.772ZM111.917 146.631V147.275H112.753L112.492 146.429L111.917 146.631ZM110.62 146.631L110.041 146.819L110.172 147.275H110.62V146.631ZM109.412 142.435L109.991 142.246L109.86 141.79H109.412V142.435ZM107.925 142.435V141.79H107.407L107.326 142.334L107.925 142.435ZM107.302 146.631V147.275H107.819L107.9 146.731L107.302 146.631ZM108.09 141.338L107.492 141.237L107.381 141.983H108.09V141.338ZM111.027 140.865L111.431 141.344L111.432 141.344L111.027 140.865ZM111.65 139.592L111.053 139.485L111.052 139.489L111.052 139.493L111.65 139.592ZM111.409 138.32L110.936 138.723L110.939 138.727L110.942 138.731L111.409 138.32ZM108.611 137.846V137.202H108.094L108.013 137.745L108.611 137.846ZM106.755 146.732L108.23 136.851L107.034 136.649L105.559 146.529L106.755 146.732ZM107.632 137.394H110.506V136.105H107.632V137.394ZM110.506 137.394C110.974 137.394 111.319 137.498 111.575 137.665L112.208 136.566C111.718 136.246 111.14 136.105 110.506 136.105V137.394ZM111.589 137.674C111.856 137.838 112.035 138.058 112.144 138.345L113.267 137.862C113.054 137.301 112.69 136.862 112.194 136.557L111.589 137.674ZM112.148 138.356C112.263 138.644 112.306 139.013 112.234 139.491L113.43 139.694C113.529 139.035 113.487 138.411 113.262 137.851L112.148 138.356ZM112.233 139.498C112.178 139.899 112.054 140.248 111.867 140.554L112.882 141.257C113.17 140.786 113.352 140.26 113.431 139.687L112.233 139.498ZM111.862 140.562C111.68 140.87 111.446 141.124 111.154 141.326L111.815 142.406C112.252 142.103 112.612 141.716 112.887 141.248L111.862 140.562ZM111.149 141.33C110.865 141.531 110.539 141.672 110.165 141.747L110.389 143.014C110.913 142.909 111.392 142.706 111.821 142.403L111.149 141.33ZM110.865 142.534L111.005 141.925L109.829 141.618L109.689 142.228L110.865 142.534ZM109.842 141.973L111.342 146.832L112.492 146.429L110.992 141.57L109.842 141.973ZM111.917 145.986H110.62V147.275H111.917V145.986ZM111.199 146.442L109.991 142.246L108.833 142.624L110.041 146.819L111.199 146.442ZM109.412 141.79H107.925V143.079H109.412V141.79ZM107.326 142.334L106.703 146.53L107.9 146.731L108.523 142.535L107.326 142.334ZM107.302 145.986H106.157V147.275H107.302V145.986ZM108.09 141.983H109.819V140.694H108.09V141.983ZM109.819 141.983C110.432 141.983 110.982 141.774 111.431 141.344L110.623 140.385C110.411 140.587 110.156 140.694 109.819 140.694V141.983ZM111.432 141.344C111.884 140.91 112.153 140.347 112.248 139.691L111.052 139.493C110.995 139.884 110.848 140.169 110.622 140.385L111.432 141.344ZM112.247 139.7C112.351 139.045 112.266 138.412 111.875 137.909L110.942 138.731C111.043 138.86 111.118 139.075 111.053 139.485L112.247 139.7ZM111.881 137.918C111.501 137.411 110.949 137.202 110.34 137.202V138.491C110.681 138.491 110.841 138.597 110.936 138.723L111.881 137.918ZM110.34 137.202H108.611V138.491H110.34V137.202ZM108.013 137.745L107.492 141.237L108.688 141.44L109.209 137.948L108.013 137.745ZM113.883 146.631L113.285 146.529L113.173 147.275H113.883V146.631ZM115.358 136.75V136.105H114.841L114.76 136.649L115.358 136.75ZM120.698 136.75L121.296 136.851L121.407 136.105H120.698V136.75ZM120.533 137.86V138.504H121.05L121.131 137.961L120.533 137.86ZM116.324 137.86V137.215H115.808L115.726 137.758L116.324 137.86ZM115.866 140.919L115.268 140.817L115.157 141.563H115.866V140.919ZM119.63 140.919L120.228 141.021L120.34 140.274H119.63V140.919ZM119.465 142.015V142.66H119.981L120.062 142.117L119.465 142.015ZM115.701 142.015V141.371H115.184L115.103 141.914L115.701 142.015ZM115.18 145.521L114.582 145.42L114.471 146.165H115.18V145.521ZM119.388 145.521L119.987 145.622L120.097 144.876H119.388V145.521ZM119.223 146.631V147.275H119.74L119.821 146.731L119.223 146.631ZM114.481 146.732L115.956 136.851L114.76 136.649L113.285 146.529L114.481 146.732ZM115.358 137.394H120.698V136.105H115.358V137.394ZM120.1 136.649L119.935 137.759L121.131 137.961L121.296 136.851L120.1 136.649ZM120.533 137.215H116.324V138.504H120.533V137.215ZM115.726 137.758L115.268 140.817L116.464 141.02L116.922 137.961L115.726 137.758ZM115.866 141.563H119.63V140.274H115.866V141.563ZM119.032 140.817L118.867 141.913L120.062 142.117L120.228 141.021L119.032 140.817ZM119.465 141.371H115.701V142.66H119.465V141.371ZM115.103 141.914L114.582 145.42L115.778 145.622L116.299 142.116L115.103 141.914ZM115.18 146.165H119.388V144.876H115.18V146.165ZM118.79 145.42L118.625 146.53L119.821 146.731L119.987 145.622L118.79 145.42ZM119.223 145.986H113.883V147.275H119.223V145.986Z" fill="#1E65F1"/>
</g>
</g>
</g>
<defs>
<filter id="filter0_d_199_595" x="19.8496" y="21.6489" width="111.359" height="84.9653" filterUnits="userSpaceOnUse" color-interpolation-filters="sRGB">
<feFlood flood-opacity="0" result="BackgroundImageFix"/>
<feColorMatrix in="SourceAlpha" type="matrix" values="0 0 0 0 0 0 0 0 0 0 0 0 0 0 0 0 0 0 127 0" result="hardAlpha"/>
<feOffset dy="4"/>
<feGaussianBlur stdDeviation="2"/>
<feComposite in2="hardAlpha" operator="out"/>
<feColorMatrix type="matrix" values="0 0 0 0 0 0 0 0 0 0 0 0 0 0 0 0 0 0 0.25 0"/>
<feBlend mode="normal" in2="BackgroundImageFix" result="effect1_dropShadow_199_595"/>
<feBlend mode="normal" in="SourceGraphic" in2="effect1_dropShadow_199_595" result="shape"/>
</filter>
<filter id="filter1_d_199_595" x="79.3203" y="100.892" width="28.418" height="26.9604" filterUnits="userSpaceOnUse" color-interpolation-filters="sRGB">
<feFlood flood-opacity="0" result="BackgroundImageFix"/>
<feColorMatrix in="SourceAlpha" type="matrix" values="0 0 0 0 0 0 0 0 0 0 0 0 0 0 0 0 0 0 127 0" result="hardAlpha"/>
<feOffset dy="4"/>
<feGaussianBlur stdDeviation="2"/>
<feComposite in2="hardAlpha" operator="out"/>
<feColorMatrix type="matrix" values="0 0 0 0 0.509804 0 0 0 0 0.666667 0 0 0 0 1 0 0 0 1 0"/>
<feBlend mode="normal" in2="BackgroundImageFix" result="effect1_dropShadow_199_595"/>
<feBlend mode="normal" in="SourceGraphic" in2="effect1_dropShadow_199_595" result="shape"/>
</filter>
<filter id="filter2_d_199_595" x="16.6289" y="90.9565" width="182.777" height="109.454" filterUnits="userSpaceOnUse" color-interpolation-filters="sRGB">
<feFlood flood-opacity="0" result="BackgroundImageFix"/>
<feColorMatrix in="SourceAlpha" type="matrix" values="0 0 0 0 0 0 0 0 0 0 0 0 0 0 0 0 0 0 127 0" result="hardAlpha"/>
<feOffset dx="29" dy="4"/>
<feGaussianBlur stdDeviation="24.5"/>
<feComposite in2="hardAlpha" operator="out"/>
<feColorMatrix type="matrix" values="0 0 0 0 0.005 0 0 0 0 0.0375 0 0 0 0 0.00778572 0 0 0 1 0"/>
<feBlend mode="normal" in2="BackgroundImageFix" result="effect1_dropShadow_199_595"/>
<feBlend mode="normal" in="SourceGraphic" in2="effect1_dropShadow_199_595" result="shape"/>
</filter>
<clipPath id="clip0_199_595">
<rect width="155" height="165" rx="77.5" fill="white"/>
</clipPath>
</defs>
</svg>
