<svg width="219" height="314" viewBox="0 0 219 314" fill="none" xmlns="http://www.w3.org/2000/svg">
<path d="M132.209 298H13.7906C6.29569 298 1.90604e-06 290.638 1.90604e-06 281.873V23.84C1.90604e-06 10.5176 9.29363 -3.05689e-05 20.386 -3.05689e-05H125.614C137.006 -3.05689e-05 146 10.8682 146 23.84V281.522C146 290.638 139.704 298 132.209 298Z" fill="#82AAFF"/>
<path d="M130.301 134.5H19.301V48.05C19.301 41.05 24.101 35.1 30.401 35.1H119.501C125.501 35.1 130.601 40.7 130.601 48.05V134.5H130.301Z" fill="#E0E0E0"/>
<path d="M183.8 16V32.1C197.9 32.1 204.8 42.6 204.8 64.65V290.05C204.8 293.9 202.1 297.05 198.8 297.05C195.5 297.05 192.8 293.9 192.8 290.05V168.95C192.8 153.2 182 140.6 168.5 140.6H146V156.7H168.5C174.2 156.7 179 162.3 179 168.95V290.4C179 303.35 188 313.5 198.8 313.5C209.6 313.5 218.6 303 218.6 290.4V64.65C218.9 20.9 194.3 16 183.8 16Z" fill="#666666"/>
</svg>
