<svg width="105" height="109" viewBox="0 0 105 109" fill="none" xmlns="http://www.w3.org/2000/svg">
<path d="M54.5914 0C56.4333 1.04374 58.1207 2.15687 59.7601 3.39101C60.1686 3.69626 60.5775 4.00124 60.9866 4.30596C61.2 4.46501 61.4134 4.62406 61.6333 4.78793C62.378 5.33321 63.1371 5.86412 63.8979 6.39536C65.7962 7.73572 67.6013 9.14372 69.4003 10.5656C69.952 11.0014 70.5056 11.4358 71.0594 11.8701C72.9248 13.3378 74.7313 14.8283 76.4428 16.4092C76.9179 16.818 77.3939 17.2262 77.8715 17.6333C79.5669 19.1146 81.1202 20.6712 82.6643 22.2503C83.1786 22.7736 83.6986 23.2932 84.2194 23.8125C87.0115 26.6156 89.5103 29.5336 91.9068 32.5537C92.0526 32.7348 92.1984 32.9159 92.3487 33.1025C94.2786 35.5111 95.9313 38.0252 97.5247 40.5796C97.7425 40.9287 97.9614 41.2774 98.1815 41.6255C98.4908 42.1168 98.7945 42.61 99.0965 43.1041C99.274 43.3914 99.4515 43.6788 99.6345 43.9749C99.975 44.7282 99.975 44.7282 99.928 45.3374C99.6388 45.7869 99.6388 45.7869 98.5804 46.1332C98.1084 46.2375 97.6346 46.3368 97.1595 46.432C96.7754 46.515 96.7754 46.515 96.3836 46.5996C95.5653 46.775 94.7451 46.9434 93.9238 47.1102C93.4143 47.2146 92.9048 47.319 92.3953 47.4235C91.6184 47.5827 90.8414 47.7418 90.0642 47.9C86.6124 48.6106 83.211 49.4532 79.8045 50.2862C79.3134 50.4052 78.8223 50.5241 78.3311 50.6429C75.9495 51.221 73.5777 51.8217 71.211 52.4366C70.9628 52.5006 70.7146 52.5646 70.4588 52.6305C69.3327 52.9256 68.2483 53.2401 67.1559 53.609C66.0665 53.9763 64.9935 54.258 63.8572 54.5208C62.1926 54.9067 60.581 55.3566 58.9617 55.8441C58.5215 55.9737 58.0811 56.1029 57.6406 56.2318C54.6664 57.105 51.7078 57.9975 48.7819 58.9674C48.5245 59.0522 48.267 59.137 48.0018 59.2244C47.4858 59.3945 46.9704 59.5659 46.4557 59.7386C44.6191 60.3434 44.6191 60.3434 43.4977 60.3434C43.4928 60.1154 43.4879 59.8873 43.4828 59.6524C43.4621 58.7955 43.4372 57.9387 43.4094 57.082C43.3983 56.7132 43.3889 56.3444 43.3812 55.9755C43.4197 52.8847 43.4197 52.8847 42.153 50.0215C41.8596 49.9011 41.5662 49.7807 41.2639 49.6566C40.4721 49.2275 40.4721 49.2275 40.3166 48.6425C40.2546 47.8704 40.2378 47.1064 40.241 46.3328C40.2354 45.8065 40.2272 45.2803 40.216 44.7541C40.2162 44.5208 40.2163 44.2874 40.2164 44.047C40.1286 43.3467 39.9488 42.9348 39.4636 42.3463C38.4255 41.8014 38.1869 41.7488 37.0094 41.7358C36.7187 41.7316 36.4281 41.7274 36.1287 41.723C35.8156 41.7216 35.5025 41.7202 35.18 41.7187C34.8571 41.7163 34.5342 41.7139 34.2015 41.7115C33.5182 41.7076 32.8349 41.7053 32.1516 41.7043C31.1074 41.7012 30.0639 41.6882 29.0198 41.6748C28.3558 41.6723 27.6918 41.6704 27.0277 41.6691C26.5602 41.6613 26.5602 41.6613 26.0831 41.6534C24.5398 41.6619 23.8821 41.6815 22.6337 42.4548C21.5116 43.636 21.5893 44.5807 21.5773 46.0134C21.574 46.2562 21.5706 46.4989 21.5672 46.749C21.5566 47.5538 21.5482 48.3586 21.5399 49.1634C21.533 49.7205 21.526 50.2775 21.5188 50.8345C21.5002 52.3025 21.4836 53.7706 21.4674 55.2386C21.4505 56.7359 21.4318 58.2331 21.4132 59.7304C21.377 62.6696 21.3429 65.6088 21.3101 68.548C20.768 68.7609 20.768 68.7609 20.215 68.9781C19.7318 69.168 19.2487 69.3579 18.7655 69.5479C18.5284 69.641 18.2912 69.7341 18.0469 69.83C15.8443 70.6962 13.6588 71.5867 11.477 72.4849C10.7539 72.782 10.0308 73.0791 9.30765 73.3761C8.99683 73.504 8.68601 73.6319 8.36577 73.7636C7.64103 74.0594 6.9136 74.3498 6.18227 74.6353C1.28094 64.1328 5.39407 51.6594 11.0431 41.9305C15.6744 34.1381 21.6573 26.9493 28.706 20.3791C28.8767 20.2189 29.0473 20.0587 29.2232 19.8936C29.7283 19.4201 30.2355 18.9481 30.744 18.4769C30.8858 18.3452 31.0276 18.2136 31.1736 18.0779C34.4519 15.075 37.9669 12.2512 41.5269 9.45696C42.242 8.89541 42.9553 8.33244 43.6684 7.76934C44.1314 7.405 44.5945 7.04074 45.0577 6.67657C45.2665 6.51167 45.4753 6.34677 45.6904 6.17687C47.8756 4.4655 50.2187 2.90262 52.5744 1.33986C52.7707 1.20937 52.967 1.07887 53.1692 0.944417C53.6431 0.629443 54.1172 0.314696 54.5914 0Z" fill="#010101"/>
<g filter="url(#filter0_d_73_2243)">
<path d="M54.5914 0C56.4333 1.04374 58.1207 2.15687 59.7601 3.39101C60.1686 3.69626 60.5775 4.00124 60.9866 4.30596C61.2 4.46501 61.4134 4.62406 61.6333 4.78793C62.378 5.33321 63.1371 5.86412 63.8979 6.39536C65.7963 7.73572 67.6013 9.14372 69.4003 10.5656C69.952 11.0014 70.5056 11.4358 71.0594 11.8701C72.9248 13.3378 74.7313 14.8283 76.4428 16.4092C76.9179 16.818 77.3939 17.2262 77.8715 17.6333C79.5669 19.1146 81.1202 20.6712 82.6643 22.2503C83.1786 22.7736 83.6986 23.2932 84.2194 23.8125C87.0115 26.6156 89.5103 29.5336 91.9068 32.5537C92.0526 32.7348 92.1985 32.9159 92.3487 33.1025C94.2786 35.5111 95.9313 38.0252 97.5247 40.5796C97.7425 40.9287 97.9614 41.2774 98.1815 41.6255C98.4909 42.1168 98.7945 42.61 99.0965 43.1041C99.274 43.3914 99.4516 43.6788 99.6345 43.9749C99.975 44.7282 99.975 44.7282 99.928 45.3374C99.6388 45.7869 99.6388 45.7869 98.5804 46.1332C98.1084 46.2375 97.6346 46.3368 97.1595 46.432C96.7755 46.515 96.7755 46.515 96.3836 46.5996C95.5653 46.775 94.7451 46.9434 93.9239 47.1102C93.4143 47.2146 92.9048 47.319 92.3953 47.4235C91.6184 47.5827 90.8414 47.7418 90.0642 47.9C86.6124 48.6106 83.211 49.4532 79.8045 50.2862C79.3134 50.4052 78.8223 50.5241 78.3311 50.6429C75.9495 51.221 73.5777 51.8217 71.2111 52.4366C70.9628 52.5006 70.7146 52.5646 70.4588 52.6305C69.3327 52.9256 68.2483 53.2401 67.1559 53.609C66.0665 53.9763 64.9935 54.258 63.8572 54.5208C62.1927 54.9067 60.581 55.3566 58.9617 55.8441C58.5215 55.9737 58.0811 56.1029 57.6406 56.2318C54.6664 57.105 51.7078 57.9975 48.7819 58.9674C48.5245 59.0522 48.267 59.137 48.0018 59.2244C47.4858 59.3945 46.9704 59.5659 46.4557 59.7386C44.6191 60.3434 44.6191 60.3434 43.4977 60.3434C43.4928 60.1154 43.4879 59.8873 43.4828 59.6524C43.4621 58.7955 43.4372 57.9387 43.4094 57.082C43.3983 56.7132 43.3889 56.3444 43.3812 55.9755C43.4197 52.8847 43.4197 52.8847 42.153 50.0215C41.8596 49.9011 41.5662 49.7807 41.2639 49.6566C40.4721 49.2275 40.4721 49.2275 40.3166 48.6425C40.2546 47.8704 40.2378 47.1064 40.241 46.3328C40.2354 45.8065 40.2272 45.2803 40.216 44.7541C40.2162 44.5208 40.2163 44.2874 40.2164 44.047C40.1286 43.3467 39.9488 42.9348 39.4636 42.3463C38.4255 41.8014 38.1869 41.7488 37.0094 41.7358C36.7188 41.7316 36.4281 41.7274 36.1287 41.723C35.8156 41.7216 35.5025 41.7202 35.18 41.7187C34.8571 41.7163 34.5342 41.7139 34.2015 41.7115C33.5182 41.7076 32.8349 41.7053 32.1516 41.7043C31.1074 41.7012 30.0639 41.6882 29.0198 41.6748C28.3558 41.6723 27.6918 41.6704 27.0277 41.6691C26.5602 41.6613 26.5602 41.6613 26.0832 41.6534C24.5398 41.6619 23.8821 41.6815 22.6337 42.4548C21.5116 43.636 21.5893 44.5807 21.5773 46.0134C21.574 46.2562 21.5706 46.4989 21.5672 46.749C21.5566 47.5538 21.5482 48.3586 21.5399 49.1634C21.533 49.7205 21.526 50.2775 21.5188 50.8345C21.5002 52.3025 21.4836 53.7706 21.4674 55.2386C21.4505 56.7359 21.4318 58.2331 21.4132 59.7304C21.377 62.6696 21.3429 65.6088 21.3101 68.548C20.768 68.7609 20.768 68.7609 20.215 68.9781C19.7318 69.168 19.2487 69.3579 18.7655 69.5479C18.5284 69.641 18.2912 69.7341 18.0469 69.83C15.8443 70.6962 13.6588 71.5867 11.477 72.4849C10.7539 72.782 10.0308 73.0791 9.30765 73.3761C8.99683 73.504 8.68601 73.6319 8.36577 73.7636C7.64103 74.0594 6.9136 74.3498 6.18227 74.6353C1.28094 64.1328 5.39407 51.6594 11.0431 41.9305C15.6744 34.1381 21.6573 26.9493 28.706 20.3791C28.8767 20.2189 29.0473 20.0587 29.2232 19.8936C29.7283 19.4201 30.2355 18.9481 30.744 18.4769C30.8858 18.3452 31.0276 18.2136 31.1736 18.0779C34.4519 15.075 37.9669 12.2512 41.5269 9.45696C42.242 8.89541 42.9553 8.33244 43.6684 7.76934C44.1314 7.405 44.5945 7.04074 45.0577 6.67657C45.2665 6.51167 45.4753 6.34677 45.6904 6.17687C47.8756 4.4655 50.2187 2.90262 52.5744 1.33986C52.7707 1.20937 52.967 1.07887 53.1692 0.944417C53.6431 0.629443 54.1172 0.314696 54.5914 0Z" fill="#82AAFF"/>
<path d="M76.4428 16.4092C74.7313 14.8283 72.9248 13.3378 71.0594 11.8701C70.5056 11.4358 69.952 11.0014 69.4003 10.5656C67.6013 9.14372 65.7963 7.73572 63.8979 6.39536L61.5908 9.66293C61.5936 9.66492 61.5964 9.66691 61.5992 9.6689M76.4428 16.4092L31.9608 22.81C32.4582 22.3437 32.9589 21.8778 33.4628 21.4109L33.466 21.4079L33.8854 21.0184C37.0421 18.1276 40.453 15.3849 43.9966 12.6035L43.9973 12.6029C44.7164 12.0382 45.4327 11.4729 46.1451 10.9104C46.6066 10.5472 47.0682 10.1841 47.5299 9.82117L47.537 9.81553L48.1567 9.32606C48.1588 9.32441 48.1609 9.32276 48.163 9.32111C50.1781 7.74349 52.3608 6.28203 54.6951 4.73312C55.6078 5.31962 56.4874 5.93406 57.3544 6.58672L57.3601 6.591L57.3658 6.59526C57.7757 6.90154 58.1858 7.2075 58.5962 7.51316C58.5966 7.51345 58.597 7.51374 58.5974 7.51403L59.2429 7.99513L59.2565 8.00524L59.2701 8.01524C60.0533 8.58871 60.8447 9.1421 61.5992 9.6689M76.4428 16.4092C76.9179 16.818 77.3939 17.2262 77.8715 17.6333L76.4428 16.4092ZM61.5992 9.6689C63.3996 10.9405 65.1296 12.2887 66.92 13.7038L66.9209 13.7045C67.4782 14.1447 68.0362 14.5825 68.5894 15.0164C70.4093 16.4484 72.125 17.8662 73.7287 19.3475L73.7803 19.3952L73.8336 19.441C74.3062 19.8477 74.7808 20.2546 75.2577 20.6612C76.8205 22.028 78.2763 23.4842 79.8044 25.0469L79.8112 25.0538C80.3395 25.5915 80.8707 26.1221 81.3904 26.6403C84.0431 29.304 86.4394 32.0986 88.7734 35.0401L88.7822 35.0512L88.7911 35.0622L89.2272 35.6038C89.2282 35.605 89.2291 35.6062 89.2301 35.6074C91.0118 37.8314 92.5662 40.1883 94.1308 42.6966L94.1311 42.697C94.1842 42.7821 94.2373 42.8672 94.2906 42.9522C93.9054 43.0319 93.5181 43.111 93.1277 43.1902L93.1211 43.1916L91.5924 43.5049C91.5922 43.5049 91.5921 43.505 91.592 43.505C90.815 43.6642 90.0406 43.8228 89.2664 43.9804L89.2577 43.9822C85.9703 44.6589 82.7332 45.4513 79.5783 46.2235C79.3377 46.2824 79.0975 46.3412 78.8579 46.3998C78.3689 46.5183 77.8799 46.6367 77.3909 46.7549L77.3876 46.7557C74.9818 47.3397 72.59 47.9456 70.2092 48.5641C70.2079 48.5644 70.2066 48.5648 70.2052 48.5651L69.4603 48.7571L69.4527 48.7591L69.445 48.7611C68.2537 49.0732 67.0779 49.4135 65.878 49.8186L61.5992 9.6689ZM57.821 52.0102C59.4858 51.5092 61.1818 51.035 62.9538 50.6242L62.9559 50.6237C64.0197 50.3777 64.9553 50.1296 65.8763 49.8192L57.821 52.0102ZM57.821 52.0102C57.3866 52.1381 56.952 52.2656 56.5174 52.3928L56.5138 52.3938C53.5255 53.2712 50.5165 54.1784 47.5264 55.1695C47.5253 55.1699 47.5243 55.1702 47.5233 55.1706L47.391 55.2141C47.401 54.1406 47.3833 53.1192 47.1741 52.105C46.9315 50.9292 46.4464 49.8357 45.9242 48.6588C45.8866 48.574 45.8489 48.4888 45.811 48.4032L45.1601 46.9321L44.2406 46.5546C44.2406 46.4867 44.2407 46.4182 44.2409 46.349L44.2411 46.3197L44.2407 46.2903C44.2352 45.7653 44.227 45.2396 44.216 44.7132L44.2164 44.0493L44.2166 43.7983L44.1853 43.5493C44.1104 42.9517 43.9696 42.2671 43.6483 41.5393C43.3326 40.824 42.9268 40.2588 42.5498 39.8016L42.0367 39.1793L41.3225 38.8045C40.806 38.5334 40.1032 38.1689 39.2451 37.9576C38.4059 37.751 37.6204 37.7423 37.0632 37.7362L37.0535 37.7361L36.1869 37.7234L36.1668 37.7232L36.1468 37.7231L35.2096 37.7188L35.1981 37.7188L34.2311 37.7116L34.224 37.7115C33.5357 37.7077 32.8476 37.7053 32.1598 37.7043M57.821 52.0102L32.1598 37.7043M32.1598 37.7043C32.1611 37.7043 32.1624 37.7043 32.1637 37.7043L32.1516 41.7037L32.1573 37.7043C32.1581 37.7043 32.159 37.7043 32.1598 37.7043ZM27.0648 37.6692L26.1495 37.654L26.1053 37.6533L26.0612 37.6535C26.0298 37.6537 25.9979 37.6538 25.9655 37.654C25.2899 37.6573 24.3804 37.6617 23.4639 37.8449C22.3594 38.0656 21.4356 38.4917 20.5273 39.0543L20.0888 39.3259L19.7335 39.6999C18.7122 40.7751 18.0713 41.952 17.7804 43.2903C17.5752 44.2348 17.5768 45.2327 17.5777 45.7782C17.5778 45.8506 17.5779 45.915 17.5775 45.9703L17.5777 45.9586L21.5773 46.0134M27.0648 37.6692L17.4676 55.1936C17.4838 53.7253 17.5005 52.255 17.5191 50.7839L17.5191 50.7828C17.5263 50.2279 17.5333 49.6729 17.5402 49.118M27.0648 37.6692L27.0941 37.6696L27.0277 41.669L27.0354 37.6691C27.0452 37.6691 27.055 37.6691 27.0648 37.6692ZM21.5773 46.0134L17.5774 45.9799L17.5676 46.6942L17.5675 46.6961C17.5568 47.5063 17.5485 48.3155 17.5402 49.118M21.5773 46.0134C21.5781 45.9158 21.5785 45.8204 21.5789 45.727C21.5843 44.4508 21.588 43.5555 22.6337 42.4548L21.5672 46.749M21.5773 46.0134L21.5672 46.749M17.5402 49.118C17.5402 49.1166 17.5402 49.1152 17.5402 49.1138L21.5399 49.1634M17.5402 49.118C17.5402 49.1194 17.5402 49.1208 17.5402 49.1222L21.5399 49.1634M21.5399 49.1634C21.5482 48.3586 21.5566 47.5538 21.5672 46.749M21.5399 49.1634C21.533 49.7205 21.526 50.2775 21.5188 50.8345L21.5672 46.749M31.4436 23.2956L31.959 22.8118L17.4676 55.1945C17.4521 56.5743 17.435 57.9543 17.4178 59.337L17.4135 59.6807L17.4135 59.6811C17.3884 61.7242 17.3642 63.7672 17.3408 65.81L17.3037 65.8246L17.3021 65.8252L16.5851 66.1067L16.5831 66.1075C14.3515 66.985 12.1436 67.8848 9.95427 68.7861L8.56573 69.3565C6.69077 61.4328 9.72537 52.1717 14.4921 43.9565C18.9012 36.5423 24.6267 29.6498 31.4334 23.3051L31.4334 23.3052L31.4436 23.2956Z" stroke="#82AAFF" stroke-width="8"/>
</g>
<path d="M105 63.0118C104.764 74.1575 100.119 84.2091 90.208 92.2845C89.9753 92.4868 89.7426 92.6891 89.5028 92.8975C81.3378 99.7714 68.5621 103.541 56.7998 103.98C46.4001 104.23 35.4979 102.18 27.0056 97.2952C28.5599 95.9454 30.4179 94.9753 32.3215 93.9492C32.6679 93.7615 33.0142 93.5738 33.3711 93.3804C35.9154 92.0093 38.4971 90.7027 41.1317 89.4421C41.835 89.1018 42.5319 88.7545 43.2278 88.405C47.8369 86.0908 52.5362 83.8991 57.2621 81.7358C57.6424 81.5616 58.0226 81.3875 58.4144 81.208C72.7227 74.6756 87.4928 68.7531 102.692 63.6049C104.427 63.0118 104.427 63.0118 105 63.0118Z" fill="#82AAFF"/>
<path d="M58.2022 23.622C59.8897 24.5371 60.7237 25.4742 61.4644 26.9313C62.0789 28.0895 62.6959 28.3714 64.1971 28.8575C65.233 29.5991 65.644 30.1512 65.7223 31.2283C65.6523 32.2955 65.1915 32.8483 64.1971 33.5991C63.0835 34.1761 62.7419 34.1941 61.4481 34.2025C61.0951 34.2058 60.7421 34.2092 60.3784 34.2127C59.9971 34.2132 59.6158 34.2138 59.223 34.2144C58.8305 34.2162 58.438 34.2179 58.0337 34.2197C57.2026 34.2224 56.3715 34.2237 55.5405 34.2236C54.2706 34.2247 53.0011 34.2343 51.7314 34.2443C50.924 34.2458 50.1166 34.2469 49.3092 34.2474C48.7403 34.253 48.7403 34.253 48.16 34.2588C46.0537 34.2493 44.7753 34.1821 43.1832 33.0723C42.2787 32.2398 41.8744 31.6706 41.5945 30.6027C41.9248 29.249 42.8836 28.4387 44.2 27.5404C45.3135 27.252 46.1444 27.2508 47.314 27.2605C47.8664 27.2641 47.8664 27.2641 48.4301 27.2677C48.7119 27.2708 48.9937 27.2739 49.284 27.277C49.3277 27.1194 49.3714 26.9619 49.4164 26.7996C49.9243 25.3826 51.1525 24.4074 52.6733 23.5891C54.5033 23.115 56.3798 23.141 58.2022 23.622Z" fill="#FCFCFC"/>
<path d="M24.2 47.1058C28.644 47.1058 33.088 47.1058 37.6666 47.1058C37.6666 48.9228 37.6666 50.7397 37.6666 52.6117C33.2226 52.6117 28.7786 52.6117 24.2 52.6117C24.2 50.7948 24.2 48.9778 24.2 47.1058Z" fill="#117737"/>
<path d="M72.3837 20.1973C73.6116 20.4251 74.1499 20.8869 74.8962 21.6049C75.2563 22.0793 75.2563 22.0793 75.4264 22.6143C75.5106 22.8382 75.5106 22.8382 75.5965 23.0665C76.1562 23.2435 76.7238 23.4079 77.2972 23.5601C78.0388 24.3673 78.1926 24.598 77.9775 25.5346C77.0599 26.3867 76.5632 26.7334 75.0749 26.9166C74.6176 26.9197 74.1602 26.916 73.7031 26.9065C73.4596 26.9059 73.216 26.9053 72.9652 26.9048C72.4525 26.9024 71.9399 26.897 71.4274 26.8888C70.6443 26.8766 69.8619 26.8737 69.0785 26.8723C68.5792 26.8688 68.0798 26.8648 67.5804 26.8602C67.3473 26.8589 67.1141 26.8576 66.8739 26.8562C65.655 26.8343 64.7041 26.7903 63.6914 26.275C62.8409 25.3494 62.8287 24.9031 63.0111 23.8069C63.6701 23.0819 63.6701 23.0819 64.7118 22.5729C65.7489 22.4747 66.7341 22.499 67.7731 22.5729C67.8156 22.424 67.8582 22.2751 67.902 22.1217C68.5515 20.4736 70.2555 20.1236 72.3837 20.1973Z" fill="#FAFAFA"/>
<path d="M27.7008 80.1412C28.0268 80.7469 28.3529 81.3525 28.6888 81.9765C28.4133 82.1134 28.1378 82.2503 27.8539 82.3913C24.8479 83.8991 21.9835 85.5284 19.1377 87.2202C18.4461 87.6314 17.753 88.0408 17.0587 88.4492C16.7747 88.6179 16.4907 88.7865 16.198 88.9603C15.5149 89.3177 15.5149 89.3177 14.8562 89.3177C14.3986 88.8034 13.9584 88.279 13.5388 87.7446C16.8777 85.1699 20.8196 83.1463 24.6955 81.1244C24.8853 81.0241 25.0752 80.9237 25.2708 80.8203C26.1634 80.3628 26.6156 80.1412 27.7008 80.1412Z" fill="white"/>
<path d="M49.9042 69.7412C50.3239 70.5434 50.5722 71.0651 50.5722 71.9496C50.3266 72.0663 50.0811 72.1831 49.8281 72.3034C48.9004 72.7446 47.9729 73.186 47.0455 73.6276C46.6472 73.8172 46.2489 74.0068 45.8505 74.1962C45.2715 74.4714 44.6928 74.7471 44.1141 75.0227C43.7375 75.2011 43.3609 75.3794 42.9729 75.5632C42.2753 75.9022 41.5853 76.2521 40.9056 76.6151C40.6125 76.7714 40.3194 76.9277 40.0175 77.0887C39.764 77.2292 39.5106 77.3697 39.2495 77.5145C38.5484 77.7465 38.5484 77.7465 37.8147 77.5568C37.0141 77.075 36.8376 76.5814 36.5444 75.8142C39.8713 74.1419 43.2069 72.4849 46.606 70.9144C46.8609 70.7958 47.1157 70.6771 47.3782 70.5549C49.1549 69.7412 49.1549 69.7412 49.9042 69.7412Z" fill="white"/>
<path d="M69.1924 62.4C69.5286 63.0144 69.8648 63.6289 70.2112 64.2619C68.0164 65.1396 65.7974 65.9699 63.5611 66.7801C62.3915 67.2048 61.233 67.6408 60.0863 68.1021C59.0038 68.5177 59.0038 68.5177 58.3245 68.5177C57.3057 66.9883 57.3057 66.9883 57.3057 66.3898C68.0122 62.4 68.0122 62.4 69.1924 62.4Z" fill="white"/>
<path d="M86.3927 57.5059C86.8021 58.296 87.0443 58.8099 87.0443 59.681C86.7604 59.7634 86.4765 59.8458 86.184 59.9306C83.8646 60.6114 81.5885 61.3321 79.3319 62.1504C78.5734 62.4 78.5734 62.4 77.9218 62.4C76.9443 60.8366 76.9443 60.8366 76.9443 60.2248C77.2866 60.1197 77.6289 60.0145 77.9816 59.9062C78.4436 59.7634 78.9056 59.6203 79.3675 59.4771C79.6058 59.4033 79.844 59.3295 80.0895 59.2534C81.5936 58.7827 83.0616 58.2787 84.5041 57.6864C85.0895 57.5059 85.0895 57.5059 86.3927 57.5059Z" fill="white"/>
<path d="M102.956 53.2236C103.441 54.0677 103.304 54.863 103.284 55.793C100.334 56.364 97.3836 56.935 94.4334 57.506C93.855 56.6244 93.7778 56.2975 93.7778 55.2221C100.916 53.2236 100.916 53.2236 102.956 53.2236Z" fill="white"/>
<path d="M40.4722 50.7764C41.5024 51.7582 41.5468 52.122 41.5944 53.4782C41.593 53.8213 41.5915 54.1644 41.5901 54.5179C41.5897 54.7011 41.5893 54.8843 41.5889 55.0731C41.5874 55.6559 41.5839 56.2386 41.5805 56.8214C41.5791 57.2175 41.5779 57.6136 41.5767 58.0096C41.5737 58.9786 41.569 59.9475 41.5634 60.9164C41.0232 61.0451 41.0232 61.0451 40.4722 61.1764C40.4722 57.7444 40.4722 54.3124 40.4722 50.7764Z" fill="#1A1A1A"/>
<g filter="url(#filter1_d_73_2243)">
<path d="M66.9859 80.8149C66.8929 80.8811 66.5723 81.6913 66.2651 82.6231L65.7134 84.2965L66.274 84.3779L66.8176 84.4568L67.3095 82.695C67.7512 81.0854 67.7737 80.9093 67.4867 80.8078C67.2954 80.7402 67.079 80.7487 66.9859 80.8149Z" fill="#7EE787" fill-opacity="0.37"/>
<path d="M76.6625 82.2394C76.5758 82.2866 76.2552 83.0969 75.948 84.0286L75.3962 85.702L75.8889 85.7735L76.3815 85.845L76.9573 84.3146C77.2672 83.4829 77.4858 82.6578 77.468 82.4958C77.4199 82.2099 76.9246 82.0383 76.6625 82.2394Z" fill="#7EE787" fill-opacity="0.37"/>
<path d="M61.7743 84.8757C61.5498 84.9627 61.3466 85.4712 60.8897 87.0189C60.0673 89.729 60.2111 90.0487 62.8786 91.3525C64.5654 92.1752 64.7369 92.5189 64.2729 93.9261C64.0284 94.6677 64.0023 94.9628 64.1748 95.0875C64.4644 95.2889 71.7352 96.3444 72.1251 96.2415C72.3603 96.1761 72.5223 95.9007 72.7982 95.064C73.2496 93.6948 73.4992 93.5318 75.5264 93.2682C78.7644 92.8415 79.3879 92.3542 80.3096 89.5588C80.8049 88.0566 80.8731 87.6879 80.6836 87.5608C80.3153 87.328 62.0918 84.7226 61.7743 84.8757ZM71.501 88.2005C72.3985 88.6098 73.1539 89.0183 73.2074 89.1257C73.2503 89.2116 72.8513 89.612 72.3208 90.0331C71.3189 90.8043 71.3189 90.8043 72.1467 91.2632C72.2807 91.3424 72.379 91.4763 72.3539 91.5523C72.2617 91.778 67.0903 94.2354 66.7845 94.1911C66.2749 94.1171 66.4844 93.5896 67.3057 92.7723C68.1968 91.9053 68.3588 91.6299 68.036 91.5831C67.9171 91.5658 67.5577 91.414 67.2386 91.2482C66.5324 90.9065 66.5637 90.8115 68.2146 88.7198C68.9547 87.7711 69.3474 87.3898 69.5682 87.4218C69.7381 87.4465 70.6035 87.7913 71.501 88.2005Z" fill="#2F2E41"/>
<path d="M68.3003 89.7999C67.8431 90.4309 67.4511 90.9718 67.4386 91.0099C67.426 91.0479 67.6835 91.1849 67.9982 91.3103C68.9654 91.6699 69.1343 91.9136 68.7567 92.3569C68.4445 92.7101 68.4445 92.7101 69.1009 92.4467C70.1384 91.9995 70.2923 91.8027 69.7354 91.6023C69.4886 91.4868 69.2884 91.3382 69.3135 91.2621C69.3449 91.167 69.8056 90.7955 70.3298 90.3934C70.871 89.9937 71.2851 89.6553 71.2637 89.6124C71.236 89.5884 70.7426 89.3574 70.1812 89.1165L69.1433 88.647L68.3003 89.7999Z" fill="#7EE787" fill-opacity="0.37"/>
<path d="M65.8891 96.0185C65.8023 96.0657 65.6949 96.2295 65.651 96.3626C65.5946 96.5337 66.0219 96.6954 67.1646 96.9011C68.7256 97.1875 68.7659 97.1734 68.9038 96.755C69.0355 96.3557 68.9908 96.3293 67.5468 96.1197C66.7144 95.9989 65.9651 95.9499 65.8891 96.0185Z" fill="#7EE787" fill-opacity="0.37"/>
<path d="M78.0074 100.029C77.7691 100.752 77.7906 100.795 78.2662 100.864C78.7419 100.933 78.7884 100.9 79.0267 100.177C79.2649 99.4546 79.2435 99.4117 78.7678 99.3426C78.2922 99.2736 78.2456 99.3067 78.0074 100.029Z" fill="#7EE787" fill-opacity="0.37"/>
</g>
<defs>
<filter id="filter0_d_73_2243" x="0" y="0" width="103.95" height="82.6353" filterUnits="userSpaceOnUse" color-interpolation-filters="sRGB">
<feFlood flood-opacity="0" result="BackgroundImageFix"/>
<feColorMatrix in="SourceAlpha" type="matrix" values="0 0 0 0 0 0 0 0 0 0 0 0 0 0 0 0 0 0 127 0" result="hardAlpha"/>
<feOffset dy="4"/>
<feGaussianBlur stdDeviation="2"/>
<feComposite in2="hardAlpha" operator="out"/>
<feColorMatrix type="matrix" values="0 0 0 0 0 0 0 0 0 0 0 0 0 0 0 0 0 0 0.25 0"/>
<feBlend mode="normal" in2="BackgroundImageFix" result="effect1_dropShadow_73_2243"/>
<feBlend mode="normal" in="SourceGraphic" in2="effect1_dropShadow_73_2243" result="shape"/>
</filter>
<filter id="filter1_d_73_2243" x="56.447" y="80.761" width="28.334" height="28.1274" filterUnits="userSpaceOnUse" color-interpolation-filters="sRGB">
<feFlood flood-opacity="0" result="BackgroundImageFix"/>
<feColorMatrix in="SourceAlpha" type="matrix" values="0 0 0 0 0 0 0 0 0 0 0 0 0 0 0 0 0 0 127 0" result="hardAlpha"/>
<feOffset dy="4"/>
<feGaussianBlur stdDeviation="2"/>
<feComposite in2="hardAlpha" operator="out"/>
<feColorMatrix type="matrix" values="0 0 0 0 0.509804 0 0 0 0 0.666667 0 0 0 0 1 0 0 0 1 0"/>
<feBlend mode="normal" in2="BackgroundImageFix" result="effect1_dropShadow_73_2243"/>
<feBlend mode="normal" in="SourceGraphic" in2="effect1_dropShadow_73_2243" result="shape"/>
</filter>
</defs>
</svg>
